<svg width="386" height="32" viewBox="0 0 386 32" fill="none" xmlns="http://www.w3.org/2000/svg">
<path d="M48.3264 27.7647C48.0645 27.7647 47.8503 27.6863 47.6836 27.5294C47.5169 27.3725 47.4336 27.182 47.4336 26.958V5.07569C47.4336 4.82919 47.5169 4.62751 47.6836 4.47065C47.8503 4.31378 48.0645 4.23535 48.3264 4.23535H51.1479C51.4812 4.23535 51.7312 4.32499 51.8979 4.50426C52.0645 4.66112 52.1717 4.78437 52.2193 4.874L59.1121 16.9748L66.0764 4.874C66.124 4.78437 66.2311 4.66112 66.3978 4.50426C66.5645 4.32499 66.8145 4.23535 67.1478 4.23535H69.9335C70.1954 4.23535 70.4097 4.31378 70.5764 4.47065C70.743 4.62751 70.8264 4.82919 70.8264 5.07569V26.958C70.8264 27.182 70.743 27.3725 70.5764 27.5294C70.4097 27.6863 70.1954 27.7647 69.9335 27.7647H66.9335C66.6716 27.7647 66.4573 27.6863 66.2907 27.5294C66.1478 27.3725 66.0764 27.182 66.0764 26.958V12.4034L61.0764 21.3781C60.9574 21.5798 60.8026 21.7591 60.6121 21.916C60.4216 22.0504 60.1716 22.1176 59.8621 22.1176H58.3978C58.0645 22.1176 57.8026 22.0504 57.6121 21.916C57.4455 21.7591 57.3026 21.5798 57.1836 21.3781L52.1836 12.4034V26.958C52.1836 27.182 52.1002 27.3725 51.9336 27.5294C51.7669 27.6863 51.5645 27.7647 51.3264 27.7647H48.3264Z" fill="#125496"/>
<path fill-rule="evenodd" clip-rule="evenodd" d="M74.8459 27.7647C74.6554 27.7647 74.4768 27.6975 74.3102 27.563C74.1673 27.4285 74.0959 27.2605 74.0959 27.0588C74.0959 26.9692 74.1197 26.8683 74.1673 26.7563L82.7744 5.07569C82.8459 4.8516 82.9768 4.66112 83.1673 4.50426C83.3816 4.32499 83.6673 4.23535 84.0244 4.23535H87.9173C88.2744 4.23535 88.5482 4.32499 88.7387 4.50426C88.9292 4.66112 89.072 4.8516 89.1673 5.07569L97.7744 26.7563C97.7982 26.8683 97.8101 26.9692 97.8101 27.0588C97.8101 27.2605 97.7387 27.4285 97.5958 27.563C97.4529 27.6975 97.2863 27.7647 97.0958 27.7647H93.9887C93.6553 27.7647 93.4053 27.6975 93.2387 27.563C93.0958 27.4061 93.0006 27.2605 92.953 27.126L91.2744 23.0252H80.6673L78.9887 27.126C78.9411 27.2605 78.834 27.4061 78.6673 27.563C78.5244 27.6975 78.2863 27.7647 77.953 27.7647H74.8459ZM81.9173 19.1597H90.0244L85.953 8.77315L81.9173 19.1597Z" fill="#125496"/>
<path fill-rule="evenodd" clip-rule="evenodd" d="M101.394 27.5294C101.561 27.6863 101.763 27.7647 102.001 27.7647H110.894C113.275 27.7647 115.228 27.4398 116.751 26.7899C118.299 26.1176 119.454 25.1092 120.216 23.7647C120.978 22.3978 121.382 20.6723 121.43 18.5882C121.478 17.6247 121.501 16.7619 121.501 16C121.501 15.2381 121.478 14.3642 121.43 13.3782C121.406 11.4062 120.99 9.73673 120.18 8.36979C119.394 7.00285 118.216 5.97204 116.644 5.27737C115.097 4.58269 113.12 4.23535 110.716 4.23535H102.001C101.763 4.23535 101.561 4.31378 101.394 4.47065C101.228 4.62751 101.144 4.82919 101.144 5.07569V26.958C101.144 27.182 101.228 27.3725 101.394 27.5294ZM110.716 23.8991H106.109V8.10088H110.537C112.561 8.10088 114.037 8.53786 114.966 9.41181C115.894 10.2858 116.382 11.6415 116.43 13.479C116.454 14.1289 116.466 14.7115 116.466 15.2269C116.49 15.7199 116.49 16.2241 116.466 16.7395C116.466 17.2325 116.454 17.8151 116.43 18.4874C116.406 19.7871 116.192 20.8403 115.787 21.6471C115.406 22.4314 114.799 23.0028 113.966 23.3613C113.132 23.7199 112.049 23.8991 110.716 23.8991Z" fill="#125496"/>
<path d="M127.113 27.7647C126.875 27.7647 126.673 27.6863 126.506 27.5294C126.339 27.3725 126.256 27.182 126.256 26.958V13.4454C126.256 13.2213 126.339 13.0308 126.506 12.874C126.673 12.7171 126.875 12.6387 127.113 12.6387H130.47C130.732 12.6387 130.934 12.7171 131.077 12.874C131.244 13.0308 131.327 13.2213 131.327 13.4454V26.958C131.327 27.182 131.244 27.3725 131.077 27.5294C130.934 27.6863 130.732 27.7647 130.47 27.7647H127.113Z" fill="#125496"/>
<path d="M137.178 27.5294C137.345 27.6863 137.547 27.7647 137.785 27.7647H153.785C154.047 27.7647 154.262 27.6863 154.428 27.5294C154.595 27.3725 154.678 27.182 154.678 26.958V24.7395C154.678 24.493 154.595 24.2913 154.428 24.1344C154.262 23.9776 154.047 23.8991 153.785 23.8991H141.75V17.7479H152.714C152.976 17.7479 153.19 17.6807 153.357 17.5462C153.523 17.3894 153.607 17.1877 153.607 16.9412V14.8572C153.607 14.6107 153.523 14.4202 153.357 14.2857C153.19 14.1289 152.976 14.0504 152.714 14.0504H141.75V8.10088H153.5C153.762 8.10088 153.976 8.02245 154.142 7.86559C154.309 7.70873 154.392 7.51825 154.392 7.29416V5.07569C154.392 4.82919 154.309 4.62751 154.142 4.47065C153.976 4.31378 153.762 4.23535 153.5 4.23535H137.785C137.547 4.23535 137.345 4.31378 137.178 4.47065C137.012 4.62751 136.928 4.82919 136.928 5.07569V26.958C136.928 27.182 137.012 27.3725 137.178 27.5294Z" fill="#125496"/>
<path d="M126.996 4.23535C126.585 4.23535 126.252 4.54888 126.252 4.93563V8.3133C126.252 8.70005 126.585 9.01358 126.996 9.01358H130.585C130.996 9.01358 131.329 8.70005 131.329 8.3133V4.93563C131.329 4.54888 130.996 4.23535 130.585 4.23535H126.996Z" fill="#209FA6"/>
<path d="M32.8107 10.0789C34.1059 8.49591 33.7995 6.21929 32.1262 4.99392C30.453 3.76856 28.0465 4.05847 26.7513 5.64147L13.8526 21.4059C12.5574 22.9889 12.8638 25.2655 14.5371 26.4909C16.2103 27.7163 18.6167 27.4264 19.912 25.8434L32.8107 10.0789Z" fill="url(#paint0_linear_10423_286537)"/>
<path d="M0.909244 10.0789C-0.385985 8.49591 -0.0795401 6.21929 1.59371 4.99392C3.26696 3.76856 5.67338 4.05847 6.96861 5.64147L19.8673 21.4059C21.1626 22.9889 20.8561 25.2655 19.1829 26.4909C17.5096 27.7163 15.1032 27.4264 13.808 25.8434L0.909244 10.0789Z" fill="url(#paint1_linear_10423_286537)"/>
<path d="M0 19.3871C0 18.0295 1.81985 17.445 2.69349 18.522L8.33555 25.4775C9.09372 26.4122 8.38936 27.7635 7.14402 27.7635H1.50196C0.67245 27.7635 0 27.1273 0 26.3426V19.3871Z" fill="#33C5BF"/>
<path d="M33.7112 19.3871C33.7112 18.0295 31.8914 17.445 31.0178 18.522L25.3757 25.4775C24.6175 26.4122 25.3219 27.7635 26.5672 27.7635H32.2093C33.0388 27.7635 33.7112 27.1273 33.7112 26.3426V19.3871Z" fill="#125496"/>
<path d="M189.108 12.2351C189.022 12.2351 188.948 12.2106 188.887 12.1617C188.835 12.1046 188.809 12.0353 188.809 11.9537V3.96405C188.809 3.87432 188.835 3.80499 188.887 3.75605C188.948 3.69895 189.022 3.6704 189.108 3.6704H189.758C189.862 3.6704 189.94 3.69487 189.992 3.74381C190.044 3.79276 190.075 3.83354 190.083 3.86617L192.839 8.80923L195.608 3.86617C195.626 3.83354 195.656 3.79276 195.699 3.74381C195.751 3.69487 195.829 3.6704 195.933 3.6704H196.57C196.666 3.6704 196.739 3.69895 196.791 3.75605C196.852 3.80499 196.882 3.87432 196.882 3.96405V11.9537C196.882 12.0353 196.852 12.1046 196.791 12.1617C196.739 12.2106 196.666 12.2351 196.57 12.2351H195.933C195.847 12.2351 195.773 12.2106 195.712 12.1617C195.66 12.1046 195.634 12.0353 195.634 11.9537V5.93393L193.463 9.92264C193.429 10.0042 193.377 10.0695 193.307 10.1184C193.238 10.1592 193.151 10.1796 193.047 10.1796H192.644C192.532 10.1796 192.441 10.1592 192.371 10.1184C192.311 10.0695 192.259 10.0042 192.215 9.92264L190.044 5.93393V11.9537C190.044 12.0353 190.014 12.1046 189.953 12.1617C189.901 12.2106 189.832 12.2351 189.745 12.2351H189.108Z" fill="#717171"/>
<path d="M201.652 12.3575C200.76 12.3575 200.049 12.1005 199.52 11.5866C198.992 11.0646 198.701 10.355 198.649 9.4577C198.641 9.35166 198.636 9.21707 198.636 9.05393C198.636 8.88264 198.641 8.74397 198.649 8.63793C198.684 8.05879 198.827 7.55307 199.078 7.12076C199.33 6.68028 199.672 6.34177 200.105 6.10523C200.547 5.86868 201.063 5.7504 201.652 5.7504C202.311 5.7504 202.861 5.88091 203.303 6.14193C203.754 6.40295 204.096 6.77409 204.33 7.25534C204.564 7.7366 204.681 8.29942 204.681 8.94381V9.15181C204.681 9.24154 204.651 9.31087 204.59 9.35981C204.538 9.40876 204.469 9.43323 204.382 9.43323H199.884C199.884 9.44138 199.884 9.4577 199.884 9.48217C199.884 9.50664 199.884 9.52703 199.884 9.54334C199.902 9.87777 199.98 10.1918 200.118 10.4855C200.257 10.771 200.456 11.0034 200.716 11.1829C200.976 11.3623 201.288 11.452 201.652 11.452C201.964 11.452 202.224 11.4072 202.432 11.3175C202.64 11.2277 202.809 11.1299 202.939 11.0238C203.069 10.9096 203.156 10.824 203.199 10.7669C203.277 10.6608 203.338 10.5997 203.381 10.5833C203.425 10.5589 203.494 10.5466 203.589 10.5466H204.213C204.3 10.5466 204.369 10.5711 204.421 10.62C204.482 10.6608 204.508 10.722 204.499 10.8036C204.491 10.9259 204.421 11.0768 204.291 11.2563C204.161 11.4276 203.975 11.5989 203.732 11.7702C203.49 11.9415 203.195 12.0842 202.848 12.1984C202.502 12.3044 202.103 12.3575 201.652 12.3575ZM199.884 8.58899H203.446V8.55228C203.446 8.18523 203.373 7.85895 203.225 7.57346C203.087 7.28797 202.883 7.06366 202.614 6.90052C202.346 6.72923 202.025 6.64358 201.652 6.64358C201.28 6.64358 200.959 6.72923 200.69 6.90052C200.43 7.06366 200.231 7.28797 200.092 7.57346C199.954 7.85895 199.884 8.18523 199.884 8.55228V8.58899Z" fill="#717171"/>
<path d="M208.121 12.3575C207.688 12.3575 207.293 12.2759 206.938 12.1128C206.583 11.9496 206.297 11.7294 206.08 11.452C205.863 11.1747 205.755 10.8607 205.755 10.5099C205.755 9.94711 205.998 9.49848 206.483 9.16405C206.968 8.82962 207.601 8.60938 208.381 8.50334L210.318 8.2464V7.89158C210.318 7.50005 210.197 7.19417 209.954 6.97393C209.72 6.7537 209.334 6.64358 208.797 6.64358C208.407 6.64358 208.091 6.71699 207.848 6.86381C207.614 7.01064 207.449 7.19825 207.354 7.42664C207.302 7.54899 207.211 7.61017 207.081 7.61017H206.496C206.401 7.61017 206.327 7.5857 206.275 7.53676C206.232 7.47966 206.21 7.4144 206.21 7.34099C206.21 7.21864 206.258 7.06774 206.353 6.88828C206.457 6.70883 206.613 6.53346 206.821 6.36217C207.029 6.19087 207.293 6.04813 207.614 5.93393C207.943 5.81158 208.342 5.7504 208.81 5.7504C209.33 5.7504 209.768 5.81566 210.123 5.94617C210.478 6.06852 210.756 6.23574 210.955 6.44781C211.163 6.65989 211.31 6.90052 211.397 7.1697C211.492 7.43887 211.54 7.71213 211.54 7.98946V11.9537C211.54 12.0353 211.51 12.1046 211.449 12.1617C211.397 12.2106 211.328 12.2351 211.241 12.2351H210.643C210.548 12.2351 210.474 12.2106 210.422 12.1617C210.37 12.1046 210.344 12.0353 210.344 11.9537V11.4276C210.231 11.5744 210.08 11.7212 209.889 11.868C209.698 12.0067 209.46 12.125 209.174 12.2229C208.888 12.3126 208.537 12.3575 208.121 12.3575ZM208.394 11.4398C208.749 11.4398 209.074 11.3705 209.369 11.2318C209.664 11.085 209.893 10.8607 210.058 10.5589C210.231 10.2571 210.318 9.87778 210.318 9.42099V9.0784L208.81 9.2864C208.195 9.36797 207.731 9.50664 207.419 9.7024C207.107 9.89001 206.951 10.1306 206.951 10.4243C206.951 10.6527 207.02 10.8444 207.159 10.9993C207.306 11.1462 207.488 11.2563 207.705 11.3297C207.93 11.4031 208.16 11.4398 208.394 11.4398Z" fill="#717171"/>
<path d="M215.749 12.3575C215.263 12.3575 214.847 12.3004 214.501 12.1862C214.154 12.072 213.872 11.9333 213.656 11.7702C213.439 11.607 213.274 11.4439 213.162 11.2808C213.058 11.1176 213.001 10.9871 212.993 10.8892C212.984 10.7995 213.014 10.7302 213.084 10.6812C213.153 10.6323 213.222 10.6078 213.292 10.6078H213.864C213.916 10.6078 213.955 10.616 213.981 10.6323C214.015 10.6404 214.059 10.6731 214.111 10.7302C214.223 10.8444 214.349 10.9586 214.488 11.0728C214.626 11.187 214.795 11.2808 214.995 11.3542C215.203 11.4276 215.458 11.4643 215.762 11.4643C216.204 11.4643 216.568 11.3868 216.854 11.2318C217.14 11.0687 217.283 10.8321 217.283 10.5222C217.283 10.3182 217.222 10.1551 217.101 10.0328C216.988 9.9104 216.78 9.80028 216.477 9.7024C216.182 9.60452 215.775 9.50256 215.255 9.39652C214.735 9.28232 214.323 9.14366 214.02 8.98052C213.716 8.80923 213.5 8.60938 213.37 8.38099C213.24 8.14444 213.175 7.87934 213.175 7.5857C213.175 7.28389 213.27 6.99432 213.461 6.71699C213.651 6.4315 213.929 6.19903 214.293 6.01958C214.665 5.84013 215.129 5.7504 215.684 5.7504C216.134 5.7504 216.52 5.80342 216.841 5.90946C217.161 6.0155 217.426 6.15009 217.634 6.31323C217.842 6.46821 217.998 6.62319 218.102 6.77817C218.206 6.93315 218.262 7.06366 218.271 7.1697C218.279 7.25126 218.253 7.3206 218.193 7.3777C218.132 7.42664 218.063 7.45111 217.985 7.45111H217.439C217.378 7.45111 217.326 7.43887 217.283 7.4144C217.248 7.38993 217.213 7.36138 217.179 7.32876C217.092 7.22272 216.988 7.11668 216.867 7.01064C216.754 6.9046 216.602 6.81895 216.412 6.7537C216.23 6.68028 215.987 6.64358 215.684 6.64358C215.25 6.64358 214.925 6.72923 214.709 6.90052C214.492 7.07181 214.384 7.28797 214.384 7.54899C214.384 7.70397 214.431 7.84264 214.527 7.96499C214.622 8.08734 214.804 8.19746 215.073 8.29534C215.341 8.39323 215.74 8.49927 216.269 8.61346C216.841 8.7195 217.291 8.86225 217.621 9.0417C217.95 9.22115 218.184 9.42915 218.323 9.6657C218.461 9.90225 218.531 10.1755 218.531 10.4855C218.531 10.828 218.422 11.1421 218.206 11.4276C217.998 11.7131 217.686 11.9415 217.27 12.1128C216.862 12.2759 216.355 12.3575 215.749 12.3575Z" fill="#717171"/>
<path d="M222.558 12.3575C222.003 12.3575 221.531 12.2433 221.141 12.0149C220.759 11.7783 220.469 11.452 220.27 11.036C220.07 10.62 219.971 10.1429 219.971 9.60452V6.15417C219.971 6.0726 219.997 6.00734 220.049 5.9584C220.109 5.9013 220.183 5.87275 220.27 5.87275H220.92C221.006 5.87275 221.076 5.9013 221.128 5.9584C221.188 6.00734 221.219 6.0726 221.219 6.15417V9.54334C221.219 10.7587 221.782 11.3664 222.909 11.3664C223.446 11.3664 223.875 11.2073 224.196 10.8892C224.525 10.563 224.69 10.1143 224.69 9.54334V6.15417C224.69 6.0726 224.716 6.00734 224.768 5.9584C224.828 5.9013 224.902 5.87275 224.989 5.87275H225.626C225.721 5.87275 225.795 5.9013 225.847 5.9584C225.899 6.00734 225.925 6.0726 225.925 6.15417V11.9537C225.925 12.0353 225.899 12.1046 225.847 12.1617C225.795 12.2106 225.721 12.2351 225.626 12.2351H225.028C224.941 12.2351 224.867 12.2106 224.807 12.1617C224.755 12.1046 224.729 12.0353 224.729 11.9537V11.4153C224.495 11.7008 224.209 11.9292 223.871 12.1005C223.541 12.2718 223.104 12.3575 222.558 12.3575Z" fill="#717171"/>
<path d="M228.155 12.2351C228.068 12.2351 227.995 12.2106 227.934 12.1617C227.882 12.1046 227.856 12.0353 227.856 11.9537V6.1664C227.856 6.08483 227.882 6.0155 227.934 5.9584C227.995 5.9013 228.068 5.87275 228.155 5.87275H228.753C228.84 5.87275 228.913 5.9013 228.974 5.9584C229.035 6.0155 229.065 6.08483 229.065 6.1664V6.70476C229.238 6.42742 229.477 6.21942 229.78 6.08075C230.083 5.94209 230.447 5.87275 230.872 5.87275H231.392C231.479 5.87275 231.548 5.9013 231.6 5.9584C231.652 6.00734 231.678 6.0726 231.678 6.15417V6.65581C231.678 6.73738 231.652 6.80264 231.6 6.85158C231.548 6.90052 231.479 6.92499 231.392 6.92499H230.612C230.144 6.92499 229.776 7.0555 229.507 7.31652C229.238 7.56938 229.104 7.91605 229.104 8.35652V11.9537C229.104 12.0353 229.074 12.1046 229.013 12.1617C228.952 12.2106 228.879 12.2351 228.792 12.2351H228.155Z" fill="#717171"/>
<path d="M235.359 12.3575C234.466 12.3575 233.755 12.1005 233.227 11.5866C232.698 11.0646 232.408 10.355 232.356 9.4577C232.347 9.35166 232.343 9.21707 232.343 9.05393C232.343 8.88264 232.347 8.74397 232.356 8.63793C232.39 8.05879 232.533 7.55307 232.785 7.12076C233.036 6.68028 233.378 6.34177 233.812 6.10523C234.254 5.86868 234.769 5.7504 235.359 5.7504C236.017 5.7504 236.568 5.88091 237.01 6.14193C237.46 6.40295 237.803 6.77409 238.037 7.25534C238.271 7.7366 238.388 8.29942 238.388 8.94381V9.15181C238.388 9.24154 238.357 9.31087 238.297 9.35981C238.245 9.40876 238.175 9.43323 238.089 9.43323H233.591C233.591 9.44138 233.591 9.4577 233.591 9.48217C233.591 9.50664 233.591 9.52703 233.591 9.54334C233.608 9.87777 233.686 10.1918 233.825 10.4855C233.963 10.771 234.163 11.0034 234.423 11.1829C234.683 11.3623 234.995 11.452 235.359 11.452C235.671 11.452 235.931 11.4072 236.139 11.3175C236.347 11.2277 236.516 11.1299 236.646 11.0238C236.776 10.9096 236.862 10.824 236.906 10.7669C236.984 10.6608 237.044 10.5997 237.088 10.5833C237.131 10.5589 237.2 10.5466 237.296 10.5466H237.92C238.006 10.5466 238.076 10.5711 238.128 10.62C238.188 10.6608 238.214 10.722 238.206 10.8036C238.197 10.9259 238.128 11.0768 237.998 11.2563C237.868 11.4276 237.681 11.5989 237.439 11.7702C237.196 11.9415 236.901 12.0842 236.555 12.1984C236.208 12.3044 235.809 12.3575 235.359 12.3575ZM233.591 8.58899H237.153V8.55228C237.153 8.18523 237.079 7.85895 236.932 7.57346C236.793 7.28797 236.589 7.06366 236.321 6.90052C236.052 6.72923 235.731 6.64358 235.359 6.64358C234.986 6.64358 234.665 6.72923 234.397 6.90052C234.137 7.06366 233.937 7.28797 233.799 7.57346C233.66 7.85895 233.591 8.18523 233.591 8.55228V8.58899Z" fill="#717171"/>
<path d="M242.344 12.2351C242.274 12.2351 242.214 12.2106 242.162 12.1617C242.11 12.1128 242.084 12.0557 242.084 11.9904C242.084 11.9496 242.088 11.9048 242.097 11.8558L245.321 3.93958C245.355 3.85801 245.403 3.79276 245.464 3.74381C245.524 3.69487 245.615 3.6704 245.737 3.6704H246.621C246.733 3.6704 246.82 3.69487 246.881 3.74381C246.95 3.79276 247.002 3.85801 247.037 3.93958L250.248 11.8558C250.265 11.9048 250.274 11.9496 250.274 11.9904C250.274 12.0557 250.248 12.1128 250.196 12.1617C250.144 12.2106 250.083 12.2351 250.014 12.2351H249.351C249.247 12.2351 249.169 12.2106 249.117 12.1617C249.073 12.1128 249.043 12.0679 249.026 12.0271L248.311 10.2897H244.047L243.332 12.0271C243.323 12.0679 243.293 12.1128 243.241 12.1617C243.189 12.2106 243.111 12.2351 243.007 12.2351H242.344ZM244.424 9.23746H247.934L246.179 4.89393L244.424 9.23746Z" fill="#717171"/>
<path d="M253.928 12.3575C253.373 12.3575 252.901 12.2433 252.511 12.0149C252.129 11.7783 251.839 11.452 251.64 11.036C251.44 10.62 251.341 10.1429 251.341 9.60452V6.15417C251.341 6.0726 251.367 6.00734 251.419 5.9584C251.479 5.9013 251.553 5.87275 251.64 5.87275H252.29C252.376 5.87275 252.446 5.9013 252.498 5.9584C252.558 6.00734 252.589 6.0726 252.589 6.15417V9.54334C252.589 10.7587 253.152 11.3664 254.279 11.3664C254.816 11.3664 255.245 11.2073 255.566 10.8892C255.895 10.563 256.06 10.1143 256.06 9.54334V6.15417C256.06 6.0726 256.086 6.00734 256.138 5.9584C256.198 5.9013 256.272 5.87275 256.359 5.87275H256.996C257.091 5.87275 257.165 5.9013 257.217 5.9584C257.269 6.00734 257.295 6.0726 257.295 6.15417V11.9537C257.295 12.0353 257.269 12.1046 257.217 12.1617C257.165 12.2106 257.091 12.2351 256.996 12.2351H256.398C256.311 12.2351 256.238 12.2106 256.177 12.1617C256.125 12.1046 256.099 12.0353 256.099 11.9537V11.4153C255.865 11.7008 255.579 11.9292 255.241 12.1005C254.911 12.2718 254.474 12.3575 253.928 12.3575Z" fill="#717171"/>
<path d="M261.865 12.2351C261.38 12.2351 260.985 12.1495 260.682 11.9782C260.379 11.7987 260.158 11.5499 260.019 11.2318C259.88 10.9055 259.811 10.5222 259.811 10.0817V6.85158H258.797C258.71 6.85158 258.637 6.82711 258.576 6.77817C258.524 6.72107 258.498 6.65174 258.498 6.57017V6.15417C258.498 6.0726 258.524 6.00734 258.576 5.9584C258.637 5.9013 258.71 5.87275 258.797 5.87275H259.811V3.82946C259.811 3.74789 259.837 3.68264 259.889 3.6337C259.95 3.5766 260.023 3.54805 260.11 3.54805H260.721C260.808 3.54805 260.877 3.5766 260.929 3.6337C260.99 3.68264 261.02 3.74789 261.02 3.82946V5.87275H262.632C262.719 5.87275 262.788 5.9013 262.84 5.9584C262.901 6.00734 262.931 6.0726 262.931 6.15417V6.57017C262.931 6.65174 262.901 6.72107 262.84 6.77817C262.788 6.82711 262.719 6.85158 262.632 6.85158H261.02V9.99605C261.02 10.3794 261.089 10.6812 261.228 10.9015C261.367 11.1217 261.614 11.2318 261.969 11.2318H262.762C262.849 11.2318 262.918 11.2604 262.97 11.3175C263.031 11.3664 263.061 11.4317 263.061 11.5132V11.9537C263.061 12.0353 263.031 12.1046 262.97 12.1617C262.918 12.2106 262.849 12.2351 262.762 12.2351H261.865Z" fill="#717171"/>
<path d="M264.616 12.2351C264.53 12.2351 264.456 12.2106 264.395 12.1617C264.343 12.1046 264.317 12.0353 264.317 11.9537V3.82946C264.317 3.74789 264.343 3.68264 264.395 3.6337C264.456 3.5766 264.53 3.54805 264.616 3.54805H265.266C265.362 3.54805 265.435 3.5766 265.487 3.6337C265.539 3.68264 265.565 3.74789 265.565 3.82946V6.68028C265.799 6.40295 266.085 6.17864 266.423 6.00734C266.761 5.83605 267.19 5.7504 267.71 5.7504C268.274 5.7504 268.75 5.86868 269.14 6.10523C269.539 6.33362 269.838 6.65581 270.037 7.07181C270.245 7.47966 270.349 7.95683 270.349 8.50334V11.9537C270.349 12.0353 270.323 12.1046 270.271 12.1617C270.219 12.2106 270.146 12.2351 270.05 12.2351H269.4C269.314 12.2351 269.24 12.2106 269.179 12.1617C269.127 12.1046 269.101 12.0353 269.101 11.9537V8.56452C269.101 7.99354 268.954 7.54899 268.659 7.23087C268.365 6.9046 267.931 6.74146 267.359 6.74146C266.822 6.74146 266.389 6.9046 266.059 7.23087C265.73 7.54899 265.565 7.99354 265.565 8.56452V11.9537C265.565 12.0353 265.539 12.1046 265.487 12.1617C265.435 12.2106 265.362 12.2351 265.266 12.2351H264.616Z" fill="#717171"/>
<path d="M274.995 12.3575C274.336 12.3575 273.786 12.2392 273.344 12.0026C272.902 11.7661 272.564 11.4398 272.33 11.0238C272.096 10.5997 271.966 10.1184 271.94 9.58005C271.931 9.44138 271.927 9.26601 271.927 9.05393C271.927 8.8337 271.931 8.65832 271.94 8.52781C271.966 7.9813 272.096 7.50005 272.33 7.08405C272.573 6.66805 272.915 6.34177 273.357 6.10523C273.799 5.86868 274.345 5.7504 274.995 5.7504C275.645 5.7504 276.191 5.86868 276.633 6.10523C277.075 6.34177 277.413 6.66805 277.647 7.08405C277.89 7.50005 278.024 7.9813 278.05 8.52781C278.059 8.65832 278.063 8.8337 278.063 9.05393C278.063 9.26601 278.059 9.44138 278.05 9.58005C278.024 10.1184 277.894 10.5997 277.66 11.0238C277.426 11.4398 277.088 11.7661 276.646 12.0026C276.204 12.2392 275.654 12.3575 274.995 12.3575ZM274.995 11.4153C275.532 11.4153 275.961 11.2563 276.282 10.9382C276.603 10.6119 276.776 10.1388 276.802 9.51887C276.811 9.39652 276.815 9.24154 276.815 9.05393C276.815 8.86632 276.811 8.71134 276.802 8.58899C276.776 7.96907 276.603 7.50005 276.282 7.18193C275.961 6.85566 275.532 6.69252 274.995 6.69252C274.458 6.69252 274.024 6.85566 273.695 7.18193C273.374 7.50005 273.205 7.96907 273.188 8.58899C273.179 8.71134 273.175 8.86632 273.175 9.05393C273.175 9.24154 273.179 9.39652 273.188 9.51887C273.205 10.1388 273.374 10.6119 273.695 10.9382C274.024 11.2563 274.458 11.4153 274.995 11.4153Z" fill="#717171"/>
<path d="M279.99 12.2351C279.903 12.2351 279.83 12.2106 279.769 12.1617C279.717 12.1046 279.691 12.0353 279.691 11.9537V6.1664C279.691 6.08483 279.717 6.0155 279.769 5.9584C279.83 5.9013 279.903 5.87275 279.99 5.87275H280.588C280.675 5.87275 280.748 5.9013 280.809 5.9584C280.87 6.0155 280.9 6.08483 280.9 6.1664V6.70476C281.073 6.42742 281.312 6.21942 281.615 6.08075C281.918 5.94209 282.282 5.87275 282.707 5.87275H283.227C283.314 5.87275 283.383 5.9013 283.435 5.9584C283.487 6.00734 283.513 6.0726 283.513 6.15417V6.65581C283.513 6.73738 283.487 6.80264 283.435 6.85158C283.383 6.90052 283.314 6.92499 283.227 6.92499H282.447C281.979 6.92499 281.611 7.0555 281.342 7.31652C281.073 7.56938 280.939 7.91605 280.939 8.35652V11.9537C280.939 12.0353 280.909 12.1046 280.848 12.1617C280.787 12.2106 280.714 12.2351 280.627 12.2351H279.99Z" fill="#717171"/>
<path d="M284.928 12.2351C284.842 12.2351 284.768 12.2106 284.707 12.1617C284.655 12.1046 284.629 12.0353 284.629 11.9537V6.15417C284.629 6.0726 284.655 6.00734 284.707 5.9584C284.768 5.9013 284.842 5.87275 284.928 5.87275H285.552C285.639 5.87275 285.708 5.9013 285.76 5.9584C285.812 6.00734 285.838 6.0726 285.838 6.15417V11.9537C285.838 12.0353 285.812 12.1046 285.76 12.1617C285.708 12.2106 285.639 12.2351 285.552 12.2351H284.928ZM284.824 4.68593C284.738 4.68593 284.664 4.66146 284.603 4.61252C284.551 4.55542 284.525 4.48609 284.525 4.40452V3.74381C284.525 3.66225 284.551 3.59699 284.603 3.54805C284.664 3.49095 284.738 3.4624 284.824 3.4624H285.643C285.73 3.4624 285.799 3.49095 285.851 3.54805C285.912 3.59699 285.942 3.66225 285.942 3.74381V4.40452C285.942 4.48609 285.912 4.55542 285.851 4.61252C285.799 4.66146 285.73 4.68593 285.643 4.68593H284.824Z" fill="#717171"/>
<path d="M288.204 12.2351C288.117 12.2351 288.044 12.2106 287.983 12.1617C287.931 12.1046 287.905 12.0353 287.905 11.9537V6.15417C287.905 6.0726 287.931 6.00734 287.983 5.9584C288.044 5.9013 288.117 5.87275 288.204 5.87275H288.815C288.902 5.87275 288.971 5.9013 289.023 5.9584C289.084 6.00734 289.114 6.0726 289.114 6.15417V6.69252C289.339 6.41519 289.621 6.19087 289.959 6.01958C290.306 5.84013 290.748 5.7504 291.285 5.7504C291.848 5.7504 292.325 5.86868 292.715 6.10523C293.114 6.33362 293.413 6.65581 293.612 7.07181C293.811 7.47966 293.911 7.95683 293.911 8.50334V11.9537C293.911 12.0353 293.885 12.1046 293.833 12.1617C293.781 12.2106 293.712 12.2351 293.625 12.2351H292.975C292.888 12.2351 292.815 12.2106 292.754 12.1617C292.702 12.1046 292.676 12.0353 292.676 11.9537V8.56452C292.676 7.99354 292.529 7.54899 292.234 7.23087C291.939 6.9046 291.506 6.74146 290.934 6.74146C290.397 6.74146 289.963 6.9046 289.634 7.23087C289.313 7.54899 289.153 7.99354 289.153 8.56452V11.9537C289.153 12.0353 289.123 12.1046 289.062 12.1617C289.01 12.2106 288.941 12.2351 288.854 12.2351H288.204Z" fill="#717171"/>
<path d="M298.558 14.9269C297.968 14.9269 297.483 14.8535 297.102 14.7066C296.729 14.5598 296.434 14.3804 296.218 14.1683C296.01 13.9644 295.858 13.7564 295.763 13.5443C295.676 13.3404 295.628 13.1772 295.62 13.0549C295.611 12.9733 295.637 12.904 295.698 12.8469C295.767 12.7898 295.841 12.7612 295.919 12.7612H296.543C296.621 12.7612 296.686 12.7775 296.738 12.8102C296.79 12.8428 296.833 12.9121 296.868 13.0182C296.92 13.1405 296.998 13.2751 297.102 13.4219C297.206 13.5769 297.366 13.7074 297.583 13.8135C297.799 13.9277 298.103 13.9848 298.493 13.9848C298.9 13.9848 299.242 13.9317 299.52 13.8257C299.797 13.7278 300.005 13.5484 300.144 13.2873C300.291 13.0345 300.365 12.6837 300.365 12.2351V11.4031C300.157 11.656 299.884 11.868 299.546 12.0393C299.208 12.2025 298.783 12.284 298.272 12.284C297.786 12.284 297.37 12.2066 297.024 12.0516C296.677 11.8884 296.391 11.6723 296.166 11.4031C295.949 11.1258 295.784 10.8117 295.672 10.461C295.568 10.1102 295.507 9.74319 295.49 9.35981C295.481 9.13142 295.481 8.90711 295.49 8.68687C295.507 8.3035 295.568 7.93644 295.672 7.5857C295.784 7.23495 295.949 6.92091 296.166 6.64358C296.391 6.36625 296.677 6.15009 297.024 5.99511C297.37 5.83197 297.786 5.7504 298.272 5.7504C298.792 5.7504 299.221 5.84421 299.559 6.03181C299.905 6.21126 300.187 6.4315 300.404 6.69252V6.1664C300.404 6.08483 300.43 6.0155 300.482 5.9584C300.542 5.9013 300.616 5.87275 300.703 5.87275H301.301C301.387 5.87275 301.461 5.9013 301.522 5.9584C301.582 6.0155 301.613 6.08483 301.613 6.1664V12.1005C301.613 12.647 301.513 13.1324 301.314 13.5565C301.123 13.9807 300.802 14.3151 300.352 14.5598C299.91 14.8045 299.312 14.9269 298.558 14.9269ZM298.532 11.3052C298.965 11.3052 299.312 11.2114 299.572 11.0238C299.84 10.8362 300.035 10.5997 300.157 10.3142C300.287 10.0287 300.356 9.73911 300.365 9.44546C300.373 9.33127 300.378 9.1926 300.378 9.02946C300.378 8.85817 300.373 8.71542 300.365 8.60123C300.356 8.30758 300.287 8.01801 300.157 7.73252C300.035 7.44703 299.84 7.21048 299.572 7.02287C299.312 6.83526 298.965 6.74146 298.532 6.74146C298.098 6.74146 297.752 6.83526 297.492 7.02287C297.232 7.20232 297.045 7.44295 296.933 7.74476C296.82 8.0384 296.755 8.35652 296.738 8.69911C296.729 8.91119 296.729 9.12734 296.738 9.34758C296.755 9.69017 296.82 10.0124 296.933 10.3142C297.045 10.6078 297.232 10.8484 297.492 11.036C297.752 11.2155 298.098 11.3052 298.532 11.3052Z" fill="#717171"/>
<path d="M307.2 12.2351C307.105 12.2351 307.031 12.2106 306.979 12.1617C306.927 12.1046 306.901 12.0353 306.901 11.9537V3.96405C306.901 3.87432 306.927 3.80499 306.979 3.75605C307.031 3.69895 307.105 3.6704 307.2 3.6704H310.151C311.044 3.6704 311.763 3.79683 312.309 4.0497C312.855 4.30256 313.254 4.67777 313.505 5.17534C313.756 5.66476 313.886 6.26836 313.895 6.98617C313.904 7.35323 313.908 7.67542 313.908 7.95276C313.908 8.23009 313.904 8.54821 313.895 8.90711C313.878 9.65754 313.743 10.2815 313.492 10.7791C313.249 11.2685 312.859 11.6356 312.322 11.8803C311.793 12.1168 311.091 12.2351 310.216 12.2351H307.2ZM308.175 11.1951H310.151C310.749 11.1951 311.226 11.1176 311.581 10.9626C311.936 10.8077 312.192 10.5589 312.348 10.2163C312.513 9.8737 312.599 9.42099 312.608 8.85817C312.625 8.61346 312.634 8.40138 312.634 8.22193C312.634 8.03432 312.634 7.85079 312.634 7.67134C312.634 7.48374 312.625 7.27166 312.608 7.03511C312.591 6.24389 312.391 5.66068 312.01 5.28546C311.629 4.90209 310.987 4.7104 310.086 4.7104H308.175V11.1951Z" fill="#717171"/>
<path d="M318.386 12.3575C317.493 12.3575 316.783 12.1005 316.254 11.5866C315.725 11.0646 315.435 10.355 315.383 9.4577C315.374 9.35166 315.37 9.21707 315.37 9.05393C315.37 8.88264 315.374 8.74397 315.383 8.63793C315.418 8.05879 315.561 7.55307 315.812 7.12076C316.063 6.68028 316.406 6.34177 316.839 6.10523C317.281 5.86868 317.797 5.7504 318.386 5.7504C319.045 5.7504 319.595 5.88091 320.037 6.14193C320.488 6.40295 320.83 6.77409 321.064 7.25534C321.298 7.7366 321.415 8.29942 321.415 8.94381V9.15181C321.415 9.24154 321.385 9.31087 321.324 9.35981C321.272 9.40876 321.203 9.43323 321.116 9.43323H316.618C316.618 9.44138 316.618 9.4577 316.618 9.48217C316.618 9.50664 316.618 9.52703 316.618 9.54334C316.635 9.87777 316.713 10.1918 316.852 10.4855C316.991 10.771 317.19 11.0034 317.45 11.1829C317.71 11.3623 318.022 11.452 318.386 11.452C318.698 11.452 318.958 11.4072 319.166 11.3175C319.374 11.2277 319.543 11.1299 319.673 11.0238C319.803 10.9096 319.89 10.824 319.933 10.7669C320.011 10.6608 320.072 10.5997 320.115 10.5833C320.158 10.5589 320.228 10.5466 320.323 10.5466H320.947C321.034 10.5466 321.103 10.5711 321.155 10.62C321.216 10.6608 321.242 10.722 321.233 10.8036C321.224 10.9259 321.155 11.0768 321.025 11.2563C320.895 11.4276 320.709 11.5989 320.466 11.7702C320.223 11.9415 319.929 12.0842 319.582 12.1984C319.235 12.3044 318.837 12.3575 318.386 12.3575ZM316.618 8.58899H320.18V8.55228C320.18 8.18523 320.106 7.85895 319.959 7.57346C319.82 7.28797 319.617 7.06366 319.348 6.90052C319.079 6.72923 318.759 6.64358 318.386 6.64358C318.013 6.64358 317.693 6.72923 317.424 6.90052C317.164 7.06366 316.965 7.28797 316.826 7.57346C316.687 7.85895 316.618 8.18523 316.618 8.55228V8.58899Z" fill="#717171"/>
<path d="M325.094 12.2351C324.964 12.2351 324.86 12.2066 324.782 12.1495C324.712 12.0924 324.656 12.019 324.613 11.9292L322.208 6.25205C322.19 6.21126 322.182 6.17048 322.182 6.1297C322.182 6.05628 322.208 5.99511 322.26 5.94617C322.312 5.89723 322.377 5.87275 322.455 5.87275H323.079C323.174 5.87275 323.248 5.89723 323.3 5.94617C323.352 5.99511 323.382 6.03997 323.391 6.08075L325.38 10.9015L327.356 6.08075C327.373 6.03997 327.403 5.99511 327.447 5.94617C327.499 5.89723 327.572 5.87275 327.668 5.87275H328.305C328.374 5.87275 328.435 5.89723 328.487 5.94617C328.547 5.99511 328.578 6.05628 328.578 6.1297C328.578 6.17048 328.569 6.21126 328.552 6.25205L326.134 11.9292C326.099 12.019 326.043 12.0924 325.965 12.1495C325.895 12.2066 325.791 12.2351 325.653 12.2351H325.094Z" fill="#717171"/>
<path d="M332.389 12.3575C331.496 12.3575 330.785 12.1005 330.257 11.5866C329.728 11.0646 329.438 10.355 329.386 9.4577C329.377 9.35166 329.373 9.21707 329.373 9.05393C329.373 8.88264 329.377 8.74397 329.386 8.63793C329.42 8.05879 329.563 7.55307 329.815 7.12076C330.066 6.68028 330.408 6.34177 330.842 6.10523C331.284 5.86868 331.799 5.7504 332.389 5.7504C333.047 5.7504 333.598 5.88091 334.04 6.14193C334.49 6.40295 334.833 6.77409 335.067 7.25534C335.301 7.7366 335.418 8.29942 335.418 8.94381V9.15181C335.418 9.24154 335.387 9.31087 335.327 9.35981C335.275 9.40876 335.205 9.43323 335.119 9.43323H330.621C330.621 9.44138 330.621 9.4577 330.621 9.48217C330.621 9.50664 330.621 9.52703 330.621 9.54334C330.638 9.87777 330.716 10.1918 330.855 10.4855C330.993 10.771 331.193 11.0034 331.453 11.1829C331.713 11.3623 332.025 11.452 332.389 11.452C332.701 11.452 332.961 11.4072 333.169 11.3175C333.377 11.2277 333.546 11.1299 333.676 11.0238C333.806 10.9096 333.892 10.824 333.936 10.7669C334.014 10.6608 334.074 10.5997 334.118 10.5833C334.161 10.5589 334.23 10.5466 334.326 10.5466H334.95C335.036 10.5466 335.106 10.5711 335.158 10.62C335.218 10.6608 335.244 10.722 335.236 10.8036C335.227 10.9259 335.158 11.0768 335.028 11.2563C334.898 11.4276 334.711 11.5989 334.469 11.7702C334.226 11.9415 333.931 12.0842 333.585 12.1984C333.238 12.3044 332.839 12.3575 332.389 12.3575ZM330.621 8.58899H334.183V8.55228C334.183 8.18523 334.109 7.85895 333.962 7.57346C333.823 7.28797 333.619 7.06366 333.351 6.90052C333.082 6.72923 332.761 6.64358 332.389 6.64358C332.016 6.64358 331.695 6.72923 331.427 6.90052C331.167 7.06366 330.967 7.28797 330.829 7.57346C330.69 7.85895 330.621 8.18523 330.621 8.55228V8.58899Z" fill="#717171"/>
<path d="M337.284 12.2351C337.198 12.2351 337.124 12.2106 337.063 12.1617C337.011 12.1046 336.985 12.0353 336.985 11.9537V3.82946C336.985 3.74789 337.011 3.68264 337.063 3.6337C337.124 3.5766 337.198 3.54805 337.284 3.54805H337.895C337.991 3.54805 338.064 3.5766 338.116 3.6337C338.168 3.68264 338.194 3.74789 338.194 3.82946V11.9537C338.194 12.0353 338.168 12.1046 338.116 12.1617C338.064 12.2106 337.991 12.2351 337.895 12.2351H337.284Z" fill="#717171"/>
<path d="M342.902 12.3575C342.244 12.3575 341.693 12.2392 341.251 12.0026C340.809 11.7661 340.471 11.4398 340.237 11.0238C340.003 10.5997 339.873 10.1184 339.847 9.58005C339.839 9.44138 339.834 9.26601 339.834 9.05393C339.834 8.8337 339.839 8.65832 339.847 8.52781C339.873 7.9813 340.003 7.50005 340.237 7.08405C340.48 6.66805 340.822 6.34177 341.264 6.10523C341.706 5.86868 342.252 5.7504 342.902 5.7504C343.552 5.7504 344.098 5.86868 344.54 6.10523C344.982 6.34177 345.32 6.66805 345.554 7.08405C345.797 7.50005 345.931 7.9813 345.957 8.52781C345.966 8.65832 345.97 8.8337 345.97 9.05393C345.97 9.26601 345.966 9.44138 345.957 9.58005C345.931 10.1184 345.801 10.5997 345.567 11.0238C345.333 11.4398 344.995 11.7661 344.553 12.0026C344.111 12.2392 343.561 12.3575 342.902 12.3575ZM342.902 11.4153C343.44 11.4153 343.869 11.2563 344.189 10.9382C344.51 10.6119 344.683 10.1388 344.709 9.51887C344.718 9.39652 344.722 9.24154 344.722 9.05393C344.722 8.86632 344.718 8.71134 344.709 8.58899C344.683 7.96907 344.51 7.50005 344.189 7.18193C343.869 6.85566 343.44 6.69252 342.902 6.69252C342.365 6.69252 341.932 6.85566 341.602 7.18193C341.282 7.50005 341.113 7.96907 341.095 8.58899C341.087 8.71134 341.082 8.86632 341.082 9.05393C341.082 9.24154 341.087 9.39652 341.095 9.51887C341.113 10.1388 341.282 10.6119 341.602 10.9382C341.932 11.2563 342.365 11.4153 342.902 11.4153Z" fill="#717171"/>
<path d="M347.91 14.5598C347.824 14.5598 347.75 14.5313 347.689 14.4742C347.637 14.4252 347.611 14.36 347.611 14.2784V6.15417C347.611 6.0726 347.637 6.00734 347.689 5.9584C347.75 5.9013 347.824 5.87275 347.91 5.87275H348.508C348.595 5.87275 348.664 5.9013 348.716 5.9584C348.777 6.00734 348.807 6.0726 348.807 6.15417V6.69252C349.015 6.42334 349.293 6.19903 349.639 6.01958C349.986 5.84013 350.419 5.7504 350.939 5.7504C351.425 5.7504 351.836 5.82789 352.174 5.98287C352.521 6.13785 352.803 6.34993 353.019 6.61911C353.245 6.88828 353.414 7.19417 353.526 7.53676C353.639 7.87934 353.7 8.2464 353.708 8.63793C353.717 8.76844 353.721 8.90711 353.721 9.05393C353.721 9.20076 353.717 9.33942 353.708 9.46993C353.7 9.8533 353.639 10.2204 353.526 10.5711C353.414 10.9137 353.245 11.2196 353.019 11.4888C352.803 11.7498 352.521 11.9619 352.174 12.125C351.836 12.28 351.425 12.3575 350.939 12.3575C350.437 12.3575 350.012 12.2718 349.665 12.1005C349.327 11.9211 349.05 11.7008 348.833 11.4398V14.2784C348.833 14.36 348.807 14.4252 348.755 14.4742C348.703 14.5313 348.63 14.5598 348.534 14.5598H347.91ZM350.666 11.3664C351.117 11.3664 351.468 11.2767 351.719 11.0972C351.979 10.9096 352.166 10.669 352.278 10.3753C352.391 10.0735 352.456 9.75134 352.473 9.40876C352.482 9.17221 352.482 8.93566 352.473 8.69911C352.456 8.35652 352.391 8.0384 352.278 7.74476C352.166 7.44295 351.979 7.20232 351.719 7.02287C351.468 6.83526 351.117 6.74146 350.666 6.74146C350.242 6.74146 349.895 6.83526 349.626 7.02287C349.366 7.21048 349.171 7.45111 349.041 7.74476C348.92 8.03025 348.851 8.32389 348.833 8.6257C348.825 8.75621 348.82 8.91119 348.82 9.09064C348.82 9.27009 348.825 9.42915 348.833 9.56781C348.842 9.8533 348.911 10.1347 349.041 10.412C349.18 10.6894 349.384 10.9178 349.652 11.0972C349.921 11.2767 350.259 11.3664 350.666 11.3664Z" fill="#717171"/>
<path d="M355.641 12.2351C355.555 12.2351 355.481 12.2106 355.42 12.1617C355.368 12.1046 355.342 12.0353 355.342 11.9537V6.15417C355.342 6.0726 355.368 6.00734 355.42 5.9584C355.481 5.9013 355.555 5.87275 355.641 5.87275H356.226C356.313 5.87275 356.382 5.9013 356.434 5.9584C356.495 6.00734 356.525 6.0726 356.525 6.15417V6.5824C356.725 6.32954 356.976 6.1297 357.279 5.98287C357.583 5.82789 357.947 5.7504 358.371 5.7504C359.351 5.74225 360.044 6.11746 360.451 6.87605C360.651 6.53346 360.941 6.26021 361.322 6.05628C361.704 5.85236 362.137 5.7504 362.622 5.7504C363.073 5.7504 363.48 5.84828 363.844 6.04405C364.217 6.23981 364.507 6.53754 364.715 6.93723C364.932 7.32876 365.04 7.82225 365.04 8.4177V11.9537C365.04 12.0353 365.01 12.1046 364.949 12.1617C364.897 12.2106 364.828 12.2351 364.741 12.2351H364.13C364.044 12.2351 363.97 12.2106 363.909 12.1617C363.857 12.1046 363.831 12.0353 363.831 11.9537V8.52781C363.831 8.07103 363.762 7.71213 363.623 7.45111C363.485 7.19009 363.298 7.00656 363.064 6.90052C362.83 6.79448 362.575 6.74146 362.297 6.74146C362.072 6.74146 361.842 6.79448 361.608 6.90052C361.374 7.00656 361.179 7.19009 361.023 7.45111C360.876 7.71213 360.802 8.07103 360.802 8.52781V11.9537C360.802 12.0353 360.772 12.1046 360.711 12.1617C360.659 12.2106 360.59 12.2351 360.503 12.2351H359.892C359.806 12.2351 359.732 12.2106 359.671 12.1617C359.619 12.1046 359.593 12.0353 359.593 11.9537V8.52781C359.593 8.07103 359.52 7.71213 359.372 7.45111C359.225 7.19009 359.034 7.00656 358.8 6.90052C358.566 6.79448 358.319 6.74146 358.059 6.74146C357.834 6.74146 357.604 6.79448 357.37 6.90052C357.136 7.00656 356.941 7.19009 356.785 7.45111C356.638 7.71213 356.564 8.06695 356.564 8.51558V11.9537C356.564 12.0353 356.534 12.1046 356.473 12.1617C356.421 12.2106 356.352 12.2351 356.265 12.2351H355.641Z" fill="#717171"/>
<path d="M369.586 12.3575C368.693 12.3575 367.983 12.1005 367.454 11.5866C366.925 11.0646 366.635 10.355 366.583 9.4577C366.574 9.35166 366.57 9.21707 366.57 9.05393C366.57 8.88264 366.574 8.74397 366.583 8.63793C366.618 8.05879 366.761 7.55307 367.012 7.12076C367.263 6.68028 367.606 6.34177 368.039 6.10523C368.481 5.86868 368.997 5.7504 369.586 5.7504C370.245 5.7504 370.795 5.88091 371.237 6.14193C371.688 6.40295 372.03 6.77409 372.264 7.25534C372.498 7.7366 372.615 8.29942 372.615 8.94381V9.15181C372.615 9.24154 372.585 9.31087 372.524 9.35981C372.472 9.40876 372.403 9.43323 372.316 9.43323H367.818C367.818 9.44138 367.818 9.4577 367.818 9.48217C367.818 9.50664 367.818 9.52703 367.818 9.54334C367.835 9.87777 367.913 10.1918 368.052 10.4855C368.191 10.771 368.39 11.0034 368.65 11.1829C368.91 11.3623 369.222 11.452 369.586 11.452C369.898 11.452 370.158 11.4072 370.366 11.3175C370.574 11.2277 370.743 11.1299 370.873 11.0238C371.003 10.9096 371.09 10.824 371.133 10.7669C371.211 10.6608 371.272 10.5997 371.315 10.5833C371.358 10.5589 371.428 10.5466 371.523 10.5466H372.147C372.234 10.5466 372.303 10.5711 372.355 10.62C372.416 10.6608 372.442 10.722 372.433 10.8036C372.424 10.9259 372.355 11.0768 372.225 11.2563C372.095 11.4276 371.909 11.5989 371.666 11.7702C371.423 11.9415 371.129 12.0842 370.782 12.1984C370.435 12.3044 370.037 12.3575 369.586 12.3575ZM367.818 8.58899H371.38V8.55228C371.38 8.18523 371.306 7.85895 371.159 7.57346C371.02 7.28797 370.817 7.06366 370.548 6.90052C370.279 6.72923 369.959 6.64358 369.586 6.64358C369.213 6.64358 368.893 6.72923 368.624 6.90052C368.364 7.06366 368.165 7.28797 368.026 7.57346C367.887 7.85895 367.818 8.18523 367.818 8.55228V8.58899Z" fill="#717171"/>
<path d="M374.469 12.2351C374.382 12.2351 374.308 12.2106 374.247 12.1617C374.195 12.1046 374.17 12.0353 374.17 11.9537V6.15417C374.17 6.0726 374.195 6.00734 374.247 5.9584C374.308 5.9013 374.382 5.87275 374.469 5.87275H375.079C375.166 5.87275 375.236 5.9013 375.288 5.9584C375.348 6.00734 375.379 6.0726 375.379 6.15417V6.69252C375.604 6.41519 375.886 6.19087 376.224 6.01958C376.57 5.84013 377.012 5.7504 377.549 5.7504C378.113 5.7504 378.59 5.86868 378.98 6.10523C379.378 6.33362 379.677 6.65581 379.877 7.07181C380.076 7.47966 380.176 7.95683 380.176 8.50334V11.9537C380.176 12.0353 380.15 12.1046 380.098 12.1617C380.046 12.2106 379.976 12.2351 379.89 12.2351H379.24C379.153 12.2351 379.079 12.2106 379.019 12.1617C378.967 12.1046 378.941 12.0353 378.941 11.9537V8.56452C378.941 7.99354 378.793 7.54899 378.499 7.23087C378.204 6.9046 377.771 6.74146 377.199 6.74146C376.661 6.74146 376.228 6.9046 375.898 7.23087C375.578 7.54899 375.418 7.99354 375.418 8.56452V11.9537C375.418 12.0353 375.387 12.1046 375.327 12.1617C375.275 12.2106 375.205 12.2351 375.118 12.2351H374.469Z" fill="#717171"/>
<path d="M384.603 12.2351C384.118 12.2351 383.724 12.1495 383.42 11.9782C383.117 11.7987 382.896 11.5499 382.757 11.2318C382.619 10.9055 382.549 10.5222 382.549 10.0817V6.85158H381.535C381.449 6.85158 381.375 6.82711 381.314 6.77817C381.262 6.72107 381.236 6.65174 381.236 6.57017V6.15417C381.236 6.0726 381.262 6.00734 381.314 5.9584C381.375 5.9013 381.449 5.87275 381.535 5.87275H382.549V3.82946C382.549 3.74789 382.575 3.68264 382.627 3.6337C382.688 3.5766 382.762 3.54805 382.848 3.54805H383.459C383.546 3.54805 383.615 3.5766 383.667 3.6337C383.728 3.68264 383.758 3.74789 383.758 3.82946V5.87275H385.37C385.457 5.87275 385.526 5.9013 385.578 5.9584C385.639 6.00734 385.669 6.0726 385.669 6.15417V6.57017C385.669 6.65174 385.639 6.72107 385.578 6.77817C385.526 6.82711 385.457 6.85158 385.37 6.85158H383.758V9.99605C383.758 10.3794 383.828 10.6812 383.966 10.9015C384.105 11.1217 384.352 11.2318 384.707 11.2318H385.5C385.587 11.2318 385.656 11.2604 385.708 11.3175C385.769 11.3664 385.799 11.4317 385.799 11.5132V11.9537C385.799 12.0353 385.769 12.1046 385.708 12.1617C385.656 12.2106 385.587 12.2351 385.5 12.2351H384.603Z" fill="#717171"/>
<path d="M189.108 27.2939C189.013 27.2939 188.939 27.2695 188.887 27.2205C188.835 27.1634 188.809 27.0941 188.809 27.0125V19.0106C188.809 18.9291 188.835 18.8638 188.887 18.8149C188.939 18.7578 189.013 18.7292 189.108 18.7292H189.797C189.884 18.7292 189.953 18.7578 190.005 18.8149C190.066 18.8638 190.096 18.9291 190.096 19.0106V27.0125C190.096 27.0941 190.066 27.1634 190.005 27.2205C189.953 27.2695 189.884 27.2939 189.797 27.2939H189.108Z" fill="#717171"/>
<path d="M192.494 27.2939C192.407 27.2939 192.334 27.2695 192.273 27.2205C192.221 27.1634 192.195 27.0941 192.195 27.0125V21.213C192.195 21.1314 192.221 21.0662 192.273 21.0172C192.334 20.9601 192.407 20.9316 192.494 20.9316H193.105C193.192 20.9316 193.261 20.9601 193.313 21.0172C193.374 21.0662 193.404 21.1314 193.404 21.213V21.7513C193.629 21.474 193.911 21.2497 194.249 21.0784C194.596 20.899 195.038 20.8092 195.575 20.8092C196.138 20.8092 196.615 20.9275 197.005 21.164C197.404 21.3924 197.703 21.7146 197.902 22.1306C198.101 22.5385 198.201 23.0157 198.201 23.5622V27.0125C198.201 27.0941 198.175 27.1634 198.123 27.2205C198.071 27.2695 198.002 27.2939 197.915 27.2939H197.265C197.178 27.2939 197.105 27.2695 197.044 27.2205C196.992 27.1634 196.966 27.0941 196.966 27.0125V23.6233C196.966 23.0524 196.819 22.6078 196.524 22.2897C196.229 21.9634 195.796 21.8003 195.224 21.8003C194.687 21.8003 194.253 21.9634 193.924 22.2897C193.603 22.6078 193.443 23.0524 193.443 23.6233V27.0125C193.443 27.0941 193.413 27.1634 193.352 27.2205C193.3 27.2695 193.231 27.2939 193.144 27.2939H192.494Z" fill="#717171"/>
<path d="M202.629 27.2939C202.143 27.2939 201.749 27.2083 201.446 27.037C201.142 26.8575 200.921 26.6088 200.783 26.2906C200.644 25.9644 200.575 25.581 200.575 25.1405V21.9104H199.561C199.474 21.9104 199.4 21.8859 199.34 21.837C199.288 21.7799 199.262 21.7106 199.262 21.629V21.213C199.262 21.1314 199.288 21.0662 199.34 21.0172C199.4 20.9601 199.474 20.9316 199.561 20.9316H200.575V18.8883C200.575 18.8067 200.601 18.7415 200.653 18.6925C200.713 18.6354 200.787 18.6069 200.874 18.6069H201.485C201.571 18.6069 201.641 18.6354 201.693 18.6925C201.753 18.7415 201.784 18.8067 201.784 18.8883V20.9316H203.396C203.482 20.9316 203.552 20.9601 203.604 21.0172C203.664 21.0662 203.695 21.1314 203.695 21.213V21.629C203.695 21.7106 203.664 21.7799 203.604 21.837C203.552 21.8859 203.482 21.9104 203.396 21.9104H201.784V25.0549C201.784 25.4382 201.853 25.74 201.992 25.9603C202.13 26.1805 202.377 26.2906 202.733 26.2906H203.526C203.612 26.2906 203.682 26.3192 203.734 26.3763C203.794 26.4252 203.825 26.4905 203.825 26.5721V27.0125C203.825 27.0941 203.794 27.1634 203.734 27.2205C203.682 27.2695 203.612 27.2939 203.526 27.2939H202.629Z" fill="#717171"/>
<path d="M207.759 27.4163C206.866 27.4163 206.156 27.1593 205.627 26.6455C205.098 26.1234 204.808 25.4138 204.756 24.5165C204.747 24.4105 204.743 24.2759 204.743 24.1128C204.743 23.9415 204.747 23.8028 204.756 23.6968C204.791 23.1176 204.934 22.6119 205.185 22.1796C205.436 21.7391 205.779 21.4006 206.212 21.164C206.654 20.9275 207.17 20.8092 207.759 20.8092C208.418 20.8092 208.968 20.9397 209.41 21.2008C209.861 21.4618 210.203 21.8329 210.437 22.3142C210.671 22.7954 210.788 23.3582 210.788 24.0026V24.2106C210.788 24.3004 210.758 24.3697 210.697 24.4186C210.645 24.4676 210.576 24.4921 210.489 24.4921H205.991C205.991 24.5002 205.991 24.5165 205.991 24.541C205.991 24.5655 205.991 24.5859 205.991 24.6022C206.008 24.9366 206.086 25.2506 206.225 25.5443C206.364 25.8298 206.563 26.0622 206.823 26.2417C207.083 26.4211 207.395 26.5109 207.759 26.5109C208.071 26.5109 208.331 26.466 208.539 26.3763C208.747 26.2866 208.916 26.1887 209.046 26.0826C209.176 25.9684 209.263 25.8828 209.306 25.8257C209.384 25.7197 209.445 25.6585 209.488 25.6422C209.531 25.6177 209.601 25.6055 209.696 25.6055H210.32C210.407 25.6055 210.476 25.6299 210.528 25.6789C210.589 25.7197 210.615 25.7808 210.606 25.8624C210.597 25.9848 210.528 26.1357 210.398 26.3151C210.268 26.4864 210.082 26.6577 209.839 26.829C209.596 27.0003 209.302 27.143 208.955 27.2572C208.608 27.3633 208.21 27.4163 207.759 27.4163ZM205.991 23.6478H209.553V23.6111C209.553 23.2441 209.479 22.9178 209.332 22.6323C209.193 22.3468 208.99 22.1225 208.721 21.9593C208.452 21.788 208.132 21.7024 207.759 21.7024C207.386 21.7024 207.066 21.788 206.797 21.9593C206.537 22.1225 206.338 22.3468 206.199 22.6323C206.06 22.9178 205.991 23.2441 205.991 23.6111V23.6478Z" fill="#717171"/>
<path d="M215.111 29.9857C214.522 29.9857 214.037 29.9123 213.655 29.7655C213.283 29.6186 212.988 29.4392 212.771 29.2271C212.563 29.0232 212.412 28.8152 212.316 28.6031C212.23 28.3992 212.182 28.2361 212.173 28.1137C212.165 28.0321 212.191 27.9628 212.251 27.9057C212.321 27.8486 212.394 27.8201 212.472 27.8201H213.096C213.174 27.8201 213.239 27.8364 213.291 27.869C213.343 27.9016 213.387 27.971 213.421 28.077C213.473 28.1993 213.551 28.3339 213.655 28.4808C213.759 28.6357 213.92 28.7662 214.136 28.8723C214.353 28.9865 214.656 29.0436 215.046 29.0436C215.454 29.0436 215.796 28.9906 216.073 28.8845C216.351 28.7866 216.559 28.6072 216.697 28.3462C216.845 28.0933 216.918 27.7426 216.918 27.2939V26.4619C216.71 26.7148 216.437 26.9269 216.099 27.0982C215.761 27.2613 215.337 27.3429 214.825 27.3429C214.34 27.3429 213.924 27.2654 213.577 27.1104C213.231 26.9473 212.945 26.7311 212.719 26.4619C212.503 26.1846 212.338 25.8706 212.225 25.5198C212.121 25.1691 212.061 24.802 212.043 24.4186C212.035 24.1902 212.035 23.9659 212.043 23.7457C212.061 23.3623 212.121 22.9953 212.225 22.6445C212.338 22.2938 212.503 21.9797 212.719 21.7024C212.945 21.4251 213.231 21.2089 213.577 21.0539C213.924 20.8908 214.34 20.8092 214.825 20.8092C215.345 20.8092 215.774 20.903 216.112 21.0906C216.459 21.2701 216.741 21.4903 216.957 21.7513V21.2252C216.957 21.1437 216.983 21.0743 217.035 21.0172C217.096 20.9601 217.17 20.9316 217.256 20.9316H217.854C217.941 20.9316 218.015 20.9601 218.075 21.0172C218.136 21.0743 218.166 21.1437 218.166 21.2252V27.1593C218.166 27.7059 218.067 28.1912 217.867 28.6153C217.677 29.0395 217.356 29.3739 216.905 29.6186C216.463 29.8633 215.865 29.9857 215.111 29.9857ZM215.085 26.364C215.519 26.364 215.865 26.2702 216.125 26.0826C216.394 25.895 216.589 25.6585 216.71 25.373C216.84 25.0875 216.91 24.7979 216.918 24.5043C216.927 24.3901 216.931 24.2514 216.931 24.0883C216.931 23.917 216.927 23.7742 216.918 23.66C216.91 23.3664 216.84 23.0768 216.71 22.7913C216.589 22.5059 216.394 22.2693 216.125 22.0817C215.865 21.8941 215.519 21.8003 215.085 21.8003C214.652 21.8003 214.305 21.8941 214.045 22.0817C213.785 22.2611 213.599 22.5018 213.486 22.8036C213.374 23.0972 213.309 23.4153 213.291 23.7579C213.283 23.97 213.283 24.1862 213.291 24.4064C213.309 24.749 213.374 25.0712 213.486 25.373C213.599 25.6666 213.785 25.9073 214.045 26.0949C214.305 26.2743 214.652 26.364 215.085 26.364Z" fill="#717171"/>
<path d="M220.398 27.2939C220.312 27.2939 220.238 27.2695 220.177 27.2205C220.125 27.1634 220.099 27.0941 220.099 27.0125V21.2252C220.099 21.1437 220.125 21.0743 220.177 21.0172C220.238 20.9601 220.312 20.9316 220.398 20.9316H220.996C221.083 20.9316 221.157 20.9601 221.217 21.0172C221.278 21.0743 221.308 21.1437 221.308 21.2252V21.7636C221.482 21.4862 221.72 21.2782 222.023 21.1396C222.327 21.0009 222.691 20.9316 223.115 20.9316H223.635C223.722 20.9316 223.791 20.9601 223.843 21.0172C223.895 21.0662 223.921 21.1314 223.921 21.213V21.7146C223.921 21.7962 223.895 21.8615 223.843 21.9104C223.791 21.9593 223.722 21.9838 223.635 21.9838H222.855C222.387 21.9838 222.019 22.1143 221.75 22.3753C221.482 22.6282 221.347 22.9749 221.347 23.4153V27.0125C221.347 27.0941 221.317 27.1634 221.256 27.2205C221.196 27.2695 221.122 27.2939 221.035 27.2939H220.398Z" fill="#717171"/>
<path d="M226.821 27.4163C226.388 27.4163 225.993 27.3347 225.638 27.1716C225.283 27.0084 224.997 26.7882 224.78 26.5109C224.563 26.2335 224.455 25.9195 224.455 25.5688C224.455 25.0059 224.698 24.5573 225.183 24.2229C225.668 23.8884 226.301 23.6682 227.081 23.5622L229.018 23.3052V22.9504C229.018 22.5589 228.897 22.253 228.654 22.0328C228.42 21.8125 228.034 21.7024 227.497 21.7024C227.107 21.7024 226.791 21.7758 226.548 21.9226C226.314 22.0695 226.149 22.2571 226.054 22.4855C226.002 22.6078 225.911 22.669 225.781 22.669H225.196C225.101 22.669 225.027 22.6445 224.975 22.5956C224.932 22.5385 224.91 22.4732 224.91 22.3998C224.91 22.2775 224.958 22.1266 225.053 21.9471C225.157 21.7677 225.313 21.5923 225.521 21.421C225.729 21.2497 225.993 21.107 226.314 20.9928C226.643 20.8704 227.042 20.8092 227.51 20.8092C228.03 20.8092 228.468 20.8745 228.823 21.005C229.178 21.1273 229.456 21.2946 229.655 21.5066C229.863 21.7187 230.01 21.9593 230.097 22.2285C230.192 22.4977 230.24 22.771 230.24 23.0483V27.0125C230.24 27.0941 230.21 27.1634 230.149 27.2205C230.097 27.2695 230.028 27.2939 229.941 27.2939H229.343C229.248 27.2939 229.174 27.2695 229.122 27.2205C229.07 27.1634 229.044 27.0941 229.044 27.0125V26.4864C228.931 26.6332 228.78 26.78 228.589 26.9269C228.398 27.0655 228.16 27.1838 227.874 27.2817C227.588 27.3714 227.237 27.4163 226.821 27.4163ZM227.094 26.4986C227.449 26.4986 227.774 26.4293 228.069 26.2906C228.364 26.1438 228.593 25.9195 228.758 25.6177C228.931 25.3159 229.018 24.9366 229.018 24.4798V24.1372L227.51 24.3452C226.895 24.4268 226.431 24.5655 226.119 24.7612C225.807 24.9488 225.651 25.1895 225.651 25.4831C225.651 25.7115 225.72 25.9032 225.859 26.0582C226.006 26.205 226.188 26.3151 226.405 26.3885C226.63 26.4619 226.86 26.4986 227.094 26.4986Z" fill="#717171"/>
<path d="M234.684 27.2939C234.199 27.2939 233.805 27.2083 233.501 27.037C233.198 26.8575 232.977 26.6088 232.838 26.2906C232.7 25.9644 232.63 25.581 232.63 25.1405V21.9104H231.616C231.53 21.9104 231.456 21.8859 231.395 21.837C231.343 21.7799 231.317 21.7106 231.317 21.629V21.213C231.317 21.1314 231.343 21.0662 231.395 21.0172C231.456 20.9601 231.53 20.9316 231.616 20.9316H232.63V18.8883C232.63 18.8067 232.656 18.7415 232.708 18.6925C232.769 18.6354 232.843 18.6069 232.929 18.6069H233.54C233.627 18.6069 233.696 18.6354 233.748 18.6925C233.809 18.7415 233.839 18.8067 233.839 18.8883V20.9316H235.451C235.538 20.9316 235.607 20.9601 235.659 21.0172C235.72 21.0662 235.75 21.1314 235.75 21.213V21.629C235.75 21.7106 235.72 21.7799 235.659 21.837C235.607 21.8859 235.538 21.9104 235.451 21.9104H233.839V25.0549C233.839 25.4382 233.909 25.74 234.047 25.9603C234.186 26.1805 234.433 26.2906 234.788 26.2906H235.581C235.668 26.2906 235.737 26.3192 235.789 26.3763C235.85 26.4252 235.88 26.4905 235.88 26.5721V27.0125C235.88 27.0941 235.85 27.1634 235.789 27.2205C235.737 27.2695 235.668 27.2939 235.581 27.2939H234.684Z" fill="#717171"/>
<path d="M239.815 27.4163C238.922 27.4163 238.211 27.1593 237.683 26.6455C237.154 26.1234 236.864 25.4138 236.812 24.5165C236.803 24.4105 236.799 24.2759 236.799 24.1128C236.799 23.9415 236.803 23.8028 236.812 23.6968C236.846 23.1176 236.989 22.6119 237.241 22.1796C237.492 21.7391 237.834 21.4006 238.268 21.164C238.71 20.9275 239.225 20.8092 239.815 20.8092C240.473 20.8092 241.024 20.9397 241.466 21.2008C241.916 21.4618 242.259 21.8329 242.493 22.3142C242.727 22.7954 242.844 23.3582 242.844 24.0026V24.2106C242.844 24.3004 242.813 24.3697 242.753 24.4186C242.701 24.4676 242.631 24.4921 242.545 24.4921H238.047C238.047 24.5002 238.047 24.5165 238.047 24.541C238.047 24.5655 238.047 24.5859 238.047 24.6022C238.064 24.9366 238.142 25.2506 238.281 25.5443C238.419 25.8298 238.619 26.0622 238.879 26.2417C239.139 26.4211 239.451 26.5109 239.815 26.5109C240.127 26.5109 240.387 26.466 240.595 26.3763C240.803 26.2866 240.972 26.1887 241.102 26.0826C241.232 25.9684 241.318 25.8828 241.362 25.8257C241.44 25.7197 241.5 25.6585 241.544 25.6422C241.587 25.6177 241.656 25.6055 241.752 25.6055H242.376C242.462 25.6055 242.532 25.6299 242.584 25.6789C242.644 25.7197 242.67 25.7808 242.662 25.8624C242.653 25.9848 242.584 26.1357 242.454 26.3151C242.324 26.4864 242.137 26.6577 241.895 26.829C241.652 27.0003 241.357 27.143 241.011 27.2572C240.664 27.3633 240.265 27.4163 239.815 27.4163ZM238.047 23.6478H241.609V23.6111C241.609 23.2441 241.535 22.9178 241.388 22.6323C241.249 22.3468 241.045 22.1225 240.777 21.9593C240.508 21.788 240.187 21.7024 239.815 21.7024C239.442 21.7024 239.121 21.788 238.853 21.9593C238.593 22.1225 238.393 22.3468 238.255 22.6323C238.116 22.9178 238.047 23.2441 238.047 23.6111V23.6478Z" fill="#717171"/>
<path d="M246.868 27.4163C246.391 27.4163 245.98 27.3388 245.633 27.1838C245.286 27.0207 245 26.8045 244.775 26.5353C244.558 26.258 244.394 25.944 244.281 25.5932C244.177 25.2425 244.116 24.8713 244.099 24.4798C244.09 24.3493 244.086 24.2269 244.086 24.1128C244.086 23.9986 244.09 23.8762 244.099 23.7457C244.116 23.3623 244.177 22.9953 244.281 22.6445C244.394 22.2938 244.558 21.9797 244.775 21.7024C245 21.4251 245.286 21.2089 245.633 21.0539C245.98 20.8908 246.391 20.8092 246.868 20.8092C247.379 20.8092 247.804 20.8949 248.142 21.0662C248.48 21.2375 248.757 21.4495 248.974 21.7024V18.8883C248.974 18.8067 249 18.7415 249.052 18.6925C249.113 18.6354 249.186 18.6069 249.273 18.6069H249.897C249.984 18.6069 250.053 18.6354 250.105 18.6925C250.166 18.7415 250.196 18.8067 250.196 18.8883V27.0125C250.196 27.0941 250.166 27.1634 250.105 27.2205C250.053 27.2695 249.984 27.2939 249.897 27.2939H249.312C249.217 27.2939 249.143 27.2695 249.091 27.2205C249.039 27.1634 249.013 27.0941 249.013 27.0125V26.4986C248.796 26.7597 248.515 26.9799 248.168 27.1593C247.821 27.3306 247.388 27.4163 246.868 27.4163ZM247.141 26.4252C247.574 26.4252 247.921 26.3314 248.181 26.1438C248.441 25.9562 248.636 25.7197 248.766 25.4342C248.896 25.1405 248.965 24.8428 248.974 24.541C248.983 24.4105 248.987 24.2555 248.987 24.076C248.987 23.8884 248.983 23.7294 248.974 23.5989C248.965 23.3134 248.892 23.032 248.753 22.7546C248.623 22.4773 248.424 22.2489 248.155 22.0695C247.895 21.89 247.557 21.8003 247.141 21.8003C246.699 21.8003 246.348 21.8941 246.088 22.0817C245.828 22.2611 245.642 22.5018 245.529 22.8036C245.416 23.0972 245.351 23.4153 245.334 23.7579C245.325 23.9945 245.325 24.231 245.334 24.4676C245.351 24.8102 245.416 25.1324 245.529 25.4342C245.642 25.7278 245.828 25.9684 246.088 26.156C246.348 26.3355 246.699 26.4252 247.141 26.4252Z" fill="#717171"/>
<path d="M255.784 27.2939C255.689 27.2939 255.615 27.2695 255.563 27.2205C255.511 27.1634 255.485 27.0941 255.485 27.0125V19.0229C255.485 18.9331 255.511 18.8638 255.563 18.8149C255.615 18.7578 255.689 18.7292 255.784 18.7292H261.153C261.248 18.7292 261.322 18.7578 261.374 18.8149C261.426 18.8638 261.452 18.9331 261.452 19.0229V19.4878C261.452 19.5775 261.426 19.6469 261.374 19.6958C261.322 19.7448 261.248 19.7692 261.153 19.7692H256.733V22.4488H260.867C260.962 22.4488 261.036 22.4773 261.088 22.5344C261.14 22.5833 261.166 22.6527 261.166 22.7424V23.1951C261.166 23.2767 261.14 23.346 261.088 23.4031C261.036 23.452 260.962 23.4765 260.867 23.4765H256.733V26.2539H261.257C261.352 26.2539 261.426 26.2784 261.478 26.3273C261.53 26.3763 261.556 26.4456 261.556 26.5353V27.0125C261.556 27.0941 261.53 27.1634 261.478 27.2205C261.426 27.2695 261.352 27.2939 261.257 27.2939H255.784Z" fill="#717171"/>
<path d="M263.499 27.2939C263.412 27.2939 263.338 27.2695 263.278 27.2205C263.226 27.1634 263.2 27.0941 263.2 27.0125V21.213C263.2 21.1314 263.226 21.0662 263.278 21.0172C263.338 20.9601 263.412 20.9316 263.499 20.9316H264.11C264.196 20.9316 264.266 20.9601 264.318 21.0172C264.378 21.0662 264.409 21.1314 264.409 21.213V21.7513C264.634 21.474 264.916 21.2497 265.254 21.0784C265.6 20.899 266.042 20.8092 266.58 20.8092C267.143 20.8092 267.62 20.9275 268.01 21.164C268.408 21.3924 268.707 21.7146 268.907 22.1306C269.106 22.5385 269.206 23.0157 269.206 23.5622V27.0125C269.206 27.0941 269.18 27.1634 269.128 27.2205C269.076 27.2695 269.006 27.2939 268.92 27.2939H268.27C268.183 27.2939 268.109 27.2695 268.049 27.2205C267.997 27.1634 267.971 27.0941 267.971 27.0125V23.6233C267.971 23.0524 267.823 22.6078 267.529 22.2897C267.234 21.9634 266.801 21.8003 266.229 21.8003C265.691 21.8003 265.258 21.9634 264.929 22.2897C264.608 22.6078 264.448 23.0524 264.448 23.6233V27.0125C264.448 27.0941 264.417 27.1634 264.357 27.2205C264.305 27.2695 264.235 27.2939 264.149 27.2939H263.499Z" fill="#717171"/>
<path d="M273.246 27.2939C273.116 27.2939 273.012 27.2654 272.934 27.2083C272.865 27.1512 272.808 27.0778 272.765 26.988L270.36 21.3109C270.343 21.2701 270.334 21.2293 270.334 21.1885C270.334 21.1151 270.36 21.0539 270.412 21.005C270.464 20.956 270.529 20.9316 270.607 20.9316H271.231C271.326 20.9316 271.4 20.956 271.452 21.005C271.504 21.0539 271.534 21.0988 271.543 21.1396L273.532 25.9603L275.508 21.1396C275.525 21.0988 275.556 21.0539 275.599 21.005C275.651 20.956 275.725 20.9316 275.82 20.9316H276.457C276.526 20.9316 276.587 20.956 276.639 21.005C276.7 21.0539 276.73 21.1151 276.73 21.1885C276.73 21.2293 276.721 21.2701 276.704 21.3109L274.286 26.988C274.251 27.0778 274.195 27.1512 274.117 27.2083C274.048 27.2654 273.944 27.2939 273.805 27.2939H273.246Z" fill="#717171"/>
<path d="M278.39 27.2939C278.304 27.2939 278.23 27.2695 278.169 27.2205C278.117 27.1634 278.091 27.0941 278.091 27.0125V21.213C278.091 21.1314 278.117 21.0662 278.169 21.0172C278.23 20.9601 278.304 20.9316 278.39 20.9316H279.014C279.101 20.9316 279.17 20.9601 279.222 21.0172C279.274 21.0662 279.3 21.1314 279.3 21.213V27.0125C279.3 27.0941 279.274 27.1634 279.222 27.2205C279.17 27.2695 279.101 27.2939 279.014 27.2939H278.39ZM278.286 19.7448C278.2 19.7448 278.126 19.7203 278.065 19.6713C278.013 19.6142 277.987 19.5449 277.987 19.4633V18.8026C277.987 18.7211 278.013 18.6558 278.065 18.6069C278.126 18.5498 278.2 18.5212 278.286 18.5212H279.105C279.192 18.5212 279.261 18.5498 279.313 18.6069C279.374 18.6558 279.404 18.7211 279.404 18.8026V19.4633C279.404 19.5449 279.374 19.6142 279.313 19.6713C279.261 19.7203 279.192 19.7448 279.105 19.7448H278.286Z" fill="#717171"/>
<path d="M281.666 27.2939C281.579 27.2939 281.505 27.2695 281.445 27.2205C281.393 27.1634 281.367 27.0941 281.367 27.0125V21.2252C281.367 21.1437 281.393 21.0743 281.445 21.0172C281.505 20.9601 281.579 20.9316 281.666 20.9316H282.264C282.35 20.9316 282.424 20.9601 282.485 21.0172C282.545 21.0743 282.576 21.1437 282.576 21.2252V21.7636C282.749 21.4862 282.987 21.2782 283.291 21.1396C283.594 21.0009 283.958 20.9316 284.383 20.9316H284.903C284.989 20.9316 285.059 20.9601 285.111 21.0172C285.163 21.0662 285.189 21.1314 285.189 21.213V21.7146C285.189 21.7962 285.163 21.8615 285.111 21.9104C285.059 21.9593 284.989 21.9838 284.903 21.9838H284.123C283.655 21.9838 283.286 22.1143 283.018 22.3753C282.749 22.6282 282.615 22.9749 282.615 23.4153V27.0125C282.615 27.0941 282.584 27.1634 282.524 27.2205C282.463 27.2695 282.389 27.2939 282.303 27.2939H281.666Z" fill="#717171"/>
<path d="M288.947 27.4163C288.289 27.4163 287.738 27.298 287.296 27.0615C286.854 26.8249 286.516 26.4986 286.282 26.0826C286.048 25.6585 285.918 25.1772 285.892 24.6389C285.884 24.5002 285.879 24.3248 285.879 24.1128C285.879 23.8925 285.884 23.7171 285.892 23.5866C285.918 23.0401 286.048 22.5589 286.282 22.1429C286.525 21.7269 286.867 21.4006 287.309 21.164C287.751 20.9275 288.297 20.8092 288.947 20.8092C289.597 20.8092 290.143 20.9275 290.585 21.164C291.027 21.4006 291.365 21.7269 291.599 22.1429C291.842 22.5589 291.976 23.0401 292.002 23.5866C292.011 23.7171 292.015 23.8925 292.015 24.1128C292.015 24.3248 292.011 24.5002 292.002 24.6389C291.976 25.1772 291.846 25.6585 291.612 26.0826C291.378 26.4986 291.04 26.8249 290.598 27.0615C290.156 27.298 289.606 27.4163 288.947 27.4163ZM288.947 26.4742C289.485 26.4742 289.914 26.3151 290.234 25.997C290.555 25.6707 290.728 25.1976 290.754 24.5777C290.763 24.4553 290.767 24.3004 290.767 24.1128C290.767 23.9251 290.763 23.7702 290.754 23.6478C290.728 23.0279 290.555 22.5589 290.234 22.2408C289.914 21.9145 289.485 21.7513 288.947 21.7513C288.41 21.7513 287.977 21.9145 287.647 22.2408C287.327 22.5589 287.158 23.0279 287.14 23.6478C287.132 23.7702 287.127 23.9251 287.127 24.1128C287.127 24.3004 287.132 24.4553 287.14 24.5777C287.158 25.1976 287.327 25.6707 287.647 25.997C287.977 26.3151 288.41 26.4742 288.947 26.4742Z" fill="#717171"/>
<path d="M293.942 27.2939C293.855 27.2939 293.782 27.2695 293.721 27.2205C293.669 27.1634 293.643 27.0941 293.643 27.0125V21.213C293.643 21.1314 293.669 21.0662 293.721 21.0172C293.782 20.9601 293.855 20.9316 293.942 20.9316H294.553C294.64 20.9316 294.709 20.9601 294.761 21.0172C294.822 21.0662 294.852 21.1314 294.852 21.213V21.7513C295.077 21.474 295.359 21.2497 295.697 21.0784C296.044 20.899 296.486 20.8092 297.023 20.8092C297.586 20.8092 298.063 20.9275 298.453 21.164C298.852 21.3924 299.151 21.7146 299.35 22.1306C299.549 22.5385 299.649 23.0157 299.649 23.5622V27.0125C299.649 27.0941 299.623 27.1634 299.571 27.2205C299.519 27.2695 299.45 27.2939 299.363 27.2939H298.713C298.626 27.2939 298.553 27.2695 298.492 27.2205C298.44 27.1634 298.414 27.0941 298.414 27.0125V23.6233C298.414 23.0524 298.267 22.6078 297.972 22.2897C297.677 21.9634 297.244 21.8003 296.672 21.8003C296.135 21.8003 295.701 21.9634 295.372 22.2897C295.051 22.6078 294.891 23.0524 294.891 23.6233V27.0125C294.891 27.0941 294.861 27.1634 294.8 27.2205C294.748 27.2695 294.679 27.2939 294.592 27.2939H293.942Z" fill="#717171"/>
<path d="M301.826 27.2939C301.739 27.2939 301.666 27.2695 301.605 27.2205C301.553 27.1634 301.527 27.0941 301.527 27.0125V21.213C301.527 21.1314 301.553 21.0662 301.605 21.0172C301.666 20.9601 301.739 20.9316 301.826 20.9316H302.411C302.498 20.9316 302.567 20.9601 302.619 21.0172C302.68 21.0662 302.71 21.1314 302.71 21.213V21.6412C302.909 21.3884 303.161 21.1885 303.464 21.0417C303.767 20.8867 304.131 20.8092 304.556 20.8092C305.535 20.8011 306.229 21.1763 306.636 21.9349C306.835 21.5923 307.126 21.319 307.507 21.1151C307.888 20.9112 308.322 20.8092 308.807 20.8092C309.258 20.8092 309.665 20.9071 310.029 21.1029C310.402 21.2986 310.692 21.5964 310.9 21.9961C311.117 22.3876 311.225 22.8811 311.225 23.4765V27.0125C311.225 27.0941 311.195 27.1634 311.134 27.2205C311.082 27.2695 311.013 27.2939 310.926 27.2939H310.315C310.228 27.2939 310.155 27.2695 310.094 27.2205C310.042 27.1634 310.016 27.0941 310.016 27.0125V23.5866C310.016 23.1299 309.947 22.771 309.808 22.5099C309.669 22.2489 309.483 22.0654 309.249 21.9593C309.015 21.8533 308.759 21.8003 308.482 21.8003C308.257 21.8003 308.027 21.8533 307.793 21.9593C307.559 22.0654 307.364 22.2489 307.208 22.5099C307.061 22.771 306.987 23.1299 306.987 23.5866V27.0125C306.987 27.0941 306.957 27.1634 306.896 27.2205C306.844 27.2695 306.775 27.2939 306.688 27.2939H306.077C305.99 27.2939 305.917 27.2695 305.856 27.2205C305.804 27.1634 305.778 27.0941 305.778 27.0125V23.5866C305.778 23.1299 305.704 22.771 305.557 22.5099C305.41 22.2489 305.219 22.0654 304.985 21.9593C304.751 21.8533 304.504 21.8003 304.244 21.8003C304.019 21.8003 303.789 21.8533 303.555 21.9593C303.321 22.0654 303.126 22.2489 302.97 22.5099C302.823 22.771 302.749 23.1258 302.749 23.5744V27.0125C302.749 27.0941 302.719 27.1634 302.658 27.2205C302.606 27.2695 302.537 27.2939 302.45 27.2939H301.826Z" fill="#717171"/>
<path d="M315.771 27.4163C314.878 27.4163 314.167 27.1593 313.639 26.6455C313.11 26.1234 312.82 25.4138 312.768 24.5165C312.759 24.4105 312.755 24.2759 312.755 24.1128C312.755 23.9415 312.759 23.8028 312.768 23.6968C312.802 23.1176 312.945 22.6119 313.197 22.1796C313.448 21.7391 313.79 21.4006 314.224 21.164C314.666 20.9275 315.181 20.8092 315.771 20.8092C316.429 20.8092 316.98 20.9397 317.422 21.2008C317.872 21.4618 318.215 21.8329 318.449 22.3142C318.683 22.7954 318.8 23.3582 318.8 24.0026V24.2106C318.8 24.3004 318.769 24.3697 318.709 24.4186C318.657 24.4676 318.587 24.4921 318.501 24.4921H314.003C314.003 24.5002 314.003 24.5165 314.003 24.541C314.003 24.5655 314.003 24.5859 314.003 24.6022C314.02 24.9366 314.098 25.2506 314.237 25.5443C314.375 25.8298 314.575 26.0622 314.835 26.2417C315.095 26.4211 315.407 26.5109 315.771 26.5109C316.083 26.5109 316.343 26.466 316.551 26.3763C316.759 26.2866 316.928 26.1887 317.058 26.0826C317.188 25.9684 317.274 25.8828 317.318 25.8257C317.396 25.7197 317.456 25.6585 317.5 25.6422C317.543 25.6177 317.612 25.6055 317.708 25.6055H318.332C318.418 25.6055 318.488 25.6299 318.54 25.6789C318.6 25.7197 318.626 25.7808 318.618 25.8624C318.609 25.9848 318.54 26.1357 318.41 26.3151C318.28 26.4864 318.093 26.6577 317.851 26.829C317.608 27.0003 317.313 27.143 316.967 27.2572C316.62 27.3633 316.221 27.4163 315.771 27.4163ZM314.003 23.6478H317.565V23.6111C317.565 23.2441 317.491 22.9178 317.344 22.6323C317.205 22.3468 317.001 22.1225 316.733 21.9593C316.464 21.788 316.143 21.7024 315.771 21.7024C315.398 21.7024 315.077 21.788 314.809 21.9593C314.549 22.1225 314.349 22.3468 314.211 22.6323C314.072 22.9178 314.003 23.2441 314.003 23.6111V23.6478Z" fill="#717171"/>
<path d="M320.653 27.2939C320.566 27.2939 320.493 27.2695 320.432 27.2205C320.38 27.1634 320.354 27.0941 320.354 27.0125V21.213C320.354 21.1314 320.38 21.0662 320.432 21.0172C320.493 20.9601 320.566 20.9316 320.653 20.9316H321.264C321.351 20.9316 321.42 20.9601 321.472 21.0172C321.533 21.0662 321.563 21.1314 321.563 21.213V21.7513C321.788 21.474 322.07 21.2497 322.408 21.0784C322.755 20.899 323.197 20.8092 323.734 20.8092C324.297 20.8092 324.774 20.9275 325.164 21.164C325.563 21.3924 325.862 21.7146 326.061 22.1306C326.26 22.5385 326.36 23.0157 326.36 23.5622V27.0125C326.36 27.0941 326.334 27.1634 326.282 27.2205C326.23 27.2695 326.161 27.2939 326.074 27.2939H325.424C325.337 27.2939 325.264 27.2695 325.203 27.2205C325.151 27.1634 325.125 27.0941 325.125 27.0125V23.6233C325.125 23.0524 324.978 22.6078 324.683 22.2897C324.388 21.9634 323.955 21.8003 323.383 21.8003C322.846 21.8003 322.412 21.9634 322.083 22.2897C321.762 22.6078 321.602 23.0524 321.602 23.6233V27.0125C321.602 27.0941 321.572 27.1634 321.511 27.2205C321.459 27.2695 321.39 27.2939 321.303 27.2939H320.653Z" fill="#717171"/>
<path d="M330.788 27.2939C330.303 27.2939 329.908 27.2083 329.605 27.037C329.302 26.8575 329.081 26.6088 328.942 26.2906C328.803 25.9644 328.734 25.581 328.734 25.1405V21.9104H327.72C327.633 21.9104 327.56 21.8859 327.499 21.837C327.447 21.7799 327.421 21.7106 327.421 21.629V21.213C327.421 21.1314 327.447 21.0662 327.499 21.0172C327.56 20.9601 327.633 20.9316 327.72 20.9316H328.734V18.8883C328.734 18.8067 328.76 18.7415 328.812 18.6925C328.873 18.6354 328.946 18.6069 329.033 18.6069H329.644C329.731 18.6069 329.8 18.6354 329.852 18.6925C329.913 18.7415 329.943 18.8067 329.943 18.8883V20.9316H331.555C331.642 20.9316 331.711 20.9601 331.763 21.0172C331.824 21.0662 331.854 21.1314 331.854 21.213V21.629C331.854 21.7106 331.824 21.7799 331.763 21.837C331.711 21.8859 331.642 21.9104 331.555 21.9104H329.943V25.0549C329.943 25.4382 330.012 25.74 330.151 25.9603C330.29 26.1805 330.537 26.2906 330.892 26.2906H331.685C331.772 26.2906 331.841 26.3192 331.893 26.3763C331.954 26.4252 331.984 26.4905 331.984 26.5721V27.0125C331.984 27.0941 331.954 27.1634 331.893 27.2205C331.841 27.2695 331.772 27.2939 331.685 27.2939H330.788Z" fill="#717171"/>
<path d="M171.678 0L171.678 32L170.678 32L170.678 -4.37113e-08L171.678 0Z" fill="#B0B0B0"/>
<defs>
<linearGradient id="paint0_linear_10423_286537" x1="32.1262" y1="4.99391" x2="15.7389" y2="27.371" gradientUnits="userSpaceOnUse">
<stop stop-color="#009BFF"/>
<stop offset="0.484375" stop-color="#0073C8"/>
<stop offset="0.890625" stop-color="#125496"/>
</linearGradient>
<linearGradient id="paint1_linear_10423_286537" x1="1.5937" y1="4.99391" x2="17.9811" y2="27.371" gradientUnits="userSpaceOnUse">
<stop stop-color="#0073C8"/>
<stop offset="1" stop-color="#209FA6"/>
</linearGradient>
</defs>
</svg>
