<svg width="155" height="26" viewBox="0 0 155 26" fill="none" xmlns="http://www.w3.org/2000/svg">
<path d="M32.8107 6.35331C34.1059 4.67138 33.7995 2.25247 32.1262 0.950515C30.453 -0.351436 28.0465 -0.0434013 26.7513 1.63853L13.8526 18.3883C12.5574 20.0702 12.8638 22.4891 14.5371 23.7911C16.2103 25.093 18.6167 24.785 19.912 23.103L32.8107 6.35331Z" fill="url(#paint0_linear_3839_12600)"/>
<path d="M0.909244 6.35331C-0.385986 4.67138 -0.0795401 2.25247 1.59371 0.950515C3.26696 -0.351437 5.67338 -0.0434012 6.96861 1.63853L19.8673 18.3883C21.1626 20.0702 20.8561 22.4891 19.1829 23.7911C17.5096 25.093 15.1032 24.785 13.808 23.103L0.909244 6.35331Z" fill="url(#paint1_linear_3839_12600)"/>
<path d="M0 16.2451C0 14.8027 1.81985 14.1817 2.69349 15.326L8.33555 22.7162C9.09372 23.7093 8.38936 25.1451 7.14402 25.1451H1.50196C0.67245 25.1451 0 24.4691 0 23.6353V16.2451Z" fill="#33C5BF"/>
<path d="M33.7112 16.2451C33.7112 14.8027 31.8914 14.1817 31.0178 15.326L25.3757 22.7162C24.6175 23.7093 25.3219 25.1451 26.5672 25.1451H32.2093C33.0388 25.1451 33.7112 24.4691 33.7112 23.6353V16.2451Z" fill="#125496"/>
<path d="M48.3264 25.1444C48.0645 25.1444 47.8503 25.0611 47.6836 24.8944C47.5169 24.7278 47.4336 24.5254 47.4336 24.2873V1.03739C47.4336 0.775482 47.5169 0.561197 47.6836 0.394531C47.8503 0.227865 48.0645 0.144531 48.3264 0.144531H51.1479C51.4812 0.144531 51.7312 0.239769 51.8979 0.430245C52.0645 0.59691 52.1717 0.727862 52.2193 0.8231L59.1121 13.6802L66.0764 0.8231C66.124 0.727862 66.2311 0.59691 66.3978 0.430245C66.5645 0.239769 66.8145 0.144531 67.1478 0.144531H69.9335C70.1954 0.144531 70.4097 0.227865 70.5764 0.394531C70.743 0.561197 70.8264 0.775482 70.8264 1.03739V24.2873C70.8264 24.5254 70.743 24.7278 70.5764 24.8944C70.4097 25.0611 70.1954 25.1444 69.9335 25.1444H66.9335C66.6716 25.1444 66.4573 25.0611 66.2907 24.8944C66.1478 24.7278 66.0764 24.5254 66.0764 24.2873V8.82307L61.0764 18.3588C60.9574 18.573 60.8026 18.7635 60.6121 18.9302C60.4216 19.073 60.1716 19.1445 59.8621 19.1445H58.3978C58.0645 19.1445 57.8026 19.073 57.6121 18.9302C57.4455 18.7635 57.3026 18.573 57.1836 18.3588L52.1836 8.82307V24.2873C52.1836 24.5254 52.1002 24.7278 51.9336 24.8944C51.7669 25.0611 51.5645 25.1444 51.3264 25.1444H48.3264Z" fill="#125496"/>
<path fill-rule="evenodd" clip-rule="evenodd" d="M74.8459 25.1444C74.6554 25.1444 74.4768 25.073 74.3102 24.9302C74.1673 24.7873 74.0959 24.6087 74.0959 24.3944C74.0959 24.2992 74.1197 24.1921 74.1673 24.073L82.7744 1.03739C82.8459 0.799291 82.9768 0.59691 83.1673 0.430245C83.3816 0.239769 83.6673 0.144531 84.0244 0.144531H87.9173C88.2744 0.144531 88.5482 0.239769 88.7387 0.430245C88.9292 0.59691 89.072 0.799291 89.1673 1.03739L97.7744 24.073C97.7982 24.1921 97.8101 24.2992 97.8101 24.3944C97.8101 24.6087 97.7387 24.7873 97.5958 24.9302C97.4529 25.073 97.2863 25.1444 97.0958 25.1444H93.9887C93.6553 25.1444 93.4053 25.073 93.2387 24.9302C93.0958 24.7635 93.0006 24.6087 92.953 24.4659L91.2744 20.1087H80.6673L78.9887 24.4659C78.9411 24.6087 78.834 24.7635 78.6673 24.9302C78.5244 25.073 78.2863 25.1444 77.953 25.1444H74.8459ZM81.9173 16.0016H90.0244L85.953 4.96594L81.9173 16.0016Z" fill="#125496"/>
<path fill-rule="evenodd" clip-rule="evenodd" d="M101.394 24.8944C101.561 25.0611 101.763 25.1444 102.001 25.1444H110.894C113.275 25.1444 115.228 24.7992 116.751 24.1087C118.299 23.3945 119.454 22.323 120.216 20.8945C120.978 19.4421 121.382 17.6088 121.43 15.3945C121.478 14.3707 121.501 13.454 121.501 12.6445C121.501 11.835 121.478 10.9064 121.43 9.85878C121.406 7.76355 120.99 5.98975 120.18 4.53737C119.394 3.085 118.216 1.98976 116.644 1.25167C115.097 0.513578 113.12 0.144531 110.716 0.144531H102.001C101.763 0.144531 101.561 0.227865 101.394 0.394531C101.228 0.561197 101.144 0.775482 101.144 1.03739V24.2873C101.144 24.5254 101.228 24.7278 101.394 24.8944ZM110.716 21.0373H106.109V4.25166H110.537C112.561 4.25166 114.037 4.71594 114.966 5.64451C115.894 6.57308 116.382 8.01355 116.43 9.96593C116.454 10.6564 116.466 11.2754 116.466 11.8231C116.49 12.3469 116.49 12.8826 116.466 13.4302C116.466 13.954 116.454 14.5731 116.43 15.2873C116.406 16.6683 116.192 17.7873 115.787 18.6445C115.406 19.4778 114.799 20.0849 113.966 20.4659C113.132 20.8468 112.049 21.0373 110.716 21.0373Z" fill="#125496"/>
<path d="M127.113 25.1444C126.875 25.1444 126.673 25.0611 126.506 24.8944C126.339 24.7278 126.256 24.5254 126.256 24.2873V9.93021C126.256 9.69212 126.339 9.48974 126.506 9.32307C126.673 9.1564 126.875 9.07307 127.113 9.07307H130.47C130.732 9.07307 130.934 9.1564 131.077 9.32307C131.244 9.48974 131.327 9.69212 131.327 9.93021V24.2873C131.327 24.5254 131.244 24.7278 131.077 24.8944C130.934 25.0611 130.732 25.1444 130.47 25.1444H127.113Z" fill="#125496"/>
<path d="M137.178 24.8944C137.345 25.0611 137.547 25.1444 137.785 25.1444H153.785C154.047 25.1444 154.262 25.0611 154.428 24.8944C154.595 24.7278 154.678 24.5254 154.678 24.2873V21.9302C154.678 21.6683 154.595 21.454 154.428 21.2873C154.262 21.1206 154.047 21.0373 153.785 21.0373H141.75V14.5016H152.714C152.976 14.5016 153.19 14.4302 153.357 14.2873C153.523 14.1207 153.607 13.9064 153.607 13.6445V11.4302C153.607 11.1683 153.523 10.9659 153.357 10.8231C153.19 10.6564 152.976 10.5731 152.714 10.5731H141.75V4.25166H153.5C153.762 4.25166 153.976 4.16833 154.142 4.00166C154.309 3.835 154.392 3.63261 154.392 3.39452V1.03739C154.392 0.775482 154.309 0.561197 154.142 0.394531C153.976 0.227865 153.762 0.144531 153.5 0.144531H137.785C137.547 0.144531 137.345 0.227865 137.178 0.394531C137.012 0.561197 136.928 0.775482 136.928 1.03739V24.2873C136.928 24.5254 137.012 24.7278 137.178 24.8944Z" fill="#125496"/>
<path d="M126.996 0.144531C126.585 0.144531 126.252 0.477651 126.252 0.888576V4.47735C126.252 4.88828 126.585 5.2214 126.996 5.2214H130.585C130.996 5.2214 131.329 4.88828 131.329 4.47735V0.888576C131.329 0.477652 130.996 0.144531 130.585 0.144531H126.996Z" fill="#209FA6"/>
<defs>
<linearGradient id="paint0_linear_3839_12600" x1="32.1262" y1="0.950499" x2="14.4231" y2="23.7023" gradientUnits="userSpaceOnUse">
<stop stop-color="#009BFF"/>
<stop offset="0.484375" stop-color="#0073C8"/>
<stop offset="0.890625" stop-color="#125496"/>
</linearGradient>
<linearGradient id="paint1_linear_3839_12600" x1="1.5937" y1="0.950499" x2="19.2969" y2="23.7023" gradientUnits="userSpaceOnUse">
<stop stop-color="#0073C8"/>
<stop offset="1" stop-color="#209FA6"/>
</linearGradient>
</defs>
</svg>
