<svg width="378" height="43" viewBox="0 0 378 43" fill="none" xmlns="http://www.w3.org/2000/svg">
<path d="M47.4467 9.64296C49.3198 7.30162 48.8767 3.93436 46.4569 2.12197C44.0372 0.309586 40.5571 0.738388 38.684 3.07973L20.0306 26.3963C18.1576 28.7376 18.6007 32.1049 21.0205 33.9173C23.4402 35.7297 26.9203 35.3009 28.7934 32.9595L47.4467 9.64296Z" fill="url(#paint0_linear_8447_152355)"/>
<path d="M1.31385 9.64296C-0.559241 7.30162 -0.116077 3.93436 2.30368 2.12197C4.72343 0.309586 8.20347 0.738388 10.0766 3.07973L28.7299 26.3963C30.603 28.7376 30.1599 32.1049 27.7401 33.9173C25.3203 35.7297 21.8403 35.3009 19.9672 32.9595L1.31385 9.64296Z" fill="url(#paint1_linear_8447_152355)"/>
<path d="M0 23.4144C0 21.4064 2.63176 20.5419 3.89517 22.1349L12.0544 32.4224C13.1508 33.8048 12.1322 35.8036 10.3313 35.8036H2.17205C0.972459 35.8036 0 34.8626 0 33.7019V23.4144Z" fill="#33C5BF"/>
<path d="M48.7534 23.4144C48.7534 21.4064 46.1217 20.5419 44.8582 22.1349L36.699 32.4224C35.6026 33.8048 36.6212 35.8036 38.4221 35.8036H46.5814C47.781 35.8036 48.7534 34.8626 48.7534 33.7019V23.4144Z" fill="#125496"/>
<path d="M67.3179 20.0389C67.1389 20.0389 66.9868 19.9853 66.8616 19.8779C66.7542 19.7526 66.7005 19.6005 66.7005 19.4216V1.8935C66.7005 1.69666 66.7542 1.54455 66.8616 1.43719C66.9868 1.31192 67.1389 1.24929 67.3179 1.24929H68.66C68.8747 1.24929 69.0358 1.30297 69.1432 1.41034C69.2505 1.51771 69.3132 1.60719 69.3311 1.67877L75.0216 12.5231L80.7391 1.67877C80.7748 1.60719 80.8375 1.51771 80.927 1.41034C81.0343 1.30297 81.1954 1.24929 81.4101 1.24929H82.7254C82.9222 1.24929 83.0743 1.31192 83.1817 1.43719C83.307 1.54455 83.3696 1.69666 83.3696 1.8935V19.4216C83.3696 19.6005 83.307 19.7526 83.1817 19.8779C83.0743 19.9853 82.9222 20.0389 82.7254 20.0389H81.4101C81.2312 20.0389 81.0791 19.9853 80.9538 19.8779C80.8464 19.7526 80.7927 19.6005 80.7927 19.4216V6.21512L76.3101 14.9657C76.2385 15.1447 76.1311 15.2878 75.988 15.3952C75.8448 15.4847 75.6658 15.5294 75.4511 15.5294H74.619C74.3864 15.5294 74.1985 15.4847 74.0553 15.3952C73.93 15.2878 73.8227 15.1447 73.7332 14.9657L69.2505 6.21512V19.4216C69.2505 19.6005 69.1879 19.7526 69.0626 19.8779C68.9553 19.9853 68.8121 20.0389 68.6332 20.0389H67.3179Z" fill="white"/>
<path d="M93.2193 20.3074C91.3761 20.3074 89.9087 19.7437 88.8171 18.6163C87.7255 17.471 87.1261 15.9142 87.0187 13.9457C87.0008 13.7131 86.9919 13.4178 86.9919 13.0599C86.9919 12.6841 87.0008 12.3799 87.0187 12.1473C87.0903 10.8767 87.3855 9.76726 87.9045 8.81883C88.4234 7.85251 89.1303 7.10987 90.025 6.59092C90.9377 6.07197 92.0024 5.81249 93.2193 5.81249C94.5793 5.81249 95.7156 6.09881 96.6283 6.67145C97.5588 7.24408 98.2656 8.0583 98.7488 9.1141C99.232 10.1699 99.4736 11.4046 99.4736 12.8183V13.2747C99.4736 13.4715 99.4109 13.6236 99.2857 13.731C99.1783 13.8384 99.0351 13.892 98.8562 13.892H89.5687C89.5687 13.9099 89.5687 13.9457 89.5687 13.9994C89.5687 14.0531 89.5687 14.0978 89.5687 14.1336C89.6045 14.8673 89.7656 15.5563 90.0519 16.2005C90.3382 16.8268 90.7498 17.3368 91.2866 17.7305C91.8235 18.1242 92.4677 18.321 93.2193 18.321C93.8635 18.321 94.4003 18.2226 94.8298 18.0258C95.2593 17.8289 95.6083 17.6142 95.8767 17.3815C96.1451 17.131 96.3241 16.9431 96.4135 16.8179C96.5746 16.5852 96.6998 16.451 96.7893 16.4152C96.8788 16.3615 97.022 16.3347 97.2188 16.3347H98.5072C98.6862 16.3347 98.8293 16.3884 98.9367 16.4957C99.062 16.5852 99.1157 16.7194 99.0978 16.8984C99.0799 17.1668 98.9367 17.4979 98.6683 17.8916C98.3999 18.2673 98.0151 18.6431 97.5141 19.0189C97.013 19.3947 96.4046 19.7079 95.6888 19.9584C94.973 20.191 94.1498 20.3074 93.2193 20.3074ZM89.5687 12.0399H96.9235V11.9594C96.9235 11.1541 96.7714 10.4383 96.4672 9.812C96.1809 9.18568 95.7604 8.69357 95.2056 8.33567C94.6509 7.95988 93.9888 7.77198 93.2193 7.77198C92.4498 7.77198 91.7877 7.95988 91.233 8.33567C90.6961 8.69357 90.2845 9.18568 89.9982 9.812C89.7119 10.4383 89.5687 11.1541 89.5687 11.9594V12.0399Z" fill="white"/>
<path d="M106.575 20.3074C105.68 20.3074 104.866 20.1284 104.133 19.7705C103.399 19.4126 102.808 18.9295 102.361 18.321C101.914 17.7126 101.69 17.0236 101.69 16.2542C101.69 15.0194 102.191 14.0352 103.193 13.3015C104.195 12.5678 105.502 12.0847 107.112 11.852L111.112 11.2883V10.5099C111.112 9.65095 110.861 8.97989 110.36 8.49673C109.877 8.01356 109.081 7.77198 107.971 7.77198C107.166 7.77198 106.513 7.93304 106.012 8.25514C105.528 8.57725 105.188 8.98884 104.992 9.48989C104.884 9.75832 104.696 9.89253 104.428 9.89253H103.22C103.023 9.89253 102.871 9.83884 102.764 9.73147C102.674 9.60621 102.629 9.46305 102.629 9.302C102.629 9.03357 102.728 8.70252 102.925 8.30883C103.139 7.91514 103.462 7.5304 103.891 7.15461C104.32 6.77881 104.866 6.46565 105.528 6.21512C106.208 5.9467 107.032 5.81249 107.998 5.81249C109.072 5.81249 109.975 5.95565 110.709 6.24197C111.443 6.51039 112.015 6.87724 112.427 7.3425C112.856 7.80777 113.161 8.33567 113.34 8.9262C113.536 9.51674 113.635 10.1162 113.635 10.7246V19.4216C113.635 19.6005 113.572 19.7526 113.447 19.8779C113.34 19.9853 113.196 20.0389 113.017 20.0389H111.783C111.586 20.0389 111.434 19.9853 111.326 19.8779C111.219 19.7526 111.165 19.6005 111.165 19.4216V18.2673C110.933 18.5895 110.619 18.9116 110.226 19.2337C109.832 19.5379 109.34 19.7974 108.749 20.0121C108.159 20.2089 107.434 20.3074 106.575 20.3074ZM107.139 18.2942C107.873 18.2942 108.544 18.1421 109.152 17.8379C109.761 17.5158 110.235 17.0236 110.575 16.3615C110.933 15.6994 111.112 14.8673 111.112 13.8652V13.1136L107.998 13.5699C106.727 13.7489 105.77 14.0531 105.126 14.4826C104.482 14.8942 104.159 15.4221 104.159 16.0663C104.159 16.5673 104.303 16.9879 104.589 17.3279C104.893 17.65 105.269 17.8916 105.716 18.0526C106.182 18.2137 106.656 18.2942 107.139 18.2942Z" fill="white"/>
<path d="M122.325 20.3074C121.323 20.3074 120.464 20.1821 119.748 19.9316C119.033 19.681 118.451 19.3768 118.004 19.0189C117.556 18.661 117.216 18.3031 116.984 17.9452C116.769 17.5873 116.653 17.301 116.635 17.0863C116.617 16.8894 116.679 16.7373 116.823 16.63C116.966 16.5226 117.109 16.4689 117.252 16.4689H118.433C118.54 16.4689 118.621 16.4868 118.675 16.5226C118.746 16.5405 118.836 16.6121 118.943 16.7373C119.176 16.9879 119.435 17.2384 119.722 17.4889C120.008 17.7394 120.357 17.9452 120.768 18.1063C121.198 18.2673 121.726 18.3479 122.352 18.3479C123.265 18.3479 124.016 18.1779 124.607 17.8379C125.197 17.48 125.493 16.961 125.493 16.281C125.493 15.8336 125.367 15.4757 125.117 15.2073C124.884 14.9389 124.455 14.6973 123.828 14.4826C123.22 14.2678 122.379 14.0441 121.305 13.8115C120.232 13.561 119.381 13.2568 118.755 12.8989C118.129 12.5231 117.681 12.0847 117.413 11.5836C117.145 11.0646 117.01 10.4831 117.01 9.83884C117.01 9.17673 117.207 8.54146 117.601 7.93304C117.995 7.30671 118.567 6.79671 119.319 6.40302C120.088 6.00933 121.046 5.81249 122.191 5.81249C123.122 5.81249 123.918 5.92881 124.58 6.16144C125.242 6.39407 125.788 6.68934 126.217 7.04724C126.647 7.38724 126.969 7.72724 127.184 8.06725C127.398 8.40725 127.515 8.69357 127.533 8.9262C127.551 9.10515 127.497 9.25726 127.372 9.38252C127.246 9.48989 127.103 9.54358 126.942 9.54358H125.815C125.689 9.54358 125.582 9.51673 125.493 9.46305C125.421 9.40937 125.349 9.34673 125.278 9.27515C125.099 9.04252 124.884 8.80989 124.634 8.57725C124.401 8.34462 124.088 8.15672 123.694 8.01356C123.318 7.85251 122.817 7.77198 122.191 7.77198C121.296 7.77198 120.625 7.95988 120.178 8.33567C119.73 8.71146 119.507 9.18568 119.507 9.75832C119.507 10.0983 119.605 10.4025 119.802 10.671C119.999 10.9394 120.375 11.181 120.929 11.3957C121.484 11.6104 122.307 11.8431 123.399 12.0936C124.58 12.3262 125.511 12.6394 126.191 13.0331C126.871 13.4268 127.354 13.8831 127.64 14.402C127.926 14.921 128.069 15.5205 128.069 16.2005C128.069 16.9521 127.846 17.641 127.398 18.2673C126.969 18.8937 126.325 19.3947 125.466 19.7705C124.625 20.1284 123.578 20.3074 122.325 20.3074Z" fill="white"/>
<path d="M136.384 20.3074C135.239 20.3074 134.264 20.0568 133.458 19.5558C132.671 19.0368 132.072 18.321 131.66 17.4084C131.248 16.4957 131.043 15.4489 131.043 14.2678V6.69829C131.043 6.51934 131.096 6.37618 131.204 6.26881C131.329 6.14355 131.481 6.08091 131.66 6.08091H133.002C133.181 6.08091 133.324 6.14355 133.432 6.26881C133.557 6.37618 133.62 6.51934 133.62 6.69829V14.1336C133.62 16.8 134.783 18.1331 137.109 18.1331C138.219 18.1331 139.104 17.7842 139.766 17.0863C140.446 16.3705 140.786 15.3863 140.786 14.1336V6.69829C140.786 6.51934 140.84 6.37618 140.948 6.26881C141.073 6.14355 141.225 6.08091 141.404 6.08091H142.719C142.916 6.08091 143.068 6.14355 143.175 6.26881C143.283 6.37618 143.336 6.51934 143.336 6.69829V19.4216C143.336 19.6005 143.283 19.7526 143.175 19.8779C143.068 19.9853 142.916 20.0389 142.719 20.0389H141.484C141.305 20.0389 141.153 19.9853 141.028 19.8779C140.921 19.7526 140.867 19.6005 140.867 19.4216V18.2405C140.384 18.8668 139.793 19.3679 139.095 19.7437C138.415 20.1195 137.512 20.3074 136.384 20.3074Z" fill="white"/>
<path d="M147.942 20.0389C147.763 20.0389 147.611 19.9853 147.485 19.8779C147.378 19.7526 147.324 19.6005 147.324 19.4216V6.72513C147.324 6.54618 147.378 6.39407 147.485 6.26881C147.611 6.14355 147.763 6.08091 147.942 6.08091H149.176C149.355 6.08091 149.507 6.14355 149.633 6.26881C149.758 6.39407 149.821 6.54618 149.821 6.72513V7.90619C150.178 7.29777 150.671 6.84145 151.297 6.53723C151.923 6.23302 152.675 6.08091 153.552 6.08091H154.625C154.804 6.08091 154.947 6.14355 155.055 6.26881C155.162 6.37618 155.216 6.51934 155.216 6.69829V7.79882C155.216 7.97777 155.162 8.12093 155.055 8.2283C154.947 8.33567 154.804 8.38936 154.625 8.38936H153.015C152.049 8.38936 151.288 8.67567 150.733 9.24831C150.178 9.80305 149.901 10.5636 149.901 11.5299V19.4216C149.901 19.6005 149.838 19.7526 149.713 19.8779C149.588 19.9853 149.436 20.0389 149.257 20.0389H147.942Z" fill="white"/>
<path d="M162.815 20.3074C160.972 20.3074 159.505 19.7437 158.413 18.6163C157.322 17.471 156.722 15.9142 156.615 13.9457C156.597 13.7131 156.588 13.4178 156.588 13.0599C156.588 12.6841 156.597 12.3799 156.615 12.1473C156.686 10.8767 156.982 9.76726 157.501 8.81883C158.02 7.85251 158.726 7.10987 159.621 6.59092C160.534 6.07197 161.599 5.81249 162.815 5.81249C164.175 5.81249 165.312 6.09881 166.224 6.67145C167.155 7.24408 167.862 8.0583 168.345 9.1141C168.828 10.1699 169.07 11.4046 169.07 12.8183V13.2747C169.07 13.4715 169.007 13.6236 168.882 13.731C168.774 13.8384 168.631 13.892 168.452 13.892H159.165C159.165 13.9099 159.165 13.9457 159.165 13.9994C159.165 14.0531 159.165 14.0978 159.165 14.1336C159.201 14.8673 159.362 15.5563 159.648 16.2005C159.934 16.8268 160.346 17.3368 160.883 17.7305C161.42 18.1242 162.064 18.321 162.815 18.321C163.46 18.321 163.997 18.2226 164.426 18.0258C164.855 17.8289 165.204 17.6142 165.473 17.3815C165.741 17.131 165.92 16.9431 166.01 16.8179C166.171 16.5852 166.296 16.451 166.385 16.4152C166.475 16.3615 166.618 16.3347 166.815 16.3347H168.103C168.282 16.3347 168.425 16.3884 168.533 16.4957C168.658 16.5852 168.712 16.7194 168.694 16.8984C168.676 17.1668 168.533 17.4979 168.264 17.8916C167.996 18.2673 167.611 18.6431 167.11 19.0189C166.609 19.3947 166.001 19.7079 165.285 19.9584C164.569 20.191 163.746 20.3074 162.815 20.3074ZM159.165 12.0399H166.52V11.9594C166.52 11.1541 166.368 10.4383 166.063 9.812C165.777 9.18568 165.357 8.69357 164.802 8.33567C164.247 7.95988 163.585 7.77198 162.815 7.77198C162.046 7.77198 161.384 7.95988 160.829 8.33567C160.292 8.69357 159.881 9.18568 159.594 9.812C159.308 10.4383 159.165 11.1541 159.165 11.9594V12.0399Z" fill="white"/>
<path d="M177.238 20.0389C177.095 20.0389 176.97 19.9853 176.863 19.8779C176.755 19.7705 176.702 19.6453 176.702 19.5021C176.702 19.4126 176.71 19.3142 176.728 19.2068L183.385 1.83982C183.457 1.66087 183.555 1.51771 183.681 1.41034C183.806 1.30297 183.994 1.24929 184.244 1.24929H186.07C186.302 1.24929 186.481 1.30297 186.606 1.41034C186.75 1.51771 186.857 1.66087 186.928 1.83982L193.559 19.2068C193.594 19.3142 193.612 19.4126 193.612 19.5021C193.612 19.6453 193.559 19.7705 193.451 19.8779C193.344 19.9853 193.219 20.0389 193.075 20.0389H191.706C191.492 20.0389 191.331 19.9853 191.223 19.8779C191.134 19.7705 191.071 19.6721 191.035 19.5826L189.559 15.771H180.755L179.278 19.5826C179.261 19.6721 179.198 19.7705 179.091 19.8779C178.983 19.9853 178.822 20.0389 178.607 20.0389H177.238ZM181.533 13.4626H188.781L185.157 3.93352L181.533 13.4626Z" fill="white"/>
<path d="M201.157 20.3074C200.012 20.3074 199.037 20.0568 198.231 19.5558C197.444 19.0368 196.845 18.321 196.433 17.4084C196.021 16.4957 195.816 15.4489 195.816 14.2678V6.69829C195.816 6.51934 195.869 6.37618 195.977 6.26881C196.102 6.14355 196.254 6.08091 196.433 6.08091H197.775C197.954 6.08091 198.097 6.14355 198.205 6.26881C198.33 6.37618 198.392 6.51934 198.392 6.69829V14.1336C198.392 16.8 199.556 18.1331 201.882 18.1331C202.991 18.1331 203.877 17.7842 204.539 17.0863C205.219 16.3705 205.559 15.3863 205.559 14.1336V6.69829C205.559 6.51934 205.613 6.37618 205.72 6.26881C205.846 6.14355 205.998 6.08091 206.177 6.08091H207.492C207.689 6.08091 207.841 6.14355 207.948 6.26881C208.056 6.37618 208.109 6.51934 208.109 6.69829V19.4216C208.109 19.6005 208.056 19.7526 207.948 19.8779C207.841 19.9853 207.689 20.0389 207.492 20.0389H206.257C206.078 20.0389 205.926 19.9853 205.801 19.8779C205.694 19.7526 205.64 19.6005 205.64 19.4216V18.2405C205.157 18.8668 204.566 19.3679 203.868 19.7437C203.188 20.1195 202.285 20.3074 201.157 20.3074Z" fill="white"/>
<path d="M217.546 20.0389C216.544 20.0389 215.73 19.851 215.104 19.4753C214.477 19.0816 214.021 18.5358 213.735 17.8379C213.448 17.1221 213.305 16.281 213.305 15.3147V8.2283H211.211C211.032 8.2283 210.88 8.17462 210.755 8.06725C210.648 7.94198 210.594 7.78988 210.594 7.61093V6.69829C210.594 6.51934 210.648 6.37618 210.755 6.26881C210.88 6.14355 211.032 6.08091 211.211 6.08091H213.305V1.59824C213.305 1.41929 213.359 1.27613 213.466 1.16876C213.591 1.0435 213.744 0.980864 213.922 0.980864H215.184C215.363 0.980864 215.506 1.0435 215.614 1.16876C215.739 1.27613 215.801 1.41929 215.801 1.59824V6.08091H219.13C219.309 6.08091 219.452 6.14355 219.559 6.26881C219.685 6.37618 219.747 6.51934 219.747 6.69829V7.61093C219.747 7.78988 219.685 7.94198 219.559 8.06725C219.452 8.17462 219.309 8.2283 219.13 8.2283H215.801V15.1268C215.801 15.9678 215.945 16.63 216.231 17.1131C216.517 17.5963 217.027 17.8379 217.761 17.8379H219.398C219.577 17.8379 219.72 17.9005 219.828 18.0258C219.953 18.1331 220.016 18.2763 220.016 18.4552V19.4216C220.016 19.6005 219.953 19.7526 219.828 19.8779C219.72 19.9853 219.577 20.0389 219.398 20.0389H217.546Z" fill="white"/>
<path d="M223.227 20.0389C223.048 20.0389 222.896 19.9853 222.77 19.8779C222.663 19.7526 222.609 19.6005 222.609 19.4216V1.59824C222.609 1.41929 222.663 1.27613 222.77 1.16876C222.896 1.0435 223.048 0.980864 223.227 0.980864H224.569C224.766 0.980864 224.918 1.0435 225.025 1.16876C225.133 1.27613 225.186 1.41929 225.186 1.59824V7.85251C225.669 7.24408 226.26 6.75197 226.958 6.37618C227.656 6.00039 228.541 5.81249 229.615 5.81249C230.778 5.81249 231.763 6.07197 232.568 6.59092C233.391 7.09198 234.008 7.79882 234.42 8.71146C234.849 9.60621 235.064 10.6531 235.064 11.852V19.4216C235.064 19.6005 235.01 19.7526 234.903 19.8779C234.796 19.9853 234.644 20.0389 234.447 20.0389H233.105C232.926 20.0389 232.774 19.9853 232.648 19.8779C232.541 19.7526 232.487 19.6005 232.487 19.4216V11.9862C232.487 10.7336 232.183 9.75832 231.575 9.06042C230.966 8.34462 230.072 7.98672 228.89 7.98672C227.781 7.98672 226.886 8.34462 226.206 9.06042C225.526 9.75832 225.186 10.7336 225.186 11.9862V19.4216C225.186 19.6005 225.133 19.7526 225.025 19.8779C224.918 19.9853 224.766 20.0389 224.569 20.0389H223.227Z" fill="white"/>
<path d="M244.657 20.3074C243.297 20.3074 242.161 20.0479 241.248 19.5289C240.335 19.01 239.637 18.2942 239.154 17.3815C238.671 16.451 238.403 15.3952 238.349 14.2141C238.331 13.9099 238.322 13.5252 238.322 13.0599C238.322 12.5768 238.331 12.192 238.349 11.9057C238.403 10.7067 238.671 9.65095 239.154 8.73831C239.655 7.82567 240.362 7.10987 241.275 6.59092C242.187 6.07197 243.315 5.81249 244.657 5.81249C245.999 5.81249 247.126 6.07197 248.039 6.59092C248.952 7.10987 249.65 7.82567 250.133 8.73831C250.634 9.65095 250.911 10.7067 250.965 11.9057C250.983 12.192 250.992 12.5768 250.992 13.0599C250.992 13.5252 250.983 13.9099 250.965 14.2141C250.911 15.3952 250.643 16.451 250.16 17.3815C249.676 18.2942 248.979 19.01 248.066 19.5289C247.153 20.0479 246.017 20.3074 244.657 20.3074ZM244.657 18.2405C245.766 18.2405 246.652 17.8916 247.314 17.1936C247.976 16.4779 248.334 15.4399 248.388 14.0799C248.406 13.8115 248.415 13.4715 248.415 13.0599C248.415 12.6483 248.406 12.3083 248.388 12.0399C248.334 10.6799 247.976 9.65095 247.314 8.95305C246.652 8.23725 245.766 7.87935 244.657 7.87935C243.547 7.87935 242.653 8.23725 241.973 8.95305C241.311 9.65095 240.962 10.6799 240.926 12.0399C240.908 12.3083 240.899 12.6483 240.899 13.0599C240.899 13.4715 240.908 13.8115 240.926 14.0799C240.962 15.4399 241.311 16.4779 241.973 17.1936C242.653 17.8916 243.547 18.2405 244.657 18.2405Z" fill="white"/>
<path d="M254.97 20.0389C254.791 20.0389 254.639 19.9853 254.514 19.8779C254.407 19.7526 254.353 19.6005 254.353 19.4216V6.72513C254.353 6.54618 254.407 6.39407 254.514 6.26881C254.639 6.14355 254.791 6.08091 254.97 6.08091H256.205C256.384 6.08091 256.536 6.14355 256.661 6.26881C256.787 6.39407 256.849 6.54618 256.849 6.72513V7.90619C257.207 7.29777 257.699 6.84145 258.326 6.53723C258.952 6.23302 259.704 6.08091 260.58 6.08091H261.654C261.833 6.08091 261.976 6.14355 262.084 6.26881C262.191 6.37618 262.245 6.51934 262.245 6.69829V7.79882C262.245 7.97777 262.191 8.12093 262.084 8.2283C261.976 8.33567 261.833 8.38936 261.654 8.38936H260.044C259.077 8.38936 258.317 8.67567 257.762 9.24831C257.207 9.80305 256.93 10.5636 256.93 11.5299V19.4216C256.93 19.6005 256.867 19.7526 256.742 19.8779C256.617 19.9853 256.465 20.0389 256.286 20.0389H254.97Z" fill="white"/>
<path d="M265.167 20.0389C264.988 20.0389 264.836 19.9853 264.711 19.8779C264.604 19.7526 264.55 19.6005 264.55 19.4216V6.69829C264.55 6.51934 264.604 6.37618 264.711 6.26881C264.836 6.14355 264.988 6.08091 265.167 6.08091H266.456C266.635 6.08091 266.778 6.14355 266.885 6.26881C266.993 6.37618 267.046 6.51934 267.046 6.69829V19.4216C267.046 19.6005 266.993 19.7526 266.885 19.8779C266.778 19.9853 266.635 20.0389 266.456 20.0389H265.167ZM264.953 3.4772C264.774 3.4772 264.621 3.42352 264.496 3.31615C264.389 3.19089 264.335 3.03878 264.335 2.85983V1.41034C264.335 1.23139 264.389 1.08823 264.496 0.980864C264.621 0.855601 264.774 0.792969 264.953 0.792969H266.644C266.823 0.792969 266.966 0.855601 267.073 0.980864C267.198 1.08823 267.261 1.23139 267.261 1.41034V2.85983C267.261 3.03878 267.198 3.19089 267.073 3.31615C266.966 3.42352 266.823 3.4772 266.644 3.4772H264.953Z" fill="white"/>
<path d="M271.93 20.0389C271.751 20.0389 271.599 19.9853 271.474 19.8779C271.367 19.7526 271.313 19.6005 271.313 19.4216V6.69829C271.313 6.51934 271.367 6.37618 271.474 6.26881C271.599 6.14355 271.751 6.08091 271.93 6.08091H273.192C273.371 6.08091 273.514 6.14355 273.621 6.26881C273.747 6.37618 273.809 6.51934 273.809 6.69829V7.87935C274.275 7.27092 274.856 6.77881 275.554 6.40302C276.27 6.00933 277.182 5.81249 278.292 5.81249C279.455 5.81249 280.439 6.07197 281.245 6.59092C282.068 7.09198 282.685 7.79882 283.097 8.71146C283.508 9.60621 283.714 10.6531 283.714 11.852V19.4216C283.714 19.6005 283.66 19.7526 283.553 19.8779C283.446 19.9853 283.302 20.0389 283.124 20.0389H281.781C281.602 20.0389 281.45 19.9853 281.325 19.8779C281.218 19.7526 281.164 19.6005 281.164 19.4216V11.9862C281.164 10.7336 280.86 9.75832 280.251 9.06042C279.643 8.34462 278.748 7.98672 277.567 7.98672C276.458 7.98672 275.563 8.34462 274.883 9.06042C274.221 9.75832 273.89 10.7336 273.89 11.9862V19.4216C273.89 19.6005 273.827 19.7526 273.702 19.8779C273.594 19.9853 273.451 20.0389 273.272 20.0389H271.93Z" fill="white"/>
<path d="M293.309 25.9443C292.092 25.9443 291.09 25.7832 290.302 25.4611C289.533 25.139 288.924 24.7453 288.477 24.28C288.048 23.8327 287.734 23.3763 287.538 22.9111C287.359 22.4637 287.26 22.1058 287.242 21.8374C287.224 21.6584 287.278 21.5063 287.403 21.3811C287.547 21.2558 287.699 21.1932 287.86 21.1932H289.148C289.309 21.1932 289.443 21.229 289.551 21.3005C289.658 21.3721 289.748 21.5242 289.819 21.7569C289.927 22.0253 290.088 22.3205 290.302 22.6426C290.517 22.9827 290.848 23.269 291.296 23.5016C291.743 23.7521 292.369 23.8774 293.175 23.8774C294.016 23.8774 294.722 23.7611 295.295 23.5284C295.868 23.3137 296.297 22.92 296.584 22.3474C296.888 21.7926 297.04 21.0232 297.04 20.0389V18.2137C296.61 18.7684 296.047 19.2337 295.349 19.6095C294.651 19.9674 293.774 20.1463 292.718 20.1463C291.716 20.1463 290.857 19.9763 290.141 19.6363C289.426 19.2784 288.835 18.8042 288.37 18.2137C287.922 17.6052 287.582 16.9163 287.35 16.1468C287.135 15.3773 287.01 14.572 286.974 13.731C286.956 13.2299 286.956 12.7378 286.974 12.2547C287.01 11.4136 287.135 10.6083 287.35 9.83884C287.582 9.06936 287.922 8.38041 288.37 7.77198C288.835 7.16356 289.426 6.68934 290.141 6.34934C290.857 5.99144 291.716 5.81249 292.718 5.81249C293.792 5.81249 294.678 6.01828 295.376 6.42986C296.091 6.82355 296.673 7.30671 297.12 7.87935V6.72513C297.12 6.54618 297.174 6.39407 297.281 6.26881C297.407 6.14355 297.559 6.08091 297.738 6.08091H298.972C299.151 6.08091 299.304 6.14355 299.429 6.26881C299.554 6.39407 299.617 6.54618 299.617 6.72513V19.7437C299.617 20.9426 299.411 22.0074 298.999 22.9379C298.606 23.8685 297.944 24.6021 297.013 25.139C296.1 25.6758 294.866 25.9443 293.309 25.9443ZM293.255 17.9989C294.15 17.9989 294.866 17.7931 295.402 17.3815C295.957 16.97 296.36 16.451 296.61 15.8247C296.879 15.1984 297.022 14.5631 297.04 13.9189C297.058 13.6684 297.067 13.3641 297.067 13.0062C297.067 12.6304 297.058 12.3173 297.04 12.0668C297.022 11.4225 296.879 10.7873 296.61 10.161C296.36 9.53463 295.957 9.01568 295.402 8.60409C294.866 8.19251 294.15 7.98672 293.255 7.98672C292.36 7.98672 291.645 8.19251 291.108 8.60409C290.571 8.99778 290.186 9.52568 289.953 10.1878C289.721 10.832 289.587 11.5299 289.551 12.2815C289.533 12.7468 289.533 13.221 289.551 13.7041C289.587 14.4557 289.721 15.1626 289.953 15.8247C290.186 16.4689 290.571 16.9968 291.108 17.4084C291.645 17.8021 292.36 17.9989 293.255 17.9989Z" fill="white"/>
<path d="M66.9519 36.668C66.8861 36.668 66.8302 36.645 66.7842 36.5989C66.7381 36.5529 66.7151 36.497 66.7151 36.4312V30.0068C66.7151 29.9344 66.7381 29.8752 66.7842 29.8291C66.8302 29.7831 66.8861 29.7601 66.9519 29.7601H69.3599C70.0243 29.7601 70.5704 29.862 70.998 30.066C71.4322 30.2699 71.7579 30.5726 71.975 30.9739C72.1987 31.3752 72.3138 31.8653 72.3204 32.4443C72.3336 32.7338 72.3401 32.9904 72.3401 33.214C72.3401 33.4377 72.3336 33.691 72.3204 33.9739C72.3072 34.5858 72.1954 35.0923 71.9849 35.4937C71.7743 35.8884 71.4553 36.1845 71.0276 36.3818C70.6066 36.5726 70.0671 36.668 69.4092 36.668H66.9519ZM68.0868 35.5331H69.3599C69.7283 35.5331 70.0276 35.4805 70.2579 35.3752C70.4882 35.27 70.6559 35.1022 70.7612 34.872C70.873 34.6351 70.9322 34.3259 70.9388 33.9443C70.9454 33.7469 70.9487 33.5759 70.9487 33.4312C70.9553 33.2798 70.9553 33.1318 70.9487 32.9871C70.9487 32.8357 70.9454 32.6647 70.9388 32.4739C70.9257 31.9344 70.7908 31.5364 70.5342 31.2798C70.2776 31.0232 69.8697 30.8949 69.3105 30.8949H68.0868V35.5331Z" fill="white"/>
<path d="M77.0487 36.668C76.9829 36.668 76.9269 36.645 76.8809 36.5989C76.8348 36.5529 76.8118 36.497 76.8118 36.4312V30.0068C76.8118 29.9344 76.8348 29.8752 76.8809 29.8291C76.9269 29.7831 76.9829 29.7601 77.0487 29.7601H81.3908C81.4632 29.7601 81.5224 29.7831 81.5684 29.8291C81.6145 29.8752 81.6375 29.9344 81.6375 30.0068V30.6581C81.6375 30.7239 81.6145 30.7798 81.5684 30.8259C81.5224 30.8719 81.4632 30.8949 81.3908 30.8949H78.1441V32.6417H81.1737C81.2461 32.6417 81.3053 32.6647 81.3513 32.7107C81.3974 32.7502 81.4204 32.8061 81.4204 32.8785V33.4904C81.4204 33.5627 81.3974 33.6219 81.3513 33.668C81.3053 33.7075 81.2461 33.7272 81.1737 33.7272H78.1441V35.5331H81.4698C81.5421 35.5331 81.6013 35.5562 81.6474 35.6022C81.6934 35.6483 81.7165 35.7075 81.7165 35.7799V36.4312C81.7165 36.497 81.6934 36.5529 81.6474 36.5989C81.6013 36.645 81.5421 36.668 81.4698 36.668H77.0487Z" fill="white"/>
<path d="M88.064 36.668C87.9587 36.668 87.8765 36.6417 87.8173 36.5891C87.7581 36.5364 87.7153 36.4707 87.689 36.3917L85.5771 30.0561C85.564 30.0232 85.5574 29.9936 85.5574 29.9673C85.5574 29.9081 85.5771 29.8587 85.6166 29.8193C85.6561 29.7798 85.7054 29.7601 85.7646 29.7601H86.6331C86.7252 29.7601 86.7943 29.7864 86.8403 29.839C86.8929 29.8851 86.9258 29.9311 86.939 29.9772L88.6068 35.0595L90.2647 29.9772C90.2844 29.9311 90.3173 29.8851 90.3634 29.839C90.416 29.7864 90.4884 29.7601 90.5805 29.7601H91.4489C91.5015 29.7601 91.5476 29.7798 91.5871 29.8193C91.6331 29.8587 91.6561 29.9081 91.6561 29.9673C91.6561 29.9936 91.6496 30.0232 91.6364 30.0561L89.5245 36.3917C89.4982 36.4707 89.4555 36.5364 89.3962 36.5891C89.337 36.6417 89.2548 36.668 89.1495 36.668H88.064Z" fill="white"/>
<path d="M96.0953 36.668C96.0295 36.668 95.9736 36.645 95.9275 36.5989C95.8815 36.5529 95.8584 36.497 95.8584 36.4312V30.0068C95.8584 29.9344 95.8815 29.8752 95.9275 29.8291C95.9736 29.7831 96.0295 29.7601 96.0953 29.7601H100.437C100.51 29.7601 100.569 29.7831 100.615 29.8291C100.661 29.8752 100.684 29.9344 100.684 30.0068V30.6581C100.684 30.7239 100.661 30.7798 100.615 30.8259C100.569 30.8719 100.51 30.8949 100.437 30.8949H97.1907V32.6417H100.22C100.293 32.6417 100.352 32.6647 100.398 32.7107C100.444 32.7502 100.467 32.8061 100.467 32.8785V33.4904C100.467 33.5627 100.444 33.6219 100.398 33.668C100.352 33.7075 100.293 33.7272 100.22 33.7272H97.1907V35.5331H100.516C100.589 35.5331 100.648 35.5562 100.694 35.6022C100.74 35.6483 100.763 35.7075 100.763 35.7799V36.4312C100.763 36.497 100.74 36.5529 100.694 36.5989C100.648 36.645 100.589 36.668 100.516 36.668H96.0953Z" fill="white"/>
<path d="M105.392 36.668C105.326 36.668 105.27 36.645 105.224 36.5989C105.178 36.5529 105.155 36.497 105.155 36.4312V29.9969C105.155 29.9311 105.178 29.8752 105.224 29.8291C105.27 29.7831 105.326 29.7601 105.392 29.7601H106.31C106.376 29.7601 106.432 29.7831 106.478 29.8291C106.524 29.8752 106.547 29.9311 106.547 29.9969V35.4937H109.675C109.747 35.4937 109.807 35.5167 109.853 35.5627C109.899 35.6088 109.922 35.668 109.922 35.7404V36.4312C109.922 36.497 109.899 36.5529 109.853 36.5989C109.807 36.645 109.747 36.668 109.675 36.668H105.392Z" fill="white"/>
<path d="M116.606 36.7667C116.02 36.7667 115.517 36.6713 115.096 36.4805C114.675 36.2832 114.346 35.9838 114.109 35.5825C113.872 35.1746 113.744 34.668 113.724 34.0627C113.717 33.7798 113.714 33.5002 113.714 33.2239C113.714 32.9476 113.717 32.6647 113.724 32.3752C113.744 31.7765 113.875 31.2765 114.119 30.8752C114.362 30.4739 114.694 30.1713 115.115 29.9673C115.543 29.7634 116.04 29.6614 116.606 29.6614C117.171 29.6614 117.668 29.7634 118.096 29.9673C118.523 30.1713 118.859 30.4739 119.102 30.8752C119.346 31.2765 119.477 31.7765 119.497 32.3752C119.51 32.6647 119.517 32.9476 119.517 33.2239C119.517 33.5002 119.51 33.7798 119.497 34.0627C119.477 34.668 119.349 35.1746 119.112 35.5825C118.875 35.9838 118.543 36.2832 118.115 36.4805C117.694 36.6713 117.191 36.7667 116.606 36.7667ZM116.606 35.6318C117.033 35.6318 117.382 35.5068 117.652 35.2568C117.921 35.0002 118.066 34.5858 118.086 34.0134C118.099 33.7239 118.106 33.4575 118.106 33.214C118.106 32.964 118.099 32.6976 118.086 32.4147C118.073 32.0331 118 31.7239 117.869 31.4871C117.744 31.2436 117.573 31.0693 117.356 30.964C117.138 30.8522 116.888 30.7963 116.606 30.7963C116.329 30.7963 116.083 30.8522 115.865 30.964C115.648 31.0693 115.474 31.2436 115.342 31.4871C115.217 31.7239 115.148 32.0331 115.135 32.4147C115.129 32.6976 115.125 32.964 115.125 33.214C115.125 33.4575 115.129 33.7239 115.135 34.0134C115.155 34.5858 115.3 35.0002 115.569 35.2568C115.839 35.5068 116.185 35.6318 116.606 35.6318Z" fill="white"/>
<path d="M124.207 36.668C124.142 36.668 124.086 36.645 124.04 36.5989C123.994 36.5529 123.971 36.497 123.971 36.4312V30.0068C123.971 29.9344 123.994 29.8752 124.04 29.8291C124.086 29.7831 124.142 29.7601 124.207 29.7601H126.852C127.365 29.7601 127.813 29.8423 128.194 30.0068C128.576 30.1647 128.872 30.4081 129.082 30.737C129.293 31.0594 129.398 31.464 129.398 31.9509C129.398 32.4443 129.293 32.8522 129.082 33.1746C128.872 33.4904 128.576 33.7272 128.194 33.8851C127.813 34.043 127.365 34.1219 126.852 34.1219H125.382V36.4312C125.382 36.497 125.359 36.5529 125.313 36.5989C125.273 36.645 125.217 36.668 125.145 36.668H124.207ZM125.362 33.0265H126.803C127.184 33.0265 127.477 32.9377 127.681 32.7601C127.885 32.5759 127.987 32.3061 127.987 31.9509C127.987 31.6219 127.892 31.3588 127.701 31.1614C127.51 30.9574 127.211 30.8555 126.803 30.8555H125.362V33.0265Z" fill="white"/>
<path d="M133.88 36.668C133.808 36.668 133.749 36.645 133.703 36.5989C133.657 36.5529 133.634 36.497 133.634 36.4312V30.0068C133.634 29.9344 133.657 29.8752 133.703 29.8291C133.749 29.7831 133.808 29.7601 133.88 29.7601H134.66C134.752 29.7601 134.821 29.7864 134.867 29.839C134.913 29.8851 134.943 29.9212 134.956 29.9476L136.861 33.5002L138.785 29.9476C138.798 29.9212 138.828 29.8851 138.874 29.839C138.92 29.7864 138.989 29.7601 139.081 29.7601H139.851C139.923 29.7601 139.982 29.7831 140.028 29.8291C140.074 29.8752 140.098 29.9344 140.098 30.0068V36.4312C140.098 36.497 140.074 36.5529 140.028 36.5989C139.982 36.645 139.923 36.668 139.851 36.668H139.022C138.949 36.668 138.89 36.645 138.844 36.5989C138.805 36.5529 138.785 36.497 138.785 36.4312V32.1581L137.403 34.793C137.371 34.8522 137.328 34.9048 137.275 34.9509C137.222 34.9904 137.153 35.0101 137.068 35.0101H136.663C136.571 35.0101 136.499 34.9904 136.446 34.9509C136.4 34.9048 136.361 34.8522 136.328 34.793L134.946 32.1581V36.4312C134.946 36.497 134.923 36.5529 134.877 36.5989C134.831 36.645 134.775 36.668 134.709 36.668H133.88Z" fill="white"/>
<path d="M145.027 36.668C144.962 36.668 144.906 36.645 144.86 36.5989C144.813 36.5529 144.79 36.497 144.79 36.4312V30.0068C144.79 29.9344 144.813 29.8752 144.86 29.8291C144.906 29.7831 144.962 29.7601 145.027 29.7601H149.369C149.442 29.7601 149.501 29.7831 149.547 29.8291C149.593 29.8752 149.616 29.9344 149.616 30.0068V30.6581C149.616 30.7239 149.593 30.7798 149.547 30.8259C149.501 30.8719 149.442 30.8949 149.369 30.8949H146.123V32.6417H149.152C149.225 32.6417 149.284 32.6647 149.33 32.7107C149.376 32.7502 149.399 32.8061 149.399 32.8785V33.4904C149.399 33.5627 149.376 33.6219 149.33 33.668C149.284 33.7075 149.225 33.7272 149.152 33.7272H146.123V35.5331H149.448C149.521 35.5331 149.58 35.5562 149.626 35.6022C149.672 35.6483 149.695 35.7075 149.695 35.7799V36.4312C149.695 36.497 149.672 36.5529 149.626 36.5989C149.58 36.645 149.521 36.668 149.448 36.668H145.027Z" fill="white"/>
<path d="M154.324 36.668C154.258 36.668 154.202 36.645 154.156 36.5989C154.11 36.5529 154.087 36.497 154.087 36.4312V30.0068C154.087 29.9344 154.11 29.8752 154.156 29.8291C154.202 29.7831 154.258 29.7601 154.324 29.7601H155.084C155.176 29.7601 155.242 29.7831 155.281 29.8291C155.327 29.8686 155.357 29.8982 155.37 29.918L158.212 34.3391V30.0068C158.212 29.9344 158.232 29.8752 158.272 29.8291C158.318 29.7831 158.377 29.7601 158.449 29.7601H159.278C159.351 29.7601 159.41 29.7831 159.456 29.8291C159.502 29.8752 159.525 29.9344 159.525 30.0068V36.4213C159.525 36.4937 159.502 36.5529 159.456 36.5989C159.41 36.645 159.354 36.668 159.288 36.668H158.518C158.426 36.668 158.36 36.645 158.321 36.5989C158.281 36.5529 158.252 36.5233 158.232 36.5101L155.4 32.1877V36.4312C155.4 36.497 155.377 36.5529 155.331 36.5989C155.285 36.645 155.225 36.668 155.153 36.668H154.324Z" fill="white"/>
<path d="M165.979 36.668C165.913 36.668 165.857 36.645 165.811 36.5989C165.765 36.5529 165.742 36.497 165.742 36.4312V30.9739H163.917C163.851 30.9739 163.795 30.9509 163.749 30.9048C163.703 30.8588 163.68 30.8028 163.68 30.737V30.0068C163.68 29.9344 163.703 29.8752 163.749 29.8291C163.795 29.7831 163.851 29.7601 163.917 29.7601H168.95C169.022 29.7601 169.081 29.7831 169.127 29.8291C169.173 29.8752 169.196 29.9344 169.196 30.0068V30.737C169.196 30.8028 169.173 30.8588 169.127 30.9048C169.081 30.9509 169.022 30.9739 168.95 30.9739H167.134V36.4312C167.134 36.497 167.111 36.5529 167.065 36.5989C167.019 36.645 166.959 36.668 166.887 36.668H165.979Z" fill="white"/>
<path d="M178.765 36.668C178.699 36.668 178.643 36.645 178.597 36.5989C178.551 36.5529 178.528 36.497 178.528 36.4312V29.9969C178.528 29.9311 178.551 29.8752 178.597 29.8291C178.643 29.7831 178.699 29.7601 178.765 29.7601H179.692C179.765 29.7601 179.82 29.7831 179.86 29.8291C179.906 29.8752 179.929 29.9311 179.929 29.9969V36.4312C179.929 36.497 179.906 36.5529 179.86 36.5989C179.82 36.645 179.765 36.668 179.692 36.668H178.765Z" fill="white"/>
<path d="M184.871 36.668C184.806 36.668 184.75 36.645 184.704 36.5989C184.658 36.5529 184.635 36.497 184.635 36.4312V30.0068C184.635 29.9344 184.658 29.8752 184.704 29.8291C184.75 29.7831 184.806 29.7601 184.871 29.7601H185.631C185.723 29.7601 185.789 29.7831 185.829 29.8291C185.875 29.8686 185.904 29.8982 185.917 29.918L188.76 34.3391V30.0068C188.76 29.9344 188.779 29.8752 188.819 29.8291C188.865 29.7831 188.924 29.7601 188.996 29.7601H189.825C189.898 29.7601 189.957 29.7831 190.003 29.8291C190.049 29.8752 190.072 29.9344 190.072 30.0068V36.4213C190.072 36.4937 190.049 36.5529 190.003 36.5989C189.957 36.645 189.901 36.668 189.835 36.668H189.066C188.973 36.668 188.908 36.645 188.868 36.5989C188.829 36.5529 188.799 36.5233 188.779 36.5101L185.947 32.1877V36.4312C185.947 36.497 185.924 36.5529 185.878 36.5989C185.832 36.645 185.773 36.668 185.7 36.668H184.871Z" fill="white"/>
<path d="M196.526 36.668C196.461 36.668 196.405 36.645 196.359 36.5989C196.313 36.5529 196.29 36.497 196.29 36.4312V30.9739H194.464C194.398 30.9739 194.342 30.9509 194.296 30.9048C194.25 30.8588 194.227 30.8028 194.227 30.737V30.0068C194.227 29.9344 194.25 29.8752 194.296 29.8291C194.342 29.7831 194.398 29.7601 194.464 29.7601H199.497C199.569 29.7601 199.628 29.7831 199.675 29.8291C199.721 29.8752 199.744 29.9344 199.744 30.0068V30.737C199.744 30.8028 199.721 30.8588 199.675 30.9048C199.628 30.9509 199.569 30.9739 199.497 30.9739H197.681V36.4312C197.681 36.497 197.658 36.5529 197.612 36.5989C197.566 36.645 197.507 36.668 197.434 36.668H196.526Z" fill="white"/>
<path d="M204.14 36.668C204.074 36.668 204.018 36.645 203.972 36.5989C203.926 36.5529 203.903 36.497 203.903 36.4312V30.0068C203.903 29.9344 203.926 29.8752 203.972 29.8291C204.018 29.7831 204.074 29.7601 204.14 29.7601H208.482C208.554 29.7601 208.613 29.7831 208.659 29.8291C208.706 29.8752 208.729 29.9344 208.729 30.0068V30.6581C208.729 30.7239 208.706 30.7798 208.659 30.8259C208.613 30.8719 208.554 30.8949 208.482 30.8949H205.235V32.6417H208.265C208.337 32.6417 208.396 32.6647 208.442 32.7107C208.488 32.7502 208.511 32.8061 208.511 32.8785V33.4904C208.511 33.5627 208.488 33.6219 208.442 33.668C208.396 33.7075 208.337 33.7272 208.265 33.7272H205.235V35.5331H208.561C208.633 35.5331 208.692 35.5562 208.738 35.6022C208.784 35.6483 208.808 35.7075 208.808 35.7799V36.4312C208.808 36.497 208.784 36.5529 208.738 36.5989C208.692 36.645 208.633 36.668 208.561 36.668H204.14Z" fill="white"/>
<path d="M215.826 36.7667C215.221 36.7667 214.704 36.6614 214.277 36.4509C213.856 36.2404 213.527 35.9378 213.29 35.543C213.06 35.1417 212.935 34.6647 212.915 34.1121C212.908 33.8292 212.905 33.5265 212.905 33.2042C212.905 32.8752 212.908 32.566 212.915 32.2765C212.935 31.7305 213.06 31.2634 213.29 30.8752C213.527 30.487 213.859 30.1877 214.287 29.9772C214.721 29.7666 215.234 29.6614 215.826 29.6614C216.306 29.6614 216.727 29.7272 217.089 29.8587C217.451 29.9837 217.75 30.1482 217.987 30.3522C218.231 30.5495 218.412 30.7634 218.53 30.9936C218.655 31.2239 218.721 31.4377 218.727 31.6351C218.734 31.6943 218.718 31.7436 218.678 31.7831C218.639 31.8226 218.586 31.8423 218.52 31.8423H217.504C217.438 31.8423 217.389 31.8292 217.356 31.8028C217.323 31.7765 217.293 31.7371 217.267 31.6844C217.214 31.5463 217.132 31.4114 217.02 31.2798C216.908 31.1417 216.757 31.0265 216.566 30.9344C216.375 30.8423 216.129 30.7963 215.826 30.7963C215.379 30.7963 215.02 30.9147 214.75 31.1515C214.487 31.3884 214.346 31.7798 214.326 32.3259C214.306 32.8983 214.306 33.4772 214.326 34.0627C214.346 34.622 214.491 35.0233 214.76 35.2667C215.037 35.5101 215.398 35.6318 215.846 35.6318C216.142 35.6318 216.405 35.5792 216.635 35.4739C216.872 35.3687 217.056 35.2042 217.188 34.9805C217.326 34.7568 217.395 34.4706 217.395 34.1219V33.816H216.191C216.125 33.816 216.07 33.793 216.023 33.7469C215.977 33.7009 215.954 33.6417 215.954 33.5693V33.0463C215.954 32.9739 215.977 32.9147 216.023 32.8686C216.07 32.8226 216.125 32.7996 216.191 32.7996H218.55C218.622 32.7996 218.678 32.8226 218.718 32.8686C218.764 32.9147 218.787 32.9739 218.787 33.0463V34.0825C218.787 34.6351 218.665 35.1121 218.422 35.5134C218.185 35.9147 217.843 36.2239 217.395 36.441C216.954 36.6582 216.431 36.7667 215.826 36.7667Z" fill="white"/>
<path d="M223.447 36.668C223.381 36.668 223.325 36.645 223.279 36.5989C223.233 36.5529 223.21 36.497 223.21 36.4312V30.0068C223.21 29.9344 223.233 29.8752 223.279 29.8291C223.325 29.7831 223.381 29.7601 223.447 29.7601H226.002C226.799 29.7601 227.427 29.9443 227.887 30.3127C228.348 30.6811 228.578 31.2173 228.578 31.9213C228.578 32.4081 228.456 32.8127 228.213 33.1351C227.976 33.4575 227.657 33.691 227.256 33.8358L228.697 36.3522C228.716 36.3917 228.726 36.4279 228.726 36.4608C228.726 36.52 228.703 36.5693 228.657 36.6088C228.618 36.6483 228.572 36.668 228.519 36.668H227.621C227.509 36.668 227.424 36.6384 227.364 36.5792C227.305 36.52 227.259 36.4608 227.226 36.4016L225.953 34.0627H224.581V36.4312C224.581 36.497 224.558 36.5529 224.512 36.5989C224.473 36.645 224.417 36.668 224.345 36.668H223.447ZM224.581 32.9476H225.973C226.374 32.9476 226.674 32.8588 226.871 32.6811C227.068 32.4969 227.167 32.2403 227.167 31.9114C227.167 31.5824 227.068 31.3259 226.871 31.1417C226.68 30.9509 226.381 30.8555 225.973 30.8555H224.581V32.9476Z" fill="white"/>
<path d="M232.583 36.668C232.531 36.668 232.481 36.6483 232.435 36.6088C232.396 36.5693 232.376 36.52 232.376 36.4608C232.376 36.4345 232.383 36.4049 232.396 36.372L234.774 30.0068C234.794 29.941 234.83 29.8851 234.883 29.839C234.942 29.7864 235.021 29.7601 235.12 29.7601H236.195C236.294 29.7601 236.37 29.7864 236.422 29.839C236.475 29.8851 236.514 29.941 236.541 30.0068L238.919 36.372C238.925 36.4049 238.929 36.4345 238.929 36.4608C238.929 36.52 238.909 36.5693 238.87 36.6088C238.83 36.6483 238.784 36.668 238.731 36.668H237.873C237.781 36.668 237.712 36.6483 237.666 36.6088C237.626 36.5628 237.6 36.52 237.587 36.4805L237.123 35.2766H234.192L233.728 36.4805C233.715 36.52 233.685 36.5628 233.639 36.6088C233.6 36.6483 233.534 36.668 233.442 36.668H232.583ZM234.537 34.1417H236.777L235.652 31.0923L234.537 34.1417Z" fill="white"/>
<path d="M244.042 36.668C243.976 36.668 243.92 36.645 243.874 36.5989C243.828 36.5529 243.805 36.497 243.805 36.4312V30.9739H241.979C241.914 30.9739 241.858 30.9509 241.812 30.9048C241.765 30.8588 241.742 30.8028 241.742 30.737V30.0068C241.742 29.9344 241.765 29.8752 241.812 29.8291C241.858 29.7831 241.914 29.7601 241.979 29.7601H247.012C247.085 29.7601 247.144 29.7831 247.19 29.8291C247.236 29.8752 247.259 29.9344 247.259 30.0068V30.737C247.259 30.8028 247.236 30.8588 247.19 30.9048C247.144 30.9509 247.085 30.9739 247.012 30.9739H245.196V36.4312C245.196 36.497 245.173 36.5529 245.127 36.5989C245.081 36.645 245.022 36.668 244.95 36.668H244.042Z" fill="white"/>
<path d="M251.655 36.668C251.589 36.668 251.533 36.645 251.487 36.5989C251.441 36.5529 251.418 36.497 251.418 36.4312V30.0068C251.418 29.9344 251.441 29.8752 251.487 29.8291C251.533 29.7831 251.589 29.7601 251.655 29.7601H255.997C256.07 29.7601 256.129 29.7831 256.175 29.8291C256.221 29.8752 256.244 29.9344 256.244 30.0068V30.6581C256.244 30.7239 256.221 30.7798 256.175 30.8259C256.129 30.8719 256.07 30.8949 255.997 30.8949H252.75V32.6417H255.78C255.852 32.6417 255.912 32.6647 255.958 32.7107C256.004 32.7502 256.027 32.8061 256.027 32.8785V33.4904C256.027 33.5627 256.004 33.6219 255.958 33.668C255.912 33.7075 255.852 33.7272 255.78 33.7272H252.75V35.5331H256.076C256.149 35.5331 256.208 35.5562 256.254 35.6022C256.3 35.6483 256.323 35.7075 256.323 35.7799V36.4312C256.323 36.497 256.3 36.5529 256.254 36.5989C256.208 36.645 256.149 36.668 256.076 36.668H251.655Z" fill="white"/>
<path d="M260.952 36.668C260.886 36.668 260.83 36.645 260.784 36.5989C260.738 36.5529 260.715 36.497 260.715 36.4312V30.0068C260.715 29.9344 260.738 29.8752 260.784 29.8291C260.83 29.7831 260.886 29.7601 260.952 29.7601H263.36C264.024 29.7601 264.57 29.862 264.998 30.066C265.432 30.2699 265.758 30.5726 265.975 30.9739C266.199 31.3752 266.314 31.8653 266.32 32.4443C266.334 32.7338 266.34 32.9904 266.34 33.214C266.34 33.4377 266.334 33.691 266.32 33.9739C266.307 34.5858 266.195 35.0923 265.985 35.4937C265.774 35.8884 265.455 36.1845 265.028 36.3818C264.607 36.5726 264.067 36.668 263.409 36.668H260.952ZM262.087 35.5331H263.36C263.728 35.5331 264.028 35.4805 264.258 35.3752C264.488 35.27 264.656 35.1022 264.761 34.872C264.873 34.6351 264.932 34.3259 264.939 33.9443C264.945 33.7469 264.949 33.5759 264.949 33.4312C264.955 33.2798 264.955 33.1318 264.949 32.9871C264.949 32.8357 264.945 32.6647 264.939 32.4739C264.926 31.9344 264.791 31.5364 264.534 31.2798C264.278 31.0232 263.87 30.8949 263.31 30.8949H262.087V35.5331Z" fill="white"/>
<path d="M276.462 36.668C276.396 36.668 276.34 36.645 276.294 36.5989C276.248 36.5529 276.225 36.497 276.225 36.4312V30.0068C276.225 29.9344 276.248 29.8752 276.294 29.8291C276.34 29.7831 276.396 29.7601 276.462 29.7601H280.804C280.876 29.7601 280.935 29.7831 280.981 29.8291C281.027 29.8752 281.051 29.9344 281.051 30.0068V30.6581C281.051 30.7239 281.027 30.7798 280.981 30.8259C280.935 30.8719 280.876 30.8949 280.804 30.8949H277.557V32.6417H280.587C280.659 32.6417 280.718 32.6647 280.764 32.7107C280.81 32.7502 280.833 32.8061 280.833 32.8785V33.4904C280.833 33.5627 280.81 33.6219 280.764 33.668C280.718 33.7075 280.659 33.7272 280.587 33.7272H277.557V35.5331H280.883C280.955 35.5331 281.014 35.5562 281.06 35.6022C281.106 35.6483 281.129 35.7075 281.129 35.7799V36.4312C281.129 36.497 281.106 36.5529 281.06 36.5989C281.014 36.645 280.955 36.668 280.883 36.668H276.462Z" fill="white"/>
<path d="M285.758 36.668C285.693 36.668 285.637 36.645 285.591 36.5989C285.545 36.5529 285.522 36.497 285.522 36.4312V30.0068C285.522 29.9344 285.545 29.8752 285.591 29.8291C285.637 29.7831 285.693 29.7601 285.758 29.7601H286.518C286.61 29.7601 286.676 29.7831 286.716 29.8291C286.762 29.8686 286.791 29.8982 286.805 29.918L289.647 34.3391V30.0068C289.647 29.9344 289.666 29.8752 289.706 29.8291C289.752 29.7831 289.811 29.7601 289.884 29.7601H290.712C290.785 29.7601 290.844 29.7831 290.89 29.8291C290.936 29.8752 290.959 29.9344 290.959 30.0068V36.4213C290.959 36.4937 290.936 36.5529 290.89 36.5989C290.844 36.645 290.788 36.668 290.722 36.668H289.953C289.861 36.668 289.795 36.645 289.755 36.5989C289.716 36.5529 289.686 36.5233 289.666 36.5101L286.834 32.1877V36.4312C286.834 36.497 286.811 36.5529 286.765 36.5989C286.719 36.645 286.66 36.668 286.587 36.668H285.758Z" fill="white"/>
<path d="M297.67 36.668C297.565 36.668 297.483 36.6417 297.423 36.5891C297.364 36.5364 297.321 36.4707 297.295 36.3917L295.183 30.0561C295.17 30.0232 295.163 29.9936 295.163 29.9673C295.163 29.9081 295.183 29.8587 295.223 29.8193C295.262 29.7798 295.312 29.7601 295.371 29.7601H296.239C296.331 29.7601 296.4 29.7864 296.446 29.839C296.499 29.8851 296.532 29.9311 296.545 29.9772L298.213 35.0595L299.871 29.9772C299.891 29.9311 299.923 29.8851 299.969 29.839C300.022 29.7864 300.094 29.7601 300.187 29.7601H301.055C301.108 29.7601 301.154 29.7798 301.193 29.8193C301.239 29.8587 301.262 29.9081 301.262 29.9673C301.262 29.9936 301.256 30.0232 301.243 30.0561L299.131 36.3917C299.104 36.4707 299.062 36.5364 299.002 36.5891C298.943 36.6417 298.861 36.668 298.756 36.668H297.67Z" fill="white"/>
<path d="M305.701 36.668C305.636 36.668 305.58 36.645 305.534 36.5989C305.488 36.5529 305.465 36.497 305.465 36.4312V29.9969C305.465 29.9311 305.488 29.8752 305.534 29.8291C305.58 29.7831 305.636 29.7601 305.701 29.7601H306.629C306.701 29.7601 306.757 29.7831 306.797 29.8291C306.843 29.8752 306.866 29.9311 306.866 29.9969V36.4312C306.866 36.497 306.843 36.5529 306.797 36.5989C306.757 36.645 306.701 36.668 306.629 36.668H305.701Z" fill="white"/>
<path d="M311.808 36.668C311.742 36.668 311.687 36.645 311.641 36.5989C311.594 36.5529 311.571 36.497 311.571 36.4312V30.0068C311.571 29.9344 311.594 29.8752 311.641 29.8291C311.687 29.7831 311.742 29.7601 311.808 29.7601H314.364C315.16 29.7601 315.789 29.9443 316.249 30.3127C316.71 30.6811 316.94 31.2173 316.94 31.9213C316.94 32.4081 316.818 32.8127 316.575 33.1351C316.338 33.4575 316.019 33.691 315.618 33.8358L317.058 36.3522C317.078 36.3917 317.088 36.4279 317.088 36.4608C317.088 36.52 317.065 36.5693 317.019 36.6088C316.979 36.6483 316.933 36.668 316.881 36.668H315.983C315.871 36.668 315.785 36.6384 315.726 36.5792C315.667 36.52 315.621 36.4608 315.588 36.4016L314.315 34.0627H312.943V36.4312C312.943 36.497 312.92 36.5529 312.874 36.5989C312.835 36.645 312.779 36.668 312.706 36.668H311.808ZM312.943 32.9476H314.335C314.736 32.9476 315.035 32.8588 315.233 32.6811C315.43 32.4969 315.529 32.2403 315.529 31.9114C315.529 31.5824 315.43 31.3259 315.233 31.1417C315.042 30.9509 314.743 30.8555 314.335 30.8555H312.943V32.9476Z" fill="white"/>
<path d="M324.005 36.7667C323.419 36.7667 322.916 36.6713 322.495 36.4805C322.074 36.2832 321.745 35.9838 321.508 35.5825C321.271 35.1746 321.143 34.668 321.123 34.0627C321.117 33.7798 321.113 33.5002 321.113 33.2239C321.113 32.9476 321.117 32.6647 321.123 32.3752C321.143 31.7765 321.274 31.2765 321.518 30.8752C321.761 30.4739 322.094 30.1713 322.515 29.9673C322.942 29.7634 323.439 29.6614 324.005 29.6614C324.571 29.6614 325.067 29.7634 325.495 29.9673C325.923 30.1713 326.258 30.4739 326.501 30.8752C326.745 31.2765 326.877 31.7765 326.896 32.3752C326.909 32.6647 326.916 32.9476 326.916 33.2239C326.916 33.5002 326.909 33.7798 326.896 34.0627C326.877 34.668 326.748 35.1746 326.511 35.5825C326.275 35.9838 325.942 36.2832 325.515 36.4805C325.094 36.6713 324.59 36.7667 324.005 36.7667ZM324.005 35.6318C324.432 35.6318 324.781 35.5068 325.051 35.2568C325.321 35.0002 325.465 34.5858 325.485 34.0134C325.498 33.7239 325.505 33.4575 325.505 33.214C325.505 32.964 325.498 32.6976 325.485 32.4147C325.472 32.0331 325.4 31.7239 325.268 31.4871C325.143 31.2436 324.972 31.0693 324.755 30.964C324.538 30.8522 324.288 30.7963 324.005 30.7963C323.728 30.7963 323.482 30.8522 323.265 30.964C323.048 31.0693 322.873 31.2436 322.742 31.4871C322.617 31.7239 322.548 32.0331 322.534 32.4147C322.528 32.6976 322.525 32.964 322.525 33.214C322.525 33.4575 322.528 33.7239 322.534 34.0134C322.554 34.5858 322.699 35.0002 322.969 35.2568C323.238 35.5068 323.584 35.6318 324.005 35.6318Z" fill="white"/>
<path d="M331.607 36.668C331.541 36.668 331.485 36.645 331.439 36.5989C331.393 36.5529 331.37 36.497 331.37 36.4312V30.0068C331.37 29.9344 331.393 29.8752 331.439 29.8291C331.485 29.7831 331.541 29.7601 331.607 29.7601H332.367C332.459 29.7601 332.524 29.7831 332.564 29.8291C332.61 29.8686 332.64 29.8982 332.653 29.918L335.495 34.3391V30.0068C335.495 29.9344 335.515 29.8752 335.554 29.8291C335.6 29.7831 335.659 29.7601 335.732 29.7601H336.561C336.633 29.7601 336.692 29.7831 336.738 29.8291C336.784 29.8752 336.807 29.9344 336.807 30.0068V36.4213C336.807 36.4937 336.784 36.5529 336.738 36.5989C336.692 36.645 336.636 36.668 336.57 36.668H335.801C335.709 36.668 335.643 36.645 335.603 36.5989C335.564 36.5529 335.534 36.5233 335.515 36.5101L332.682 32.1877V36.4312C332.682 36.497 332.659 36.5529 332.613 36.5989C332.567 36.645 332.508 36.668 332.436 36.668H331.607Z" fill="white"/>
<path d="M341.752 36.668C341.679 36.668 341.62 36.645 341.574 36.5989C341.528 36.5529 341.505 36.497 341.505 36.4312V30.0068C341.505 29.9344 341.528 29.8752 341.574 29.8291C341.62 29.7831 341.679 29.7601 341.752 29.7601H342.531C342.623 29.7601 342.693 29.7864 342.739 29.839C342.785 29.8851 342.814 29.9212 342.827 29.9476L344.732 33.5002L346.656 29.9476C346.67 29.9212 346.699 29.8851 346.745 29.839C346.791 29.7864 346.86 29.7601 346.952 29.7601H347.722C347.795 29.7601 347.854 29.7831 347.9 29.8291C347.946 29.8752 347.969 29.9344 347.969 30.0068V36.4312C347.969 36.497 347.946 36.5529 347.9 36.5989C347.854 36.645 347.795 36.668 347.722 36.668H346.893C346.821 36.668 346.762 36.645 346.716 36.5989C346.676 36.5529 346.656 36.497 346.656 36.4312V32.1581L345.275 34.793C345.242 34.8522 345.199 34.9048 345.147 34.9509C345.094 34.9904 345.025 35.0101 344.939 35.0101H344.535C344.443 35.0101 344.37 34.9904 344.318 34.9509C344.272 34.9048 344.232 34.8522 344.199 34.793L342.818 32.1581V36.4312C342.818 36.497 342.795 36.5529 342.748 36.5989C342.702 36.645 342.646 36.668 342.581 36.668H341.752Z" fill="white"/>
<path d="M352.899 36.668C352.833 36.668 352.777 36.645 352.731 36.5989C352.685 36.5529 352.662 36.497 352.662 36.4312V30.0068C352.662 29.9344 352.685 29.8752 352.731 29.8291C352.777 29.7831 352.833 29.7601 352.899 29.7601H357.241C357.313 29.7601 357.372 29.7831 357.418 29.8291C357.465 29.8752 357.488 29.9344 357.488 30.0068V30.6581C357.488 30.7239 357.465 30.7798 357.418 30.8259C357.372 30.8719 357.313 30.8949 357.241 30.8949H353.994V32.6417H357.024C357.096 32.6417 357.155 32.6647 357.201 32.7107C357.247 32.7502 357.27 32.8061 357.27 32.8785V33.4904C357.27 33.5627 357.247 33.6219 357.201 33.668C357.155 33.7075 357.096 33.7272 357.024 33.7272H353.994V35.5331H357.32C357.392 35.5331 357.451 35.5562 357.497 35.6022C357.543 35.6483 357.567 35.7075 357.567 35.7799V36.4312C357.567 36.497 357.543 36.5529 357.497 36.5989C357.451 36.645 357.392 36.668 357.32 36.668H352.899Z" fill="white"/>
<path d="M362.196 36.668C362.13 36.668 362.074 36.645 362.028 36.5989C361.982 36.5529 361.959 36.497 361.959 36.4312V30.0068C361.959 29.9344 361.982 29.8752 362.028 29.8291C362.074 29.7831 362.13 29.7601 362.196 29.7601H362.955C363.048 29.7601 363.113 29.7831 363.153 29.8291C363.199 29.8686 363.228 29.8982 363.242 29.918L366.084 34.3391V30.0068C366.084 29.9344 366.104 29.8752 366.143 29.8291C366.189 29.7831 366.248 29.7601 366.321 29.7601H367.15C367.222 29.7601 367.281 29.7831 367.327 29.8291C367.373 29.8752 367.396 29.9344 367.396 30.0068V36.4213C367.396 36.4937 367.373 36.5529 367.327 36.5989C367.281 36.645 367.225 36.668 367.159 36.668H366.39C366.298 36.668 366.232 36.645 366.192 36.5989C366.153 36.5529 366.123 36.5233 366.103 36.5101L363.271 32.1877V36.4312C363.271 36.497 363.248 36.5529 363.202 36.5989C363.156 36.645 363.097 36.668 363.025 36.668H362.196Z" fill="white"/>
<path d="M373.851 36.668C373.785 36.668 373.729 36.645 373.683 36.5989C373.637 36.5529 373.614 36.497 373.614 36.4312V30.9739H371.788C371.722 30.9739 371.666 30.9509 371.62 30.9048C371.574 30.8588 371.551 30.8028 371.551 30.737V30.0068C371.551 29.9344 371.574 29.8752 371.62 29.8291C371.666 29.7831 371.722 29.7601 371.788 29.7601H376.821C376.893 29.7601 376.953 29.7831 376.999 29.8291C377.045 29.8752 377.068 29.9344 377.068 30.0068V30.737C377.068 30.8028 377.045 30.8588 376.999 30.9048C376.953 30.9509 376.893 30.9739 376.821 30.9739H375.005V36.4312C375.005 36.497 374.982 36.5529 374.936 36.5989C374.89 36.645 374.831 36.668 374.758 36.668H373.851Z" fill="white"/>
<defs>
<linearGradient id="paint0_linear_8447_152355" x1="46.4569" y1="2.12195" x2="22.0595" y2="34.6955" gradientUnits="userSpaceOnUse">
<stop stop-color="#009BFF"/>
<stop offset="0.484375" stop-color="#0073C8"/>
<stop offset="0.890625" stop-color="#125496"/>
</linearGradient>
<linearGradient id="paint1_linear_8447_152355" x1="2.30366" y1="2.12195" x2="26.7011" y2="34.6954" gradientUnits="userSpaceOnUse">
<stop stop-color="#0073C8"/>
<stop offset="1" stop-color="#209FA6"/>
</linearGradient>
</defs>
</svg>
