<svg width="302" height="43" viewBox="0 0 302 43" fill="none" xmlns="http://www.w3.org/2000/svg">
<path d="M47.4467 9.8933C49.3198 7.47091 48.8767 3.9871 46.4569 2.11198C44.0372 0.23686 40.5571 0.680504 38.684 3.10289L20.0306 27.2265C18.1576 29.6489 18.6007 33.1327 21.0205 35.0078C23.4402 36.8829 26.9203 36.4393 28.7934 34.0169L47.4467 9.8933Z" fill="url(#paint0_linear_2624_30824)"/>
<path d="M47.4467 9.8933C49.3198 7.47091 48.8767 3.9871 46.4569 2.11198C44.0372 0.23686 40.5571 0.680504 38.684 3.10289L20.0306 27.2265C18.1576 29.6489 18.6007 33.1327 21.0205 35.0078C23.4402 36.8829 26.9203 36.4393 28.7934 34.0169L47.4467 9.8933Z" stroke="white"/>
<path d="M1.31385 9.8933C-0.559241 7.47091 -0.116077 3.9871 2.30368 2.11198C4.72343 0.23686 8.20347 0.680504 10.0766 3.10289L28.7299 27.2265C30.603 29.6489 30.1599 33.1327 27.7401 35.0078C25.3203 36.8829 21.8403 36.4393 19.9672 34.0169L1.31385 9.8933Z" fill="url(#paint1_linear_2624_30824)"/>
<path d="M1.31385 9.8933C-0.559241 7.47091 -0.116077 3.9871 2.30368 2.11198C4.72343 0.23686 8.20347 0.680504 10.0766 3.10289L28.7299 27.2265C30.603 29.6489 30.1599 33.1327 27.7401 35.0078C25.3203 36.8829 21.8403 36.4393 19.9672 34.0169L1.31385 9.8933Z" stroke="white"/>
<path d="M0 24.1396C0 22.0621 2.63176 21.1677 3.89517 22.8158L12.0544 33.4594C13.1508 34.8897 12.1322 36.9576 10.3313 36.9576H2.17205C0.972459 36.9576 0 35.9841 0 34.7832V24.1396Z" fill="#33C5BF"/>
<path d="M0 24.1396C0 22.0621 2.63176 21.1677 3.89517 22.8158L12.0544 33.4594C13.1508 34.8897 12.1322 36.9576 10.3313 36.9576H2.17205C0.972459 36.9576 0 35.9841 0 34.7832V24.1396Z" stroke="white"/>
<path d="M48.7534 24.1396C48.7534 22.0621 46.1217 21.1677 44.8582 22.8158L36.699 33.4594C35.6026 34.8897 36.6212 36.9576 38.4221 36.9576H46.5814C47.781 36.9576 48.7534 35.9841 48.7534 34.7832V24.1396Z" fill="#125496"/>
<path d="M48.7534 24.1396C48.7534 22.0621 46.1217 21.1677 44.8582 22.8158L36.699 33.4594C35.6026 34.8897 36.6212 36.9576 38.4221 36.9576H46.5814C47.781 36.9576 48.7534 35.9841 48.7534 34.7832V24.1396Z" stroke="white"/>
<path d="M67.3179 19.9512C67.1389 19.9512 66.9868 19.8975 66.8616 19.7901C66.7542 19.6649 66.7005 19.5127 66.7005 19.3338V1.80574C66.7005 1.60889 66.7542 1.45679 66.8616 1.34942C66.9868 1.22415 67.1389 1.16152 67.3179 1.16152H68.66C68.8748 1.16152 69.0358 1.2152 69.1432 1.32257C69.2505 1.42994 69.3221 1.51942 69.3579 1.591L75.0217 12.4353L80.7391 1.591C80.7749 1.51942 80.8375 1.42994 80.927 1.32257C81.0343 1.2152 81.1954 1.16152 81.4101 1.16152H82.7254C82.9223 1.16152 83.0744 1.22415 83.1817 1.34942C83.307 1.45679 83.3696 1.60889 83.3696 1.80574V19.3338C83.3696 19.5127 83.307 19.6649 83.1817 19.7901C83.0744 19.8975 82.9223 19.9512 82.7254 19.9512H81.4101C81.2312 19.9512 81.0791 19.8975 80.9538 19.7901C80.8464 19.6649 80.7928 19.5127 80.7928 19.3338V6.12736L76.3101 14.878C76.2385 15.0569 76.1311 15.2001 75.988 15.3074C75.8448 15.3969 75.6659 15.4417 75.4511 15.4417H74.619C74.3864 15.4417 74.2074 15.3969 74.0822 15.3074C73.9569 15.2001 73.8495 15.0569 73.7601 14.878L69.2505 6.12736V19.3338C69.2505 19.5127 69.1879 19.6649 69.0626 19.7901C68.9553 19.8975 68.8121 19.9512 68.6332 19.9512H67.3179ZM93.2461 20.2196C91.3851 20.2196 89.9087 19.6559 88.8172 18.5285C87.7256 17.3833 87.1261 15.8264 87.0187 13.858C87.0008 13.6253 86.9919 13.3301 86.9919 12.9722C86.9919 12.5964 87.0008 12.2922 87.0187 12.0595C87.0903 10.789 87.3856 9.6795 87.9045 8.73107C88.4235 7.76474 89.1303 7.0221 90.0251 6.50315C90.9377 5.9842 92.0024 5.72472 93.2193 5.72472C94.5793 5.72472 95.7156 6.01104 96.6283 6.58368C97.5588 7.15631 98.2657 7.97053 98.7488 9.02633C99.232 10.0821 99.4736 11.3169 99.4736 12.7306V13.1869C99.4736 13.3837 99.4109 13.5358 99.2857 13.6432C99.1783 13.7506 99.0351 13.8043 98.8562 13.8043H89.5687C89.5687 13.8222 89.5687 13.858 89.5687 13.9116C89.5687 13.9653 89.5687 14.0101 89.5687 14.0459C89.6045 14.7795 89.7656 15.4685 90.0519 16.1127C90.3382 16.739 90.7498 17.249 91.2867 17.6427C91.8414 18.0364 92.4856 18.2333 93.2193 18.2333C93.8635 18.2333 94.4004 18.1348 94.8298 17.938C95.2593 17.7412 95.6083 17.5264 95.8767 17.2938C96.1451 17.0432 96.3241 16.8464 96.4135 16.7032C96.5746 16.4885 96.6999 16.3632 96.7893 16.3275C96.8788 16.2738 97.022 16.2469 97.2188 16.2469H98.5341C98.6951 16.2469 98.8294 16.3006 98.9367 16.408C99.062 16.4975 99.1157 16.6317 99.0978 16.8106C99.0799 17.079 98.9367 17.4101 98.6683 17.8038C98.3999 18.1796 98.0151 18.5554 97.5141 18.9312C97.0309 19.307 96.4225 19.6201 95.6888 19.8706C94.973 20.1033 94.1588 20.2196 93.2461 20.2196ZM89.5687 11.9521H96.9235V11.8716C96.9235 11.0664 96.7714 10.3506 96.4672 9.72423C96.1809 9.09791 95.7604 8.6058 95.2056 8.2479C94.6509 7.87211 93.9888 7.68421 93.2193 7.68421C92.4498 7.68421 91.7877 7.87211 91.233 8.2479C90.6961 8.6058 90.2845 9.09791 89.9982 9.72423C89.7119 10.3506 89.5687 11.0664 89.5687 11.8716V11.9521ZM106.575 20.2196C105.681 20.2196 104.866 20.0406 104.133 19.6827C103.399 19.3249 102.808 18.8417 102.361 18.2333C101.914 17.6248 101.69 16.9359 101.69 16.1664C101.69 14.9317 102.191 13.9474 103.193 13.2137C104.195 12.48 105.502 11.9969 107.112 11.7643L111.112 11.2006V10.4221C111.112 9.56318 110.861 8.89212 110.36 8.40896C109.877 7.92579 109.081 7.68421 107.971 7.68421C107.184 7.68421 106.539 7.84527 106.038 8.16738C105.537 8.48948 105.188 8.90107 104.992 9.40212C104.884 9.67055 104.696 9.80476 104.428 9.80476H103.22C103.023 9.80476 102.871 9.75107 102.764 9.64371C102.674 9.51844 102.629 9.37528 102.629 9.21423C102.629 8.9458 102.728 8.61475 102.925 8.22106C103.139 7.82737 103.462 7.44263 103.891 7.06684C104.321 6.69105 104.866 6.37788 105.528 6.12736C106.208 5.85893 107.032 5.72472 107.998 5.72472C109.072 5.72472 109.975 5.86788 110.709 6.1542C111.443 6.42262 112.015 6.78947 112.427 7.25474C112.856 7.72 113.161 8.2479 113.34 8.83843C113.536 9.42897 113.635 10.0284 113.635 10.6369V19.3338C113.635 19.5127 113.572 19.6649 113.447 19.7901C113.34 19.8975 113.196 19.9512 113.017 19.9512H111.783C111.586 19.9512 111.434 19.8975 111.326 19.7901C111.219 19.6649 111.165 19.5127 111.165 19.3338V18.1796C110.933 18.5017 110.62 18.8238 110.226 19.1459C109.832 19.4501 109.34 19.7096 108.749 19.9243C108.159 20.1212 107.434 20.2196 106.575 20.2196ZM107.139 18.2064C107.873 18.2064 108.544 18.0543 109.152 17.7501C109.761 17.428 110.235 16.9359 110.575 16.2738C110.933 15.6117 111.112 14.7795 111.112 13.7774V13.0258L107.998 13.4822C106.727 13.6611 105.77 13.9653 105.126 14.3948C104.482 14.8064 104.159 15.3343 104.159 15.9785C104.159 16.4796 104.303 16.9001 104.589 17.2401C104.893 17.5622 105.269 17.8038 105.716 17.9648C106.182 18.1259 106.656 18.2064 107.139 18.2064ZM122.325 20.2196C121.323 20.2196 120.464 20.0943 119.748 19.8438C119.033 19.5933 118.451 19.2891 118.004 18.9312C117.556 18.5733 117.216 18.2154 116.984 17.8575C116.769 17.4996 116.653 17.2133 116.635 16.9985C116.617 16.8017 116.679 16.6496 116.823 16.5422C116.966 16.4348 117.109 16.3811 117.252 16.3811H118.46C118.549 16.3811 118.621 16.399 118.675 16.4348C118.746 16.4527 118.836 16.5243 118.943 16.6496C119.176 16.9001 119.435 17.1506 119.722 17.4011C120.008 17.6517 120.357 17.8575 120.768 18.0185C121.198 18.1796 121.726 18.2601 122.352 18.2601C123.265 18.2601 124.016 18.0901 124.607 17.7501C125.197 17.3922 125.493 16.8732 125.493 16.1932C125.493 15.7459 125.367 15.388 125.117 15.1195C124.884 14.8511 124.455 14.6095 123.828 14.3948C123.22 14.1801 122.379 13.9564 121.305 13.7237C120.232 13.4732 119.382 13.169 118.755 12.8111C118.129 12.4353 117.682 11.9969 117.413 11.4958C117.145 10.9769 117.01 10.3953 117.01 9.75107C117.01 9.08896 117.207 8.45369 117.601 7.84527C117.995 7.21895 118.567 6.70894 119.319 6.31525C120.088 5.92156 121.046 5.72472 122.191 5.72472C123.122 5.72472 123.918 5.84104 124.58 6.07367C125.242 6.30631 125.788 6.60157 126.217 6.95947C126.647 7.29947 126.969 7.63948 127.184 7.97948C127.398 8.31948 127.515 8.6058 127.533 8.83843C127.551 9.01738 127.497 9.16949 127.372 9.29475C127.246 9.40212 127.103 9.45581 126.942 9.45581H125.815C125.689 9.45581 125.582 9.42897 125.493 9.37528C125.421 9.3216 125.349 9.25896 125.278 9.18739C125.099 8.95475 124.884 8.72212 124.634 8.48948C124.401 8.25685 124.088 8.06895 123.694 7.92579C123.318 7.76474 122.817 7.68421 122.191 7.68421C121.296 7.68421 120.625 7.87211 120.178 8.2479C119.73 8.6237 119.507 9.09791 119.507 9.67055C119.507 10.0106 119.605 10.3148 119.802 10.5832C119.999 10.8516 120.375 11.0932 120.929 11.3079C121.484 11.5227 122.307 11.7553 123.399 12.0058C124.58 12.2385 125.511 12.5516 126.191 12.9453C126.871 13.339 127.354 13.7953 127.64 14.3143C127.926 14.8332 128.069 15.4327 128.069 16.1127C128.069 16.8643 127.855 17.5533 127.425 18.1796C126.996 18.8059 126.352 19.307 125.493 19.6827C124.634 20.0406 123.578 20.2196 122.325 20.2196ZM136.384 20.2196C135.239 20.2196 134.264 19.9691 133.459 19.468C132.671 18.9491 132.072 18.2333 131.66 17.3206C131.248 16.408 131.043 15.3611 131.043 14.1801V6.61052C131.043 6.43157 131.096 6.28841 131.204 6.18104C131.329 6.05578 131.481 5.99314 131.66 5.99314H133.002C133.181 5.99314 133.324 6.05578 133.432 6.18104C133.557 6.28841 133.62 6.43157 133.62 6.61052V14.0459C133.62 16.7122 134.783 18.0454 137.109 18.0454C138.219 18.0454 139.104 17.6964 139.766 16.9985C140.446 16.2827 140.786 15.2985 140.786 14.0459V6.61052C140.786 6.43157 140.84 6.28841 140.948 6.18104C141.073 6.05578 141.225 5.99314 141.404 5.99314H142.746C142.925 5.99314 143.068 6.05578 143.175 6.18104C143.283 6.28841 143.337 6.43157 143.337 6.61052V19.3338C143.337 19.5127 143.283 19.6649 143.175 19.7901C143.068 19.8975 142.925 19.9512 142.746 19.9512H141.484C141.305 19.9512 141.153 19.8975 141.028 19.7901C140.921 19.6649 140.867 19.5127 140.867 19.3338V18.1527C140.384 18.7791 139.793 19.2801 139.095 19.6559C138.415 20.0317 137.512 20.2196 136.384 20.2196ZM147.942 19.9512C147.763 19.9512 147.611 19.8975 147.485 19.7901C147.378 19.6649 147.324 19.5127 147.324 19.3338V6.63736C147.324 6.45841 147.378 6.3063 147.485 6.18104C147.611 6.05578 147.763 5.99314 147.942 5.99314H149.176C149.355 5.99314 149.507 6.05578 149.633 6.18104C149.758 6.3063 149.821 6.45841 149.821 6.63736V7.81842C150.179 7.21 150.671 6.75368 151.297 6.44946C151.923 6.14525 152.684 5.99314 153.579 5.99314H154.625C154.804 5.99314 154.948 6.05578 155.055 6.18104C155.18 6.28841 155.243 6.43157 155.243 6.61052V7.71106C155.243 7.89 155.18 8.03316 155.055 8.14053C154.948 8.2479 154.804 8.30159 154.625 8.30159H153.015C152.049 8.30159 151.288 8.58791 150.733 9.16054C150.179 9.71528 149.901 10.4758 149.901 11.4421V19.3338C149.901 19.5127 149.839 19.6649 149.713 19.7901C149.588 19.8975 149.436 19.9512 149.257 19.9512H147.942ZM162.842 20.2196C160.981 20.2196 159.505 19.6559 158.413 18.5285C157.322 17.3833 156.722 15.8264 156.615 13.858C156.597 13.6253 156.588 13.3301 156.588 12.9722C156.588 12.5964 156.597 12.2922 156.615 12.0595C156.686 10.789 156.982 9.6795 157.501 8.73107C158.02 7.76474 158.726 7.0221 159.621 6.50315C160.534 5.9842 161.599 5.72472 162.815 5.72472C164.175 5.72472 165.312 6.01104 166.224 6.58368C167.155 7.15631 167.862 7.97053 168.345 9.02633C168.828 10.0821 169.07 11.3169 169.07 12.7306V13.1869C169.07 13.3837 169.007 13.5358 168.882 13.6432C168.774 13.7506 168.631 13.8043 168.452 13.8043H159.165C159.165 13.8222 159.165 13.858 159.165 13.9116C159.165 13.9653 159.165 14.0101 159.165 14.0459C159.201 14.7795 159.362 15.4685 159.648 16.1127C159.934 16.739 160.346 17.249 160.883 17.6427C161.438 18.0364 162.082 18.2333 162.815 18.2333C163.46 18.2333 163.997 18.1348 164.426 17.938C164.855 17.7412 165.204 17.5264 165.473 17.2938C165.741 17.0432 165.92 16.8464 166.01 16.7032C166.171 16.4885 166.296 16.3632 166.385 16.3275C166.475 16.2738 166.618 16.2469 166.815 16.2469H168.13C168.291 16.2469 168.426 16.3006 168.533 16.408C168.658 16.4975 168.712 16.6317 168.694 16.8106C168.676 17.079 168.533 17.4101 168.264 17.8038C167.996 18.1796 167.611 18.5554 167.11 18.9312C166.627 19.307 166.019 19.6201 165.285 19.8706C164.569 20.1033 163.755 20.2196 162.842 20.2196ZM159.165 11.9521H166.52V11.8716C166.52 11.0664 166.368 10.3506 166.063 9.72423C165.777 9.09791 165.357 8.6058 164.802 8.2479C164.247 7.87211 163.585 7.68421 162.815 7.68421C162.046 7.68421 161.384 7.87211 160.829 8.2479C160.292 8.6058 159.881 9.09791 159.594 9.72423C159.308 10.3506 159.165 11.0664 159.165 11.8716V11.9521ZM177.238 19.9512C177.095 19.9512 176.97 19.8975 176.863 19.7901C176.755 19.6827 176.702 19.5575 176.702 19.4143C176.702 19.3249 176.711 19.2264 176.728 19.1191L183.385 1.75205C183.457 1.5731 183.555 1.42994 183.681 1.32257C183.806 1.2152 183.994 1.16152 184.244 1.16152H186.07C186.32 1.16152 186.508 1.2152 186.633 1.32257C186.758 1.42994 186.857 1.5731 186.928 1.75205L193.559 19.1191C193.594 19.2264 193.612 19.3249 193.612 19.4143C193.612 19.5575 193.559 19.6827 193.451 19.7901C193.344 19.8975 193.219 19.9512 193.075 19.9512H191.706C191.492 19.9512 191.331 19.8975 191.223 19.7901C191.134 19.6827 191.071 19.5843 191.035 19.4949L189.559 15.6832H180.755L179.278 19.4949C179.261 19.5843 179.198 19.6827 179.091 19.7901C178.983 19.8975 178.822 19.9512 178.607 19.9512H177.238ZM181.533 13.3748H188.781L185.157 3.84576L181.533 13.3748ZM201.157 20.2196C200.012 20.2196 199.037 19.9691 198.231 19.468C197.444 18.9491 196.845 18.2333 196.433 17.3206C196.021 16.408 195.816 15.3611 195.816 14.1801V6.61052C195.816 6.43157 195.869 6.28841 195.977 6.18104C196.102 6.05578 196.254 5.99314 196.433 5.99314H197.775C197.954 5.99314 198.097 6.05578 198.205 6.18104C198.33 6.28841 198.392 6.43157 198.392 6.61052V14.0459C198.392 16.7122 199.556 18.0454 201.882 18.0454C202.991 18.0454 203.877 17.6964 204.539 16.9985C205.219 16.2827 205.559 15.2985 205.559 14.0459V6.61052C205.559 6.43157 205.613 6.28841 205.72 6.18104C205.846 6.05578 205.998 5.99314 206.177 5.99314H207.519C207.698 5.99314 207.841 6.05578 207.948 6.18104C208.056 6.28841 208.109 6.43157 208.109 6.61052V19.3338C208.109 19.5127 208.056 19.6649 207.948 19.7901C207.841 19.8975 207.698 19.9512 207.519 19.9512H206.257C206.078 19.9512 205.926 19.8975 205.801 19.7901C205.694 19.6649 205.64 19.5127 205.64 19.3338V18.1527C205.157 18.7791 204.566 19.2801 203.868 19.6559C203.188 20.0317 202.285 20.2196 201.157 20.2196ZM217.546 19.9512C216.544 19.9512 215.73 19.7633 215.104 19.3875C214.477 18.9938 214.021 18.448 213.735 17.7501C213.448 17.0343 213.305 16.1932 213.305 15.2269V8.14053H211.211C211.032 8.14053 210.88 8.08685 210.755 7.97948C210.648 7.85421 210.594 7.70211 210.594 7.52316V6.61052C210.594 6.43157 210.648 6.28841 210.755 6.18104C210.88 6.05578 211.032 5.99314 211.211 5.99314H213.305V1.51047C213.305 1.33152 213.359 1.18836 213.466 1.08099C213.591 0.955728 213.744 0.893096 213.922 0.893096H215.184C215.363 0.893096 215.506 0.955728 215.614 1.08099C215.739 1.18836 215.801 1.33152 215.801 1.51047V5.99314H219.13C219.327 5.99314 219.479 6.05578 219.586 6.18104C219.694 6.28841 219.747 6.43157 219.747 6.61052V7.52316C219.747 7.70211 219.694 7.85421 219.586 7.97948C219.479 8.08685 219.327 8.14053 219.13 8.14053H215.801V15.039C215.801 15.8801 215.945 16.5422 216.231 17.0254C216.517 17.5085 217.027 17.7501 217.761 17.7501H219.398C219.577 17.7501 219.72 17.8127 219.828 17.938C219.953 18.0454 220.016 18.1885 220.016 18.3675V19.3338C220.016 19.5127 219.953 19.6649 219.828 19.7901C219.72 19.8975 219.577 19.9512 219.398 19.9512H217.546ZM223.227 19.9512C223.048 19.9512 222.896 19.8975 222.77 19.7901C222.663 19.6649 222.609 19.5127 222.609 19.3338V1.51047C222.609 1.33152 222.663 1.18836 222.77 1.08099C222.896 0.955728 223.048 0.893096 223.227 0.893096H224.569C224.766 0.893096 224.918 0.955728 225.025 1.08099C225.133 1.18836 225.186 1.33152 225.186 1.51047V7.76474C225.669 7.15631 226.26 6.6642 226.958 6.28841C227.656 5.91262 228.541 5.72472 229.615 5.72472C230.778 5.72472 231.763 5.9842 232.568 6.50315C233.391 7.00421 234.008 7.71106 234.42 8.6237C234.849 9.51844 235.064 10.5653 235.064 11.7643V19.3338C235.064 19.5127 235.011 19.6649 234.903 19.7901C234.796 19.8975 234.644 19.9512 234.447 19.9512H233.105C232.926 19.9512 232.774 19.8975 232.648 19.7901C232.541 19.6649 232.487 19.5127 232.487 19.3338V11.8985C232.487 10.6458 232.183 9.67055 231.575 8.97265C230.966 8.25685 230.072 7.89895 228.89 7.89895C227.781 7.89895 226.886 8.25685 226.206 8.97265C225.526 9.67055 225.186 10.6458 225.186 11.8985V19.3338C225.186 19.5127 225.133 19.6649 225.025 19.7901C224.918 19.8975 224.766 19.9512 224.569 19.9512H223.227ZM244.657 20.2196C243.297 20.2196 242.161 19.9601 241.248 19.4412C240.335 18.9222 239.637 18.2064 239.154 17.2938C238.671 16.3632 238.403 15.3074 238.349 14.1264C238.331 13.8222 238.322 13.4374 238.322 12.9722C238.322 12.489 238.331 12.1043 238.349 11.8179C238.403 10.619 238.671 9.56318 239.154 8.65054C239.655 7.7379 240.362 7.0221 241.275 6.50315C242.187 5.9842 243.315 5.72472 244.657 5.72472C245.999 5.72472 247.126 5.9842 248.039 6.50315C248.952 7.0221 249.65 7.7379 250.133 8.65054C250.634 9.56318 250.911 10.619 250.965 11.8179C250.983 12.1043 250.992 12.489 250.992 12.9722C250.992 13.4374 250.983 13.8222 250.965 14.1264C250.911 15.3074 250.643 16.3632 250.16 17.2938C249.676 18.2064 248.979 18.9222 248.066 19.4412C247.153 19.9601 246.017 20.2196 244.657 20.2196ZM244.657 18.1527C245.766 18.1527 246.652 17.8038 247.314 17.1059C247.976 16.3901 248.334 15.3522 248.388 13.9922C248.406 13.7237 248.415 13.3837 248.415 12.9722C248.415 12.5606 248.406 12.2206 248.388 11.9521C248.334 10.5921 247.976 9.56318 247.314 8.86528C246.652 8.14948 245.766 7.79158 244.657 7.79158C243.547 7.79158 242.653 8.14948 241.973 8.86528C241.311 9.56318 240.962 10.5921 240.926 11.9521C240.908 12.2206 240.899 12.5606 240.899 12.9722C240.899 13.3837 240.908 13.7237 240.926 13.9922C240.962 15.3522 241.311 16.3901 241.973 17.1059C242.653 17.8038 243.547 18.1527 244.657 18.1527ZM254.97 19.9512C254.791 19.9512 254.639 19.8975 254.514 19.7901C254.407 19.6649 254.353 19.5127 254.353 19.3338V6.63736C254.353 6.45841 254.407 6.3063 254.514 6.18104C254.639 6.05578 254.791 5.99314 254.97 5.99314H256.205C256.384 5.99314 256.536 6.05578 256.661 6.18104C256.787 6.3063 256.849 6.45841 256.849 6.63736V7.81842C257.207 7.21 257.699 6.75368 258.326 6.44946C258.952 6.14525 259.712 5.99314 260.607 5.99314H261.654C261.833 5.99314 261.976 6.05578 262.084 6.18104C262.209 6.28841 262.271 6.43157 262.271 6.61052V7.71106C262.271 7.89 262.209 8.03316 262.084 8.14053C261.976 8.2479 261.833 8.30159 261.654 8.30159H260.044C259.077 8.30159 258.317 8.58791 257.762 9.16054C257.207 9.71528 256.93 10.4758 256.93 11.4421V19.3338C256.93 19.5127 256.867 19.6649 256.742 19.7901C256.617 19.8975 256.465 19.9512 256.286 19.9512H254.97ZM265.167 19.9512C264.988 19.9512 264.836 19.8975 264.711 19.7901C264.604 19.6649 264.55 19.5127 264.55 19.3338V6.61052C264.55 6.43157 264.604 6.28841 264.711 6.18104C264.836 6.05578 264.988 5.99314 265.167 5.99314H266.456C266.635 5.99314 266.778 6.05578 266.885 6.18104C267.01 6.28841 267.073 6.43157 267.073 6.61052V19.3338C267.073 19.5127 267.01 19.6649 266.885 19.7901C266.778 19.8975 266.635 19.9512 266.456 19.9512H265.167ZM264.953 3.38943C264.774 3.38943 264.621 3.33575 264.496 3.22838C264.389 3.10312 264.335 2.95101 264.335 2.77206V1.32257C264.335 1.14362 264.389 0.991517 264.496 0.866254C264.621 0.740989 264.774 0.678356 264.953 0.678356H266.644C266.823 0.678356 266.975 0.740989 267.1 0.866254C267.225 0.991517 267.288 1.14362 267.288 1.32257V2.77206C267.288 2.95101 267.225 3.10312 267.1 3.22838C266.975 3.33575 266.823 3.38943 266.644 3.38943H264.953ZM271.668 19.9512C271.489 19.9512 271.337 19.8975 271.212 19.7901C271.104 19.6649 271.051 19.5127 271.051 19.3338V6.61052C271.051 6.43157 271.104 6.28841 271.212 6.18104C271.337 6.05578 271.489 5.99314 271.668 5.99314H272.93C273.109 5.99314 273.252 6.05578 273.359 6.18104C273.484 6.28841 273.547 6.43157 273.547 6.61052V7.79158C274.012 7.18316 274.594 6.69105 275.292 6.31525C276.008 5.92156 276.92 5.72472 278.03 5.72472C279.193 5.72472 280.177 5.9842 280.982 6.50315C281.806 7.00421 282.423 7.71106 282.835 8.6237C283.264 9.51844 283.479 10.5653 283.479 11.7643V19.3338C283.479 19.5127 283.416 19.6649 283.291 19.7901C283.184 19.8975 283.04 19.9512 282.861 19.9512H281.519C281.34 19.9512 281.188 19.8975 281.063 19.7901C280.956 19.6649 280.902 19.5127 280.902 19.3338V11.8985C280.902 10.6458 280.598 9.67055 279.989 8.97265C279.381 8.25685 278.486 7.89895 277.305 7.89895C276.196 7.89895 275.301 8.25685 274.621 8.97265C273.959 9.67055 273.628 10.6458 273.628 11.8985V19.3338C273.628 19.5127 273.565 19.6649 273.44 19.7901C273.332 19.8975 273.189 19.9512 273.01 19.9512H271.668ZM293.047 25.8565C291.83 25.8565 290.828 25.6954 290.04 25.3733C289.271 25.0512 288.662 24.6575 288.215 24.1923C287.786 23.7449 287.472 23.2886 287.276 22.8233C287.097 22.3759 286.998 22.018 286.98 21.7496C286.962 21.5707 287.016 21.4186 287.141 21.2933C287.284 21.168 287.437 21.1054 287.598 21.1054H288.886C289.047 21.1054 289.181 21.1412 289.289 21.2128C289.396 21.2843 289.486 21.4364 289.557 21.6691C289.664 21.9375 289.826 22.2328 290.04 22.5549C290.255 22.8949 290.586 23.1812 291.033 23.4138C291.481 23.6644 292.107 23.7896 292.912 23.7896C293.753 23.7896 294.46 23.6733 295.033 23.4407C295.606 23.208 296.035 22.8144 296.321 22.2596C296.626 21.7049 296.778 20.9354 296.778 19.9512V18.1259C296.348 18.6806 295.785 19.1459 295.087 19.5217C294.389 19.8796 293.512 20.0585 292.456 20.0585C291.454 20.0585 290.595 19.8885 289.879 19.5485C289.163 19.1906 288.573 18.7164 288.108 18.1259C287.66 17.5175 287.32 16.8285 287.088 16.059C286.873 15.2895 286.748 14.4843 286.712 13.6432C286.694 13.1422 286.694 12.65 286.712 12.1669C286.748 11.3258 286.873 10.5206 287.088 9.75107C287.32 8.98159 287.66 8.29264 288.108 7.68421C288.573 7.07579 289.163 6.60157 289.879 6.26157C290.595 5.90367 291.454 5.72472 292.456 5.72472C293.53 5.72472 294.416 5.92156 295.113 6.31525C295.829 6.70894 296.411 7.20105 296.858 7.79158V6.63736C296.858 6.45841 296.912 6.3063 297.019 6.18104C297.145 6.05578 297.297 5.99314 297.476 5.99314H298.71C298.889 5.99314 299.041 6.05578 299.167 6.18104C299.292 6.3063 299.355 6.45841 299.355 6.63736V19.6559C299.355 20.8549 299.149 21.9196 298.737 22.8501C298.344 23.7807 297.681 24.5144 296.751 25.0512C295.838 25.5881 294.603 25.8565 293.047 25.8565ZM292.993 17.9112C293.888 17.9112 294.603 17.7054 295.14 17.2938C295.695 16.8822 296.098 16.3632 296.348 15.7369C296.617 15.1106 296.76 14.4753 296.778 13.8311C296.796 13.5806 296.805 13.2764 296.805 12.9185C296.805 12.5427 296.796 12.2295 296.778 11.979C296.76 11.3348 296.617 10.6995 296.348 10.0732C296.098 9.44686 295.695 8.92791 295.14 8.51633C294.603 8.10474 293.888 7.89895 292.993 7.89895C292.098 7.89895 291.382 8.10474 290.846 8.51633C290.309 8.91001 289.924 9.43791 289.691 10.1C289.459 10.7442 289.324 11.4421 289.289 12.1937C289.271 12.659 289.271 13.1332 289.289 13.6164C289.324 14.368 289.459 15.0748 289.691 15.7369C289.924 16.3811 290.309 16.909 290.846 17.3206C291.382 17.7143 292.098 17.9112 292.993 17.9112Z" fill="#003366"/>
<path d="M66.9519 36.5781C66.8861 36.5781 66.8302 36.5551 66.7841 36.509C66.7381 36.463 66.7151 36.4071 66.7151 36.3413V29.9169C66.7151 29.8445 66.7381 29.7853 66.7841 29.7392C66.8302 29.6932 66.8861 29.6702 66.9519 29.6702H69.3598C70.0243 29.6702 70.5704 29.7721 70.998 29.9761C71.4322 30.18 71.7579 30.4827 71.975 30.884C72.1987 31.2853 72.3138 31.7754 72.3204 32.3544C72.3335 32.6439 72.3401 32.9005 72.3401 33.1241C72.3401 33.3478 72.3335 33.6011 72.3204 33.884C72.3072 34.4959 72.1954 35.0025 71.9848 35.4038C71.7743 35.7985 71.4552 36.0946 71.0276 36.2919C70.6065 36.4827 70.0671 36.5781 69.4092 36.5781H66.9519ZM68.0868 35.4432H69.3598C69.7282 35.4432 70.0276 35.3906 70.2579 35.2853C70.4881 35.1801 70.6559 35.0123 70.7611 34.7821C70.873 34.5452 70.9322 34.236 70.9388 33.8544C70.9454 33.657 70.9486 33.486 70.9486 33.3413C70.9552 33.1899 70.9552 33.0419 70.9486 32.8972C70.9486 32.7459 70.9454 32.5748 70.9388 32.384C70.9256 31.8445 70.7908 31.4465 70.5342 31.1899C70.2776 30.9333 69.8697 30.805 69.3105 30.805H68.0868V35.4432ZM77.0486 36.5781C76.9828 36.5781 76.9269 36.5551 76.8809 36.509C76.8348 36.463 76.8118 36.4071 76.8118 36.3413V29.9169C76.8118 29.8445 76.8348 29.7853 76.8809 29.7392C76.9269 29.6932 76.9828 29.6702 77.0486 29.6702H81.3908C81.4631 29.6702 81.5224 29.6932 81.5684 29.7392C81.6145 29.7853 81.6375 29.8445 81.6375 29.9169V30.5682C81.6375 30.634 81.6145 30.6899 81.5684 30.736C81.5224 30.782 81.4631 30.805 81.3908 30.805H78.144V32.5518H81.1737C81.246 32.5518 81.3052 32.5748 81.3513 32.6209C81.3974 32.6603 81.4204 32.7162 81.4204 32.7886V33.4005C81.4204 33.4728 81.3974 33.532 81.3513 33.5781C81.3052 33.6176 81.246 33.6373 81.1737 33.6373H78.144V35.4432H81.4697C81.5421 35.4432 81.6013 35.4663 81.6474 35.5123C81.6934 35.5584 81.7164 35.6176 81.7164 35.69V36.3413C81.7164 36.4071 81.6934 36.463 81.6474 36.509C81.6013 36.5551 81.5421 36.5781 81.4697 36.5781H77.0486ZM88.064 36.5781C87.9587 36.5781 87.8765 36.5518 87.8173 36.4992C87.758 36.4465 87.7153 36.3808 87.689 36.3018L85.5771 29.9662C85.5639 29.9333 85.5574 29.9037 85.5574 29.8774C85.5574 29.8182 85.5771 29.7688 85.6166 29.7294C85.6561 29.6899 85.7054 29.6702 85.7646 29.6702H86.633C86.7251 29.6702 86.7942 29.6965 86.8403 29.7491C86.8929 29.7952 86.9258 29.8412 86.939 29.8873L88.6067 34.9696L90.2745 29.8873C90.2877 29.8412 90.3173 29.7952 90.3633 29.7491C90.416 29.6965 90.4883 29.6702 90.5804 29.6702H91.4489C91.5015 29.6702 91.5476 29.6899 91.587 29.7294C91.6331 29.7688 91.6561 29.8182 91.6561 29.8774C91.6561 29.9037 91.6495 29.9333 91.6364 29.9662L89.5245 36.3018C89.4982 36.3808 89.4554 36.4465 89.3962 36.4992C89.337 36.5518 89.2548 36.5781 89.1495 36.5781H88.064ZM96.0952 36.5781C96.0295 36.5781 95.9735 36.5551 95.9275 36.509C95.8814 36.463 95.8584 36.4071 95.8584 36.3413V29.9169C95.8584 29.8445 95.8814 29.7853 95.9275 29.7392C95.9735 29.6932 96.0295 29.6702 96.0952 29.6702H100.437C100.51 29.6702 100.569 29.6932 100.615 29.7392C100.661 29.7853 100.684 29.8445 100.684 29.9169V30.5682C100.684 30.634 100.661 30.6899 100.615 30.736C100.569 30.782 100.51 30.805 100.437 30.805H97.1907V32.5518H100.22C100.293 32.5518 100.352 32.5748 100.398 32.6209C100.444 32.6603 100.467 32.7162 100.467 32.7886V33.4005C100.467 33.4728 100.444 33.532 100.398 33.5781C100.352 33.6176 100.293 33.6373 100.22 33.6373H97.1907V35.4432H100.516C100.589 35.4432 100.648 35.4663 100.694 35.5123C100.74 35.5584 100.763 35.6176 100.763 35.69V36.3413C100.763 36.4071 100.74 36.463 100.694 36.509C100.648 36.5551 100.589 36.5781 100.516 36.5781H96.0952ZM105.392 36.5781C105.326 36.5781 105.27 36.5551 105.224 36.509C105.178 36.463 105.155 36.4071 105.155 36.3413V29.907C105.155 29.8412 105.178 29.7853 105.224 29.7392C105.27 29.6932 105.326 29.6702 105.392 29.6702H106.31C106.376 29.6702 106.432 29.6932 106.478 29.7392C106.524 29.7853 106.547 29.8412 106.547 29.907V35.4038H109.675C109.747 35.4038 109.807 35.4268 109.853 35.4729C109.899 35.5189 109.922 35.5781 109.922 35.6505V36.3413C109.922 36.4071 109.899 36.463 109.853 36.509C109.807 36.5551 109.747 36.5781 109.675 36.5781H105.392ZM116.606 36.6768C116.02 36.6768 115.517 36.5814 115.096 36.3906C114.675 36.1933 114.346 35.8939 114.109 35.4926C113.872 35.0847 113.744 34.5781 113.724 33.9728C113.717 33.6899 113.714 33.4103 113.714 33.134C113.714 32.8577 113.717 32.5748 113.724 32.2853C113.744 31.6866 113.875 31.1866 114.119 30.7853C114.362 30.384 114.694 30.0814 115.115 29.8774C115.543 29.6735 116.04 29.5715 116.606 29.5715C117.171 29.5715 117.668 29.6735 118.096 29.8774C118.523 30.0814 118.859 30.384 119.102 30.7853C119.346 31.1866 119.477 31.6866 119.497 32.2853C119.51 32.5748 119.517 32.8577 119.517 33.134C119.517 33.4103 119.51 33.6899 119.497 33.9728C119.477 34.5781 119.349 35.0847 119.112 35.4926C118.875 35.8939 118.543 36.1933 118.115 36.3906C117.694 36.5814 117.191 36.6768 116.606 36.6768ZM116.606 35.5419C117.033 35.5419 117.382 35.4169 117.652 35.1669C117.921 34.9103 118.066 34.4959 118.086 33.9235C118.099 33.634 118.106 33.3676 118.106 33.1241C118.106 32.8741 118.099 32.6077 118.086 32.3248C118.073 31.9432 118 31.634 117.869 31.3972C117.744 31.1537 117.573 30.9794 117.356 30.8741C117.138 30.7623 116.888 30.7064 116.606 30.7064C116.329 30.7064 116.083 30.7623 115.865 30.8741C115.648 30.9794 115.474 31.1537 115.342 31.3972C115.217 31.634 115.148 31.9432 115.135 32.3248C115.129 32.6077 115.125 32.8741 115.125 33.1241C115.125 33.3676 115.129 33.634 115.135 33.9235C115.155 34.4959 115.3 34.9103 115.569 35.1669C115.839 35.4169 116.185 35.5419 116.606 35.5419ZM124.207 36.5781C124.142 36.5781 124.086 36.5551 124.04 36.509C123.994 36.463 123.971 36.4071 123.971 36.3413V29.9169C123.971 29.8445 123.994 29.7853 124.04 29.7392C124.086 29.6932 124.142 29.6702 124.207 29.6702H126.852C127.365 29.6702 127.813 29.7524 128.194 29.9169C128.576 30.0748 128.872 30.3182 129.082 30.6471C129.293 30.9695 129.398 31.3741 129.398 31.861C129.398 32.3544 129.293 32.7623 129.082 33.0847C128.872 33.4005 128.576 33.6373 128.194 33.7952C127.813 33.9531 127.365 34.032 126.852 34.032H125.382V36.3413C125.382 36.4071 125.359 36.463 125.313 36.509C125.273 36.5551 125.217 36.5781 125.145 36.5781H124.207ZM125.362 32.9366H126.803C127.184 32.9366 127.477 32.8478 127.681 32.6702C127.885 32.486 127.987 32.2162 127.987 31.861C127.987 31.532 127.892 31.2689 127.701 31.0715C127.51 30.8675 127.211 30.7656 126.803 30.7656H125.362V32.9366ZM133.88 36.5781C133.808 36.5781 133.749 36.5551 133.703 36.509C133.657 36.463 133.634 36.4071 133.634 36.3413V29.9169C133.634 29.8445 133.657 29.7853 133.703 29.7392C133.749 29.6932 133.808 29.6702 133.88 29.6702H134.66C134.752 29.6702 134.821 29.6965 134.867 29.7491C134.913 29.7952 134.943 29.8313 134.956 29.8577L136.861 33.4103L138.785 29.8577C138.798 29.8313 138.828 29.7952 138.874 29.7491C138.92 29.6965 138.989 29.6702 139.081 29.6702H139.851C139.923 29.6702 139.982 29.6932 140.028 29.7392C140.074 29.7853 140.097 29.8445 140.097 29.9169V36.3413C140.097 36.4071 140.074 36.463 140.028 36.509C139.982 36.5551 139.923 36.5781 139.851 36.5781H139.022C138.949 36.5781 138.89 36.5551 138.844 36.509C138.805 36.463 138.785 36.4071 138.785 36.3413V32.0682L137.403 34.7031C137.37 34.7623 137.328 34.815 137.275 34.861C137.222 34.9005 137.153 34.9202 137.068 34.9202H136.663C136.571 34.9202 136.499 34.9005 136.446 34.861C136.4 34.815 136.361 34.7623 136.328 34.7031L134.946 32.0682V36.3413C134.946 36.4071 134.923 36.463 134.877 36.509C134.831 36.5551 134.775 36.5781 134.709 36.5781H133.88ZM145.027 36.5781C144.961 36.5781 144.906 36.5551 144.86 36.509C144.813 36.463 144.79 36.4071 144.79 36.3413V29.9169C144.79 29.8445 144.813 29.7853 144.86 29.7392C144.906 29.6932 144.961 29.6702 145.027 29.6702H149.369C149.442 29.6702 149.501 29.6932 149.547 29.7392C149.593 29.7853 149.616 29.8445 149.616 29.9169V30.5682C149.616 30.634 149.593 30.6899 149.547 30.736C149.501 30.782 149.442 30.805 149.369 30.805H146.123V32.5518H149.152C149.225 32.5518 149.284 32.5748 149.33 32.6209C149.376 32.6603 149.399 32.7162 149.399 32.7886V33.4005C149.399 33.4728 149.376 33.532 149.33 33.5781C149.284 33.6176 149.225 33.6373 149.152 33.6373H146.123V35.4432H149.448C149.521 35.4432 149.58 35.4663 149.626 35.5123C149.672 35.5584 149.695 35.6176 149.695 35.69V36.3413C149.695 36.4071 149.672 36.463 149.626 36.509C149.58 36.5551 149.521 36.5781 149.448 36.5781H145.027ZM154.324 36.5781C154.258 36.5781 154.202 36.5551 154.156 36.509C154.11 36.463 154.087 36.4071 154.087 36.3413V29.9169C154.087 29.8445 154.11 29.7853 154.156 29.7392C154.202 29.6932 154.258 29.6702 154.324 29.6702H155.084C155.176 29.6702 155.242 29.6932 155.281 29.7392C155.327 29.7787 155.357 29.8083 155.37 29.8281L158.212 34.2492V29.9169C158.212 29.8445 158.232 29.7853 158.272 29.7392C158.318 29.6932 158.377 29.6702 158.449 29.6702H159.278C159.35 29.6702 159.41 29.6932 159.456 29.7392C159.502 29.7853 159.525 29.8445 159.525 29.9169V36.3314C159.525 36.4038 159.502 36.463 159.456 36.509C159.41 36.5551 159.354 36.5781 159.288 36.5781H158.518C158.426 36.5781 158.36 36.5551 158.321 36.509C158.281 36.463 158.252 36.4334 158.232 36.4202L155.4 32.0978V36.3413C155.4 36.4071 155.377 36.463 155.331 36.509C155.285 36.5551 155.225 36.5781 155.153 36.5781H154.324ZM165.979 36.5781C165.913 36.5781 165.857 36.5551 165.811 36.509C165.765 36.463 165.742 36.4071 165.742 36.3413V30.884H163.917C163.851 30.884 163.795 30.861 163.749 30.8149C163.703 30.7689 163.68 30.7129 163.68 30.6471V29.9169C163.68 29.8445 163.703 29.7853 163.749 29.7392C163.795 29.6932 163.851 29.6702 163.917 29.6702H168.95C169.022 29.6702 169.081 29.6932 169.127 29.7392C169.173 29.7853 169.196 29.8445 169.196 29.9169V30.6471C169.196 30.7129 169.173 30.7689 169.127 30.8149C169.081 30.861 169.022 30.884 168.95 30.884H167.134V36.3413C167.134 36.4071 167.111 36.463 167.065 36.509C167.019 36.5551 166.959 36.5781 166.887 36.5781H165.979ZM178.764 36.5781C178.699 36.5781 178.643 36.5551 178.597 36.509C178.551 36.463 178.528 36.4071 178.528 36.3413V29.9169C178.528 29.8445 178.551 29.7853 178.597 29.7392C178.643 29.6932 178.699 29.6702 178.764 29.6702H183.107C183.179 29.6702 183.238 29.6932 183.284 29.7392C183.33 29.7853 183.353 29.8445 183.353 29.9169V30.5682C183.353 30.634 183.33 30.6899 183.284 30.736C183.238 30.782 183.179 30.805 183.107 30.805H179.86V32.5518H182.89C182.962 32.5518 183.021 32.5748 183.067 32.6209C183.113 32.6603 183.136 32.7162 183.136 32.7886V33.4005C183.136 33.4728 183.113 33.532 183.067 33.5781C183.021 33.6176 182.962 33.6373 182.89 33.6373H179.86V35.4432H183.186C183.258 35.4432 183.317 35.4663 183.363 35.5123C183.409 35.5584 183.432 35.6176 183.432 35.69V36.3413C183.432 36.4071 183.409 36.463 183.363 36.509C183.317 36.5551 183.258 36.5781 183.186 36.5781H178.764ZM188.061 36.5781C187.996 36.5781 187.94 36.5551 187.894 36.509C187.848 36.463 187.824 36.4071 187.824 36.3413V29.9169C187.824 29.8445 187.848 29.7853 187.894 29.7392C187.94 29.6932 187.996 29.6702 188.061 29.6702H188.821C188.913 29.6702 188.979 29.6932 189.019 29.7392C189.065 29.7787 189.094 29.8083 189.107 29.8281L191.95 34.2492V29.9169C191.95 29.8445 191.969 29.7853 192.009 29.7392C192.055 29.6932 192.114 29.6702 192.186 29.6702H193.015C193.088 29.6702 193.147 29.6932 193.193 29.7392C193.239 29.7853 193.262 29.8445 193.262 29.9169V36.3314C193.262 36.4038 193.239 36.463 193.193 36.509C193.147 36.5551 193.091 36.5781 193.025 36.5781H192.255C192.163 36.5781 192.098 36.5551 192.058 36.509C192.019 36.463 191.989 36.4334 191.969 36.4202L189.137 32.0978V36.3413C189.137 36.4071 189.114 36.463 189.068 36.509C189.022 36.5551 188.963 36.5781 188.89 36.5781H188.061ZM199.973 36.5781C199.868 36.5781 199.785 36.5518 199.726 36.4992C199.667 36.4465 199.624 36.3808 199.598 36.3018L197.486 29.9662C197.473 29.9333 197.466 29.9037 197.466 29.8774C197.466 29.8182 197.486 29.7688 197.526 29.7294C197.565 29.6899 197.614 29.6702 197.674 29.6702H198.542C198.634 29.6702 198.703 29.6965 198.749 29.7491C198.802 29.7952 198.835 29.8412 198.848 29.8873L200.516 34.9696L202.183 29.8873C202.197 29.8412 202.226 29.7952 202.272 29.7491C202.325 29.6965 202.397 29.6702 202.489 29.6702H203.358C203.41 29.6702 203.457 29.6899 203.496 29.7294C203.542 29.7688 203.565 29.8182 203.565 29.8774C203.565 29.9037 203.558 29.9333 203.545 29.9662L201.433 36.3018C201.407 36.3808 201.364 36.4465 201.305 36.4992C201.246 36.5518 201.164 36.5781 201.058 36.5781H199.973ZM208.004 36.5781C207.938 36.5781 207.882 36.5551 207.836 36.509C207.79 36.463 207.767 36.4071 207.767 36.3413V29.907C207.767 29.8412 207.79 29.7853 207.836 29.7392C207.882 29.6932 207.938 29.6702 208.004 29.6702H208.932C209.004 29.6702 209.06 29.6932 209.1 29.7392C209.146 29.7853 209.169 29.8412 209.169 29.907V36.3413C209.169 36.4071 209.146 36.463 209.1 36.509C209.06 36.5551 209.004 36.5781 208.932 36.5781H208.004ZM214.111 36.5781C214.045 36.5781 213.989 36.5551 213.943 36.509C213.897 36.463 213.874 36.4071 213.874 36.3413V29.9169C213.874 29.8445 213.897 29.7853 213.943 29.7392C213.989 29.6932 214.045 29.6702 214.111 29.6702H216.667C217.463 29.6702 218.091 29.8544 218.552 30.2228C219.012 30.5912 219.243 31.1274 219.243 31.8314C219.243 32.3182 219.121 32.7228 218.878 33.0452C218.641 33.3676 218.322 33.6011 217.92 33.7459L219.361 36.2623C219.381 36.3018 219.391 36.338 219.391 36.3709C219.391 36.4301 219.368 36.4794 219.322 36.5189C219.282 36.5584 219.236 36.5781 219.184 36.5781H218.285C218.174 36.5781 218.088 36.5485 218.029 36.4893C217.97 36.4301 217.924 36.3709 217.891 36.3117L216.618 33.9728H215.246V36.3413C215.246 36.4071 215.223 36.463 215.177 36.509C215.137 36.5551 215.082 36.5781 215.009 36.5781H214.111ZM215.246 32.8577H216.637C217.039 32.8577 217.338 32.7689 217.535 32.5912C217.733 32.407 217.832 32.1505 217.832 31.8215C217.832 31.4926 217.733 31.236 217.535 31.0518C217.345 30.861 217.045 30.7656 216.637 30.7656H215.246V32.8577ZM226.308 36.6768C225.722 36.6768 225.219 36.5814 224.798 36.3906C224.377 36.1933 224.048 35.8939 223.811 35.4926C223.574 35.0847 223.446 34.5781 223.426 33.9728C223.419 33.6899 223.416 33.4103 223.416 33.134C223.416 32.8577 223.419 32.5748 223.426 32.2853C223.446 31.6866 223.577 31.1866 223.821 30.7853C224.064 30.384 224.396 30.0814 224.817 29.8774C225.245 29.6735 225.742 29.5715 226.308 29.5715C226.873 29.5715 227.37 29.6735 227.798 29.8774C228.225 30.0814 228.561 30.384 228.804 30.7853C229.048 31.1866 229.179 31.6866 229.199 32.2853C229.212 32.5748 229.219 32.8577 229.219 33.134C229.219 33.4103 229.212 33.6899 229.199 33.9728C229.179 34.5781 229.051 35.0847 228.814 35.4926C228.577 35.8939 228.245 36.1933 227.817 36.3906C227.396 36.5814 226.893 36.6768 226.308 36.6768ZM226.308 35.5419C226.735 35.5419 227.084 35.4169 227.354 35.1669C227.623 34.9103 227.768 34.4959 227.788 33.9235C227.801 33.634 227.808 33.3676 227.808 33.1241C227.808 32.8741 227.801 32.6077 227.788 32.3248C227.775 31.9432 227.702 31.634 227.571 31.3972C227.446 31.1537 227.275 30.9794 227.058 30.8741C226.84 30.7623 226.59 30.7064 226.308 30.7064C226.031 30.7064 225.785 30.7623 225.567 30.8741C225.35 30.9794 225.176 31.1537 225.044 31.3972C224.919 31.634 224.85 31.9432 224.837 32.3248C224.831 32.6077 224.827 32.8741 224.827 33.1241C224.827 33.3676 224.831 33.634 224.837 33.9235C224.857 34.4959 225.002 34.9103 225.271 35.1669C225.541 35.4169 225.887 35.5419 226.308 35.5419ZM233.909 36.5781C233.844 36.5781 233.788 36.5551 233.742 36.509C233.696 36.463 233.673 36.4071 233.673 36.3413V29.9169C233.673 29.8445 233.696 29.7853 233.742 29.7392C233.788 29.6932 233.844 29.6702 233.909 29.6702H234.669C234.761 29.6702 234.827 29.6932 234.867 29.7392C234.913 29.7787 234.942 29.8083 234.955 29.8281L237.798 34.2492V29.9169C237.798 29.8445 237.817 29.7853 237.857 29.7392C237.903 29.6932 237.962 29.6702 238.034 29.6702H238.863C238.936 29.6702 238.995 29.6932 239.041 29.7392C239.087 29.7853 239.11 29.8445 239.11 29.9169V36.3314C239.11 36.4038 239.087 36.463 239.041 36.509C238.995 36.5551 238.939 36.5781 238.873 36.5781H238.104C238.011 36.5781 237.946 36.5551 237.906 36.509C237.867 36.463 237.837 36.4334 237.817 36.4202L234.985 32.0978V36.3413C234.985 36.4071 234.962 36.463 234.916 36.509C234.87 36.5551 234.811 36.5781 234.738 36.5781H233.909ZM244.055 36.5781C243.982 36.5781 243.923 36.5551 243.877 36.509C243.831 36.463 243.808 36.4071 243.808 36.3413V29.9169C243.808 29.8445 243.831 29.7853 243.877 29.7392C243.923 29.6932 243.982 29.6702 244.055 29.6702H244.834C244.926 29.6702 244.995 29.6965 245.041 29.7491C245.087 29.7952 245.117 29.8313 245.13 29.8577L247.035 33.4103L248.959 29.8577C248.972 29.8313 249.002 29.7952 249.048 29.7491C249.094 29.6965 249.163 29.6702 249.255 29.6702H250.025C250.097 29.6702 250.157 29.6932 250.203 29.7392C250.249 29.7853 250.272 29.8445 250.272 29.9169V36.3413C250.272 36.4071 250.249 36.463 250.203 36.509C250.157 36.5551 250.097 36.5781 250.025 36.5781H249.196C249.124 36.5781 249.065 36.5551 249.018 36.509C248.979 36.463 248.959 36.4071 248.959 36.3413V32.0682L247.578 34.7031C247.545 34.7623 247.502 34.815 247.449 34.861C247.397 34.9005 247.328 34.9202 247.242 34.9202H246.838C246.745 34.9202 246.673 34.9005 246.62 34.861C246.574 34.815 246.535 34.7623 246.502 34.7031L245.12 32.0682V36.3413C245.12 36.4071 245.097 36.463 245.051 36.509C245.005 36.5551 244.949 36.5781 244.884 36.5781H244.055ZM255.202 36.5781C255.136 36.5781 255.08 36.5551 255.034 36.509C254.988 36.463 254.965 36.4071 254.965 36.3413V29.9169C254.965 29.8445 254.988 29.7853 255.034 29.7392C255.08 29.6932 255.136 29.6702 255.202 29.6702H259.544C259.616 29.6702 259.675 29.6932 259.721 29.7392C259.767 29.7853 259.79 29.8445 259.79 29.9169V30.5682C259.79 30.634 259.767 30.6899 259.721 30.736C259.675 30.782 259.616 30.805 259.544 30.805H256.297V32.5518H259.327C259.399 32.5518 259.458 32.5748 259.504 32.6209C259.55 32.6603 259.573 32.7162 259.573 32.7886V33.4005C259.573 33.4728 259.55 33.532 259.504 33.5781C259.458 33.6176 259.399 33.6373 259.327 33.6373H256.297V35.4432H259.623C259.695 35.4432 259.754 35.4663 259.8 35.5123C259.846 35.5584 259.869 35.6176 259.869 35.69V36.3413C259.869 36.4071 259.846 36.463 259.8 36.509C259.754 36.5551 259.695 36.5781 259.623 36.5781H255.202ZM264.498 36.5781C264.433 36.5781 264.377 36.5551 264.331 36.509C264.285 36.463 264.262 36.4071 264.262 36.3413V29.9169C264.262 29.8445 264.285 29.7853 264.331 29.7392C264.377 29.6932 264.433 29.6702 264.498 29.6702H265.258C265.35 29.6702 265.416 29.6932 265.456 29.7392C265.502 29.7787 265.531 29.8083 265.544 29.8281L268.387 34.2492V29.9169C268.387 29.8445 268.406 29.7853 268.446 29.7392C268.492 29.6932 268.551 29.6702 268.623 29.6702H269.452C269.525 29.6702 269.584 29.6932 269.63 29.7392C269.676 29.7853 269.699 29.8445 269.699 29.9169V36.3314C269.699 36.4038 269.676 36.463 269.63 36.509C269.584 36.5551 269.528 36.5781 269.462 36.5781H268.692C268.6 36.5781 268.535 36.5551 268.495 36.509C268.456 36.463 268.426 36.4334 268.406 36.4202L265.574 32.0978V36.3413C265.574 36.4071 265.551 36.463 265.505 36.509C265.459 36.5551 265.4 36.5781 265.327 36.5781H264.498ZM276.153 36.5781C276.088 36.5781 276.032 36.5551 275.986 36.509C275.94 36.463 275.917 36.4071 275.917 36.3413V30.884H274.091C274.025 30.884 273.969 30.861 273.923 30.8149C273.877 30.7689 273.854 30.7129 273.854 30.6471V29.9169C273.854 29.8445 273.877 29.7853 273.923 29.7392C273.969 29.6932 274.025 29.6702 274.091 29.6702H279.124C279.196 29.6702 279.255 29.6932 279.301 29.7392C279.347 29.7853 279.371 29.8445 279.371 29.9169V30.6471C279.371 30.7129 279.347 30.7689 279.301 30.8149C279.255 30.861 279.196 30.884 279.124 30.884H277.308V36.3413C277.308 36.4071 277.285 36.463 277.239 36.509C277.193 36.5551 277.134 36.5781 277.061 36.5781H276.153Z" fill="#717171"/>
<defs>
<linearGradient id="paint0_linear_2624_30824" x1="46.4569" y1="2.11196" x2="20.9859" y2="34.981" gradientUnits="userSpaceOnUse">
<stop stop-color="#009BFF"/>
<stop offset="0.484375" stop-color="#0073C8"/>
<stop offset="0.890625" stop-color="#125496"/>
</linearGradient>
<linearGradient id="paint1_linear_2624_30824" x1="2.30366" y1="2.11196" x2="27.7746" y2="34.981" gradientUnits="userSpaceOnUse">
<stop stop-color="#0073C8"/>
<stop offset="1" stop-color="#209FA6"/>
</linearGradient>
</defs>
</svg>
