<svg width="378" height="43" viewBox="0 0 378 43" fill="none" xmlns="http://www.w3.org/2000/svg">
<path d="M47.4467 9.64296C49.3198 7.30162 48.8767 3.93436 46.4569 2.12197C44.0372 0.309586 40.5571 0.738388 38.684 3.07973L20.0306 26.3963C18.1576 28.7376 18.6007 32.1049 21.0205 33.9173C23.4402 35.7297 26.9203 35.3008 28.7934 32.9595L47.4467 9.64296Z" fill="url(#paint0_linear_6235_83205)"/>
<path d="M47.4467 9.64296C49.3198 7.30162 48.8767 3.93436 46.4569 2.12197C44.0372 0.309586 40.5571 0.738388 38.684 3.07973L20.0306 26.3963C18.1576 28.7376 18.6007 32.1049 21.0205 33.9173C23.4402 35.7297 26.9203 35.3008 28.7934 32.9595L47.4467 9.64296Z" stroke="white"/>
<path d="M1.31385 9.64296C-0.559241 7.30162 -0.116077 3.93436 2.30368 2.12197C4.72343 0.309586 8.20347 0.738388 10.0766 3.07973L28.7299 26.3963C30.603 28.7376 30.1599 32.1049 27.7401 33.9173C25.3203 35.7297 21.8403 35.3009 19.9672 32.9595L1.31385 9.64296Z" fill="url(#paint1_linear_6235_83205)"/>
<path d="M1.31385 9.64296C-0.559241 7.30162 -0.116077 3.93436 2.30368 2.12197C4.72343 0.309586 8.20347 0.738388 10.0766 3.07973L28.7299 26.3963C30.603 28.7376 30.1599 32.1049 27.7401 33.9173C25.3203 35.7297 21.8403 35.3009 19.9672 32.9595L1.31385 9.64296Z" stroke="white"/>
<path d="M0 23.4144C0 21.4064 2.63176 20.5419 3.89517 22.1349L12.0544 32.4224C13.1508 33.8048 12.1322 35.8036 10.3313 35.8036H2.17205C0.972459 35.8036 0 34.8626 0 33.7019V23.4144Z" fill="#33C5BF"/>
<path d="M0 23.4144C0 21.4064 2.63176 20.5419 3.89517 22.1349L12.0544 32.4224C13.1508 33.8048 12.1322 35.8036 10.3313 35.8036H2.17205C0.972459 35.8036 0 34.8626 0 33.7019V23.4144Z" stroke="white"/>
<path d="M48.7534 23.4144C48.7534 21.4064 46.1217 20.5419 44.8582 22.1349L36.699 32.4224C35.6026 33.8048 36.6212 35.8036 38.4221 35.8036H46.5814C47.781 35.8036 48.7534 34.8626 48.7534 33.7019V23.4144Z" fill="#125496"/>
<path d="M48.7534 23.4144C48.7534 21.4064 46.1217 20.5419 44.8582 22.1349L36.699 32.4224C35.6026 33.8048 36.6212 35.8036 38.4221 35.8036H46.5814C47.781 35.8036 48.7534 34.8626 48.7534 33.7019V23.4144Z" stroke="white"/>
<path d="M67.3179 20.0391C67.1389 20.0391 66.9868 19.9854 66.8616 19.878C66.7542 19.7527 66.7005 19.6006 66.7005 19.4217V1.89363C66.7005 1.69678 66.7542 1.54468 66.8616 1.43731C66.9868 1.31204 67.1389 1.24941 67.3179 1.24941H68.66C68.8748 1.24941 69.0358 1.30309 69.1432 1.41046C69.2505 1.51783 69.3221 1.60731 69.3579 1.67889L75.0217 12.5232L80.7391 1.67889C80.7749 1.60731 80.8375 1.51783 80.927 1.41046C81.0343 1.30309 81.1954 1.24941 81.4101 1.24941H82.7254C82.9223 1.24941 83.0744 1.31204 83.1817 1.43731C83.307 1.54468 83.3696 1.69678 83.3696 1.89363V19.4217C83.3696 19.6006 83.307 19.7527 83.1817 19.878C83.0744 19.9854 82.9223 20.0391 82.7254 20.0391H81.4101C81.2312 20.0391 81.0791 19.9854 80.9538 19.878C80.8464 19.7527 80.7928 19.6006 80.7928 19.4217V6.21525L76.3101 14.9659C76.2385 15.1448 76.1311 15.288 75.988 15.3953C75.8448 15.4848 75.6659 15.5295 75.4511 15.5295H74.619C74.3864 15.5295 74.2074 15.4848 74.0822 15.3953C73.9569 15.288 73.8495 15.1448 73.7601 14.9659L69.2505 6.21525V19.4217C69.2505 19.6006 69.1879 19.7527 69.0626 19.878C68.9553 19.9854 68.8121 20.0391 68.6332 20.0391H67.3179ZM93.2461 20.3075C91.3851 20.3075 89.9087 19.7438 88.8172 18.6164C87.7256 17.4711 87.1261 15.9143 87.0187 13.9458C87.0008 13.7132 86.9919 13.4179 86.9919 13.06C86.9919 12.6843 87.0008 12.38 87.0187 12.1474C87.0903 10.8769 87.3856 9.76739 87.9045 8.81896C88.4235 7.85263 89.1303 7.10999 90.0251 6.59104C90.9377 6.07209 92.0024 5.81261 93.2193 5.81261C94.5793 5.81261 95.7156 6.09893 96.6283 6.67157C97.5588 7.2442 98.2657 8.05842 98.7488 9.11422C99.232 10.17 99.4736 11.4048 99.4736 12.8185V13.2748C99.4736 13.4716 99.4109 13.6237 99.2857 13.7311C99.1783 13.8385 99.0351 13.8922 98.8562 13.8922H89.5687C89.5687 13.9101 89.5687 13.9458 89.5687 13.9995C89.5687 14.0532 89.5687 14.098 89.5687 14.1337C89.6045 14.8674 89.7656 15.5564 90.0519 16.2006C90.3382 16.8269 90.7498 17.3369 91.2867 17.7306C91.8414 18.1243 92.4856 18.3212 93.2193 18.3212C93.8635 18.3212 94.4004 18.2227 94.8298 18.0259C95.2593 17.829 95.6083 17.6143 95.8767 17.3817C96.1451 17.1311 96.3241 16.9343 96.4135 16.7911C96.5746 16.5764 96.6999 16.4511 96.7893 16.4153C96.8788 16.3617 97.022 16.3348 97.2188 16.3348H98.5341C98.6951 16.3348 98.8294 16.3885 98.9367 16.4959C99.062 16.5853 99.1157 16.7196 99.0978 16.8985C99.0799 17.1669 98.9367 17.498 98.6683 17.8917C98.3999 18.2675 98.0151 18.6433 97.5141 19.0191C97.0309 19.3948 96.4225 19.708 95.6888 19.9585C94.973 20.1912 94.1588 20.3075 93.2461 20.3075ZM89.5687 12.04H96.9235V11.9595C96.9235 11.1542 96.7714 10.4384 96.4672 9.81212C96.1809 9.1858 95.7604 8.69369 95.2056 8.33579C94.6509 7.96 93.9888 7.7721 93.2193 7.7721C92.4498 7.7721 91.7877 7.96 91.233 8.33579C90.6961 8.69369 90.2845 9.1858 89.9982 9.81212C89.7119 10.4384 89.5687 11.1542 89.5687 11.9595V12.04ZM106.575 20.3075C105.681 20.3075 104.866 20.1285 104.133 19.7706C103.399 19.4127 102.808 18.9296 102.361 18.3212C101.914 17.7127 101.69 17.0238 101.69 16.2543C101.69 15.0195 102.191 14.0353 103.193 13.3016C104.195 12.5679 105.502 12.0848 107.112 11.8521L111.112 11.2885V10.51C111.112 9.65107 110.861 8.98001 110.36 8.49685C109.877 8.01369 109.081 7.7721 107.971 7.7721C107.184 7.7721 106.539 7.93316 106.038 8.25527C105.537 8.57737 105.188 8.98896 104.992 9.49002C104.884 9.75844 104.696 9.89265 104.428 9.89265H103.22C103.023 9.89265 102.871 9.83897 102.764 9.7316C102.674 9.60633 102.629 9.46317 102.629 9.30212C102.629 9.03369 102.728 8.70264 102.925 8.30895C103.139 7.91526 103.462 7.53052 103.891 7.15473C104.321 6.77894 104.866 6.46577 105.528 6.21525C106.208 5.94682 107.032 5.81261 107.998 5.81261C109.072 5.81261 109.975 5.95577 110.709 6.24209C111.443 6.51051 112.015 6.87736 112.427 7.34263C112.856 7.80789 113.161 8.33579 113.34 8.92632C113.536 9.51686 113.635 10.1163 113.635 10.7248V19.4217C113.635 19.6006 113.572 19.7527 113.447 19.878C113.34 19.9854 113.196 20.0391 113.017 20.0391H111.783C111.586 20.0391 111.434 19.9854 111.326 19.878C111.219 19.7527 111.165 19.6006 111.165 19.4217V18.2675C110.933 18.5896 110.62 18.9117 110.226 19.2338C109.832 19.538 109.34 19.7975 108.749 20.0122C108.159 20.2091 107.434 20.3075 106.575 20.3075ZM107.139 18.2943C107.873 18.2943 108.544 18.1422 109.152 17.838C109.761 17.5159 110.235 17.0238 110.575 16.3617C110.933 15.6995 111.112 14.8674 111.112 13.8653V13.1137L107.998 13.5701C106.727 13.749 105.77 14.0532 105.126 14.4827C104.482 14.8943 104.159 15.4222 104.159 16.0664C104.159 16.5675 104.303 16.988 104.589 17.328C104.893 17.6501 105.269 17.8917 105.716 18.0527C106.182 18.2138 106.656 18.2943 107.139 18.2943ZM122.325 20.3075C121.323 20.3075 120.464 20.1822 119.748 19.9317C119.033 19.6812 118.451 19.377 118.004 19.0191C117.556 18.6612 117.216 18.3033 116.984 17.9454C116.769 17.5875 116.653 17.3011 116.635 17.0864C116.617 16.8896 116.679 16.7375 116.823 16.6301C116.966 16.5227 117.109 16.469 117.252 16.469H118.46C118.549 16.469 118.621 16.4869 118.675 16.5227C118.746 16.5406 118.836 16.6122 118.943 16.7375C119.176 16.988 119.435 17.2385 119.722 17.489C120.008 17.7396 120.357 17.9454 120.768 18.1064C121.198 18.2675 121.726 18.348 122.352 18.348C123.265 18.348 124.016 18.178 124.607 17.838C125.197 17.4801 125.493 16.9611 125.493 16.2811C125.493 15.8338 125.367 15.4759 125.117 15.2074C124.884 14.939 124.455 14.6974 123.828 14.4827C123.22 14.268 122.379 14.0443 121.305 13.8116C120.232 13.5611 119.382 13.2569 118.755 12.899C118.129 12.5232 117.682 12.0848 117.413 11.5837C117.145 11.0648 117.01 10.4832 117.01 9.83897C117.01 9.17685 117.207 8.54158 117.601 7.93316C117.995 7.30684 118.567 6.79683 119.319 6.40314C120.088 6.00946 121.046 5.81261 122.191 5.81261C123.122 5.81261 123.918 5.92893 124.58 6.16156C125.242 6.3942 125.788 6.68946 126.217 7.04736C126.647 7.38736 126.969 7.72737 127.184 8.06737C127.398 8.40737 127.515 8.69369 127.533 8.92632C127.551 9.10527 127.497 9.25738 127.372 9.38265C127.246 9.49001 127.103 9.5437 126.942 9.5437H125.815C125.689 9.5437 125.582 9.51686 125.493 9.46317C125.421 9.40949 125.349 9.34686 125.278 9.27528C125.099 9.04264 124.884 8.81001 124.634 8.57737C124.401 8.34474 124.088 8.15684 123.694 8.01369C123.318 7.85263 122.817 7.7721 122.191 7.7721C121.296 7.7721 120.625 7.96 120.178 8.33579C119.73 8.71159 119.507 9.1858 119.507 9.75844C119.507 10.0984 119.605 10.4027 119.802 10.6711C119.999 10.9395 120.375 11.1811 120.929 11.3958C121.484 11.6106 122.307 11.8432 123.399 12.0937C124.58 12.3264 125.511 12.6395 126.191 13.0332C126.871 13.4269 127.354 13.8832 127.64 14.4022C127.926 14.9211 128.069 15.5206 128.069 16.2006C128.069 16.9522 127.855 17.6411 127.425 18.2675C126.996 18.8938 126.352 19.3948 125.493 19.7706C124.634 20.1285 123.578 20.3075 122.325 20.3075ZM136.384 20.3075C135.239 20.3075 134.264 20.057 133.459 19.5559C132.671 19.0369 132.072 18.3212 131.66 17.4085C131.248 16.4959 131.043 15.449 131.043 14.268V6.69841C131.043 6.51946 131.096 6.3763 131.204 6.26893C131.329 6.14367 131.481 6.08103 131.66 6.08103H133.002C133.181 6.08103 133.324 6.14367 133.432 6.26893C133.557 6.3763 133.62 6.51946 133.62 6.69841V14.1337C133.62 16.8001 134.783 18.1333 137.109 18.1333C138.219 18.1333 139.104 17.7843 139.766 17.0864C140.446 16.3706 140.786 15.3864 140.786 14.1337V6.69841C140.786 6.51946 140.84 6.3763 140.948 6.26893C141.073 6.14367 141.225 6.08103 141.404 6.08103H142.746C142.925 6.08103 143.068 6.14367 143.175 6.26893C143.283 6.3763 143.337 6.51946 143.337 6.69841V19.4217C143.337 19.6006 143.283 19.7527 143.175 19.878C143.068 19.9854 142.925 20.0391 142.746 20.0391H141.484C141.305 20.0391 141.153 19.9854 141.028 19.878C140.921 19.7527 140.867 19.6006 140.867 19.4217V18.2406C140.384 18.8669 139.793 19.368 139.095 19.7438C138.415 20.1196 137.512 20.3075 136.384 20.3075ZM147.942 20.0391C147.763 20.0391 147.611 19.9854 147.485 19.878C147.378 19.7527 147.324 19.6006 147.324 19.4217V6.72525C147.324 6.5463 147.378 6.3942 147.485 6.26893C147.611 6.14367 147.763 6.08103 147.942 6.08103H149.176C149.355 6.08103 149.507 6.14367 149.633 6.26893C149.758 6.3942 149.821 6.5463 149.821 6.72525V7.90632C150.179 7.29789 150.671 6.84157 151.297 6.53736C151.923 6.23314 152.684 6.08103 153.579 6.08103H154.625C154.804 6.08103 154.948 6.14367 155.055 6.26893C155.18 6.3763 155.243 6.51946 155.243 6.69841V7.79895C155.243 7.9779 155.18 8.12105 155.055 8.22842C154.948 8.33579 154.804 8.38948 154.625 8.38948H153.015C152.049 8.38948 151.288 8.6758 150.733 9.24843C150.179 9.80318 149.901 10.5637 149.901 11.53V19.4217C149.901 19.6006 149.839 19.7527 149.713 19.878C149.588 19.9854 149.436 20.0391 149.257 20.0391H147.942ZM162.842 20.3075C160.981 20.3075 159.505 19.7438 158.413 18.6164C157.322 17.4711 156.722 15.9143 156.615 13.9458C156.597 13.7132 156.588 13.4179 156.588 13.06C156.588 12.6843 156.597 12.38 156.615 12.1474C156.686 10.8769 156.982 9.76739 157.501 8.81896C158.02 7.85263 158.726 7.10999 159.621 6.59104C160.534 6.07209 161.599 5.81261 162.815 5.81261C164.175 5.81261 165.312 6.09893 166.224 6.67157C167.155 7.2442 167.862 8.05842 168.345 9.11422C168.828 10.17 169.07 11.4048 169.07 12.8185V13.2748C169.07 13.4716 169.007 13.6237 168.882 13.7311C168.774 13.8385 168.631 13.8922 168.452 13.8922H159.165C159.165 13.9101 159.165 13.9458 159.165 13.9995C159.165 14.0532 159.165 14.098 159.165 14.1337C159.201 14.8674 159.362 15.5564 159.648 16.2006C159.934 16.8269 160.346 17.3369 160.883 17.7306C161.438 18.1243 162.082 18.3212 162.815 18.3212C163.46 18.3212 163.997 18.2227 164.426 18.0259C164.855 17.829 165.204 17.6143 165.473 17.3817C165.741 17.1311 165.92 16.9343 166.01 16.7911C166.171 16.5764 166.296 16.4511 166.385 16.4153C166.475 16.3617 166.618 16.3348 166.815 16.3348H168.13C168.291 16.3348 168.426 16.3885 168.533 16.4959C168.658 16.5853 168.712 16.7196 168.694 16.8985C168.676 17.1669 168.533 17.498 168.264 17.8917C167.996 18.2675 167.611 18.6433 167.11 19.0191C166.627 19.3948 166.019 19.708 165.285 19.9585C164.569 20.1912 163.755 20.3075 162.842 20.3075ZM159.165 12.04H166.52V11.9595C166.52 11.1542 166.368 10.4384 166.063 9.81212C165.777 9.1858 165.357 8.69369 164.802 8.33579C164.247 7.96 163.585 7.7721 162.815 7.7721C162.046 7.7721 161.384 7.96 160.829 8.33579C160.292 8.69369 159.881 9.1858 159.594 9.81212C159.308 10.4384 159.165 11.1542 159.165 11.9595V12.04ZM177.238 20.0391C177.095 20.0391 176.97 19.9854 176.863 19.878C176.755 19.7706 176.702 19.6454 176.702 19.5022C176.702 19.4127 176.711 19.3143 176.728 19.2069L183.385 1.83994C183.457 1.66099 183.555 1.51783 183.681 1.41046C183.806 1.30309 183.994 1.24941 184.244 1.24941H186.07C186.32 1.24941 186.508 1.30309 186.633 1.41046C186.758 1.51783 186.857 1.66099 186.928 1.83994L193.559 19.2069C193.594 19.3143 193.612 19.4127 193.612 19.5022C193.612 19.6454 193.559 19.7706 193.451 19.878C193.344 19.9854 193.219 20.0391 193.075 20.0391H191.706C191.492 20.0391 191.331 19.9854 191.223 19.878C191.134 19.7706 191.071 19.6722 191.035 19.5827L189.559 15.7711H180.755L179.278 19.5827C179.261 19.6722 179.198 19.7706 179.091 19.878C178.983 19.9854 178.822 20.0391 178.607 20.0391H177.238ZM181.533 13.4627H188.781L185.157 3.93365L181.533 13.4627ZM201.157 20.3075C200.012 20.3075 199.037 20.057 198.231 19.5559C197.444 19.0369 196.845 18.3212 196.433 17.4085C196.021 16.4959 195.816 15.449 195.816 14.268V6.69841C195.816 6.51946 195.869 6.3763 195.977 6.26893C196.102 6.14367 196.254 6.08103 196.433 6.08103H197.775C197.954 6.08103 198.097 6.14367 198.205 6.26893C198.33 6.3763 198.392 6.51946 198.392 6.69841V14.1337C198.392 16.8001 199.556 18.1333 201.882 18.1333C202.991 18.1333 203.877 17.7843 204.539 17.0864C205.219 16.3706 205.559 15.3864 205.559 14.1337V6.69841C205.559 6.51946 205.613 6.3763 205.72 6.26893C205.846 6.14367 205.998 6.08103 206.177 6.08103H207.519C207.698 6.08103 207.841 6.14367 207.948 6.26893C208.056 6.3763 208.109 6.51946 208.109 6.69841V19.4217C208.109 19.6006 208.056 19.7527 207.948 19.878C207.841 19.9854 207.698 20.0391 207.519 20.0391H206.257C206.078 20.0391 205.926 19.9854 205.801 19.878C205.694 19.7527 205.64 19.6006 205.64 19.4217V18.2406C205.157 18.8669 204.566 19.368 203.868 19.7438C203.188 20.1196 202.285 20.3075 201.157 20.3075ZM217.546 20.0391C216.544 20.0391 215.73 19.8512 215.104 19.4754C214.477 19.0817 214.021 18.5359 213.735 17.838C213.448 17.1222 213.305 16.2811 213.305 15.3148V8.22842H211.211C211.032 8.22842 210.88 8.17474 210.755 8.06737C210.648 7.94211 210.594 7.79 210.594 7.61105V6.69841C210.594 6.51946 210.648 6.3763 210.755 6.26893C210.88 6.14367 211.032 6.08103 211.211 6.08103H213.305V1.59836C213.305 1.41941 213.359 1.27625 213.466 1.16888C213.591 1.04362 213.744 0.980986 213.922 0.980986H215.184C215.363 0.980986 215.506 1.04362 215.614 1.16888C215.739 1.27625 215.801 1.41941 215.801 1.59836V6.08103H219.13C219.327 6.08103 219.479 6.14367 219.586 6.26893C219.694 6.3763 219.747 6.51946 219.747 6.69841V7.61105C219.747 7.79 219.694 7.94211 219.586 8.06737C219.479 8.17474 219.327 8.22842 219.13 8.22842H215.801V15.1269C215.801 15.968 215.945 16.6301 216.231 17.1132C216.517 17.5964 217.027 17.838 217.761 17.838H219.398C219.577 17.838 219.72 17.9006 219.828 18.0259C219.953 18.1333 220.016 18.2764 220.016 18.4554V19.4217C220.016 19.6006 219.953 19.7527 219.828 19.878C219.72 19.9854 219.577 20.0391 219.398 20.0391H217.546ZM223.227 20.0391C223.048 20.0391 222.896 19.9854 222.77 19.878C222.663 19.7527 222.609 19.6006 222.609 19.4217V1.59836C222.609 1.41941 222.663 1.27625 222.77 1.16888C222.896 1.04362 223.048 0.980986 223.227 0.980986H224.569C224.766 0.980986 224.918 1.04362 225.025 1.16888C225.133 1.27625 225.186 1.41941 225.186 1.59836V7.85263C225.669 7.2442 226.26 6.75209 226.958 6.3763C227.656 6.00051 228.541 5.81261 229.615 5.81261C230.778 5.81261 231.763 6.07209 232.568 6.59104C233.391 7.0921 234.008 7.79895 234.42 8.71159C234.849 9.60633 235.064 10.6532 235.064 11.8521V19.4217C235.064 19.6006 235.011 19.7527 234.903 19.878C234.796 19.9854 234.644 20.0391 234.447 20.0391H233.105C232.926 20.0391 232.774 19.9854 232.648 19.878C232.541 19.7527 232.487 19.6006 232.487 19.4217V11.9864C232.487 10.7337 232.183 9.75844 231.575 9.06054C230.966 8.34474 230.072 7.98684 228.89 7.98684C227.781 7.98684 226.886 8.34474 226.206 9.06054C225.526 9.75844 225.186 10.7337 225.186 11.9864V19.4217C225.186 19.6006 225.133 19.7527 225.025 19.878C224.918 19.9854 224.766 20.0391 224.569 20.0391H223.227ZM244.657 20.3075C243.297 20.3075 242.161 20.048 241.248 19.5291C240.335 19.0101 239.637 18.2943 239.154 17.3817C238.671 16.4511 238.403 15.3953 238.349 14.2143C238.331 13.9101 238.322 13.5253 238.322 13.06C238.322 12.5769 238.331 12.1921 238.349 11.9058C238.403 10.7069 238.671 9.65107 239.154 8.73843C239.655 7.82579 240.362 7.10999 241.275 6.59104C242.187 6.07209 243.315 5.81261 244.657 5.81261C245.999 5.81261 247.126 6.07209 248.039 6.59104C248.952 7.10999 249.65 7.82579 250.133 8.73843C250.634 9.65107 250.911 10.7069 250.965 11.9058C250.983 12.1921 250.992 12.5769 250.992 13.06C250.992 13.5253 250.983 13.9101 250.965 14.2143C250.911 15.3953 250.643 16.4511 250.16 17.3817C249.676 18.2943 248.979 19.0101 248.066 19.5291C247.153 20.048 246.017 20.3075 244.657 20.3075ZM244.657 18.2406C245.766 18.2406 246.652 17.8917 247.314 17.1938C247.976 16.478 248.334 15.4401 248.388 14.0801C248.406 13.8116 248.415 13.4716 248.415 13.06C248.415 12.6485 248.406 12.3085 248.388 12.04C248.334 10.68 247.976 9.65107 247.314 8.95317C246.652 8.23737 245.766 7.87947 244.657 7.87947C243.547 7.87947 242.653 8.23737 241.973 8.95317C241.311 9.65107 240.962 10.68 240.926 12.04C240.908 12.3085 240.899 12.6485 240.899 13.06C240.899 13.4716 240.908 13.8116 240.926 14.0801C240.962 15.4401 241.311 16.478 241.973 17.1938C242.653 17.8917 243.547 18.2406 244.657 18.2406ZM254.97 20.0391C254.791 20.0391 254.639 19.9854 254.514 19.878C254.407 19.7527 254.353 19.6006 254.353 19.4217V6.72525C254.353 6.5463 254.407 6.3942 254.514 6.26893C254.639 6.14367 254.791 6.08103 254.97 6.08103H256.205C256.384 6.08103 256.536 6.14367 256.661 6.26893C256.787 6.3942 256.849 6.5463 256.849 6.72525V7.90632C257.207 7.29789 257.699 6.84157 258.326 6.53736C258.952 6.23314 259.712 6.08103 260.607 6.08103H261.654C261.833 6.08103 261.976 6.14367 262.084 6.26893C262.209 6.3763 262.271 6.51946 262.271 6.69841V7.79895C262.271 7.9779 262.209 8.12105 262.084 8.22842C261.976 8.33579 261.833 8.38948 261.654 8.38948H260.044C259.077 8.38948 258.317 8.6758 257.762 9.24843C257.207 9.80318 256.93 10.5637 256.93 11.53V19.4217C256.93 19.6006 256.867 19.7527 256.742 19.878C256.617 19.9854 256.465 20.0391 256.286 20.0391H254.97ZM265.167 20.0391C264.988 20.0391 264.836 19.9854 264.711 19.878C264.604 19.7527 264.55 19.6006 264.55 19.4217V6.69841C264.55 6.51946 264.604 6.3763 264.711 6.26893C264.836 6.14367 264.988 6.08103 265.167 6.08103H266.456C266.635 6.08103 266.778 6.14367 266.885 6.26893C267.01 6.3763 267.073 6.51946 267.073 6.69841V19.4217C267.073 19.6006 267.01 19.7527 266.885 19.878C266.778 19.9854 266.635 20.0391 266.456 20.0391H265.167ZM264.953 3.47733C264.774 3.47733 264.621 3.42364 264.496 3.31627C264.389 3.19101 264.335 3.0389 264.335 2.85995V1.41046C264.335 1.23151 264.389 1.07941 264.496 0.954144C264.621 0.828879 264.774 0.766247 264.953 0.766247H266.644C266.823 0.766247 266.975 0.828879 267.1 0.954144C267.225 1.07941 267.288 1.23151 267.288 1.41046V2.85995C267.288 3.0389 267.225 3.19101 267.1 3.31627C266.975 3.42364 266.823 3.47733 266.644 3.47733H264.953ZM271.668 20.0391C271.489 20.0391 271.337 19.9854 271.212 19.878C271.104 19.7527 271.051 19.6006 271.051 19.4217V6.69841C271.051 6.51946 271.104 6.3763 271.212 6.26893C271.337 6.14367 271.489 6.08103 271.668 6.08103H272.93C273.109 6.08103 273.252 6.14367 273.359 6.26893C273.484 6.3763 273.547 6.51946 273.547 6.69841V7.87947C274.012 7.27105 274.594 6.77894 275.292 6.40314C276.008 6.00946 276.92 5.81261 278.03 5.81261C279.193 5.81261 280.177 6.07209 280.982 6.59104C281.806 7.0921 282.423 7.79895 282.835 8.71159C283.264 9.60633 283.479 10.6532 283.479 11.8521V19.4217C283.479 19.6006 283.416 19.7527 283.291 19.878C283.184 19.9854 283.04 20.0391 282.861 20.0391H281.519C281.34 20.0391 281.188 19.9854 281.063 19.878C280.956 19.7527 280.902 19.6006 280.902 19.4217V11.9864C280.902 10.7337 280.598 9.75844 279.989 9.06054C279.381 8.34474 278.486 7.98684 277.305 7.98684C276.196 7.98684 275.301 8.34474 274.621 9.06054C273.959 9.75844 273.628 10.7337 273.628 11.9864V19.4217C273.628 19.6006 273.565 19.7527 273.44 19.878C273.332 19.9854 273.189 20.0391 273.01 20.0391H271.668ZM293.047 25.9444C291.83 25.9444 290.828 25.7833 290.04 25.4612C289.271 25.1391 288.662 24.7454 288.215 24.2802C287.786 23.8328 287.472 23.3765 287.276 22.9112C287.097 22.4638 286.998 22.1059 286.98 21.8375C286.962 21.6586 287.016 21.5064 287.141 21.3812C287.284 21.2559 287.437 21.1933 287.598 21.1933H288.886C289.047 21.1933 289.181 21.2291 289.289 21.3007C289.396 21.3722 289.486 21.5243 289.557 21.757C289.664 22.0254 289.826 22.3207 290.04 22.6428C290.255 22.9828 290.586 23.2691 291.033 23.5017C291.481 23.7523 292.107 23.8775 292.912 23.8775C293.753 23.8775 294.46 23.7612 295.033 23.5286C295.606 23.2959 296.035 22.9022 296.321 22.3475C296.626 21.7928 296.778 21.0233 296.778 20.0391V18.2138C296.348 18.7685 295.785 19.2338 295.087 19.6096C294.389 19.9675 293.512 20.1464 292.456 20.1464C291.454 20.1464 290.595 19.9764 289.879 19.6364C289.163 19.2785 288.573 18.8043 288.108 18.2138C287.66 17.6054 287.32 16.9164 287.088 16.1469C286.873 15.3774 286.748 14.5722 286.712 13.7311C286.694 13.2301 286.694 12.7379 286.712 12.2548C286.748 11.4137 286.873 10.6084 287.088 9.83897C287.32 9.06948 287.66 8.38053 288.108 7.7721C288.573 7.16368 289.163 6.68946 289.879 6.34946C290.595 5.99156 291.454 5.81261 292.456 5.81261C293.53 5.81261 294.416 6.00946 295.113 6.40314C295.829 6.79683 296.411 7.28894 296.858 7.87947V6.72525C296.858 6.5463 296.912 6.3942 297.019 6.26893C297.145 6.14367 297.297 6.08103 297.476 6.08103H298.71C298.889 6.08103 299.041 6.14367 299.167 6.26893C299.292 6.3942 299.355 6.5463 299.355 6.72525V19.7438C299.355 20.9428 299.149 22.0075 298.737 22.938C298.344 23.8686 297.681 24.6023 296.751 25.1391C295.838 25.676 294.603 25.9444 293.047 25.9444ZM292.993 17.999C293.888 17.999 294.603 17.7933 295.14 17.3817C295.695 16.9701 296.098 16.4511 296.348 15.8248C296.617 15.1985 296.76 14.5632 296.778 13.919C296.796 13.6685 296.805 13.3643 296.805 13.0064C296.805 12.6306 296.796 12.3174 296.778 12.0669C296.76 11.4227 296.617 10.7874 296.348 10.1611C296.098 9.53475 295.695 9.0158 295.14 8.60422C294.603 8.19263 293.888 7.98684 292.993 7.98684C292.098 7.98684 291.382 8.19263 290.846 8.60422C290.309 8.9979 289.924 9.5258 289.691 10.1879C289.459 10.8321 289.324 11.53 289.289 12.2816C289.271 12.7469 289.271 13.2211 289.289 13.7043C289.324 14.4559 289.459 15.1627 289.691 15.8248C289.924 16.469 290.309 16.9969 290.846 17.4085C291.382 17.8022 292.098 17.999 292.993 17.999Z" fill="#003366"/>
<path d="M66.9519 36.668C66.8861 36.668 66.8302 36.6449 66.7841 36.5989C66.7381 36.5528 66.7151 36.4969 66.7151 36.4311V30.0067C66.7151 29.9344 66.7381 29.8751 66.7841 29.8291C66.8302 29.783 66.8861 29.76 66.9519 29.76H69.3598C70.0243 29.76 70.5704 29.862 70.998 30.0659C71.4322 30.2699 71.7579 30.5725 71.975 30.9738C72.1987 31.3752 72.3138 31.8653 72.3204 32.4442C72.3335 32.7337 72.3401 32.9903 72.3401 33.214C72.3401 33.4377 72.3335 33.691 72.3204 33.9739C72.3072 34.5857 72.1954 35.0923 71.9848 35.4936C71.7743 35.8884 71.4552 36.1844 71.0276 36.3818C70.6065 36.5726 70.0671 36.668 69.4092 36.668H66.9519ZM68.0868 35.5331H69.3598C69.7282 35.5331 70.0276 35.4805 70.2579 35.3752C70.4881 35.2699 70.6559 35.1022 70.7611 34.8719C70.873 34.6351 70.9322 34.3258 70.9388 33.9443C70.9454 33.7469 70.9486 33.5758 70.9486 33.4311C70.9552 33.2798 70.9552 33.1318 70.9486 32.987C70.9486 32.8357 70.9454 32.6646 70.9388 32.4738C70.9256 31.9344 70.7908 31.5363 70.5342 31.2798C70.2776 31.0232 69.8697 30.8949 69.3105 30.8949H68.0868V35.5331ZM77.0486 36.668C76.9828 36.668 76.9269 36.6449 76.8809 36.5989C76.8348 36.5528 76.8118 36.4969 76.8118 36.4311V30.0067C76.8118 29.9344 76.8348 29.8751 76.8809 29.8291C76.9269 29.783 76.9828 29.76 77.0486 29.76H81.3908C81.4631 29.76 81.5224 29.783 81.5684 29.8291C81.6145 29.8751 81.6375 29.9344 81.6375 30.0067V30.658C81.6375 30.7238 81.6145 30.7798 81.5684 30.8258C81.5224 30.8719 81.4631 30.8949 81.3908 30.8949H78.144V32.6416H81.1737C81.246 32.6416 81.3052 32.6646 81.3513 32.7107C81.3974 32.7502 81.4204 32.8061 81.4204 32.8785V33.4903C81.4204 33.5627 81.3974 33.6219 81.3513 33.6679C81.3052 33.7074 81.246 33.7272 81.1737 33.7272H78.144V35.5331H81.4697C81.5421 35.5331 81.6013 35.5561 81.6474 35.6022C81.6934 35.6482 81.7164 35.7074 81.7164 35.7798V36.4311C81.7164 36.4969 81.6934 36.5528 81.6474 36.5989C81.6013 36.6449 81.5421 36.668 81.4697 36.668H77.0486ZM88.064 36.668C87.9587 36.668 87.8765 36.6417 87.8173 36.589C87.758 36.5364 87.7153 36.4706 87.689 36.3917L85.5771 30.0561C85.5639 30.0232 85.5574 29.9936 85.5574 29.9672C85.5574 29.908 85.5771 29.8587 85.6166 29.8192C85.6561 29.7797 85.7054 29.76 85.7646 29.76H86.633C86.7251 29.76 86.7942 29.7863 86.8403 29.839C86.8929 29.885 86.9258 29.9311 86.939 29.9771L88.6067 35.0594L90.2745 29.9771C90.2877 29.9311 90.3173 29.885 90.3633 29.839C90.416 29.7863 90.4883 29.76 90.5804 29.76H91.4489C91.5015 29.76 91.5476 29.7797 91.587 29.8192C91.6331 29.8587 91.6561 29.908 91.6561 29.9672C91.6561 29.9936 91.6495 30.0232 91.6364 30.0561L89.5245 36.3917C89.4982 36.4706 89.4554 36.5364 89.3962 36.589C89.337 36.6417 89.2548 36.668 89.1495 36.668H88.064ZM96.0952 36.668C96.0295 36.668 95.9735 36.6449 95.9275 36.5989C95.8814 36.5528 95.8584 36.4969 95.8584 36.4311V30.0067C95.8584 29.9344 95.8814 29.8751 95.9275 29.8291C95.9735 29.783 96.0295 29.76 96.0952 29.76H100.437C100.51 29.76 100.569 29.783 100.615 29.8291C100.661 29.8751 100.684 29.9344 100.684 30.0067V30.658C100.684 30.7238 100.661 30.7798 100.615 30.8258C100.569 30.8719 100.51 30.8949 100.437 30.8949H97.1907V32.6416H100.22C100.293 32.6416 100.352 32.6646 100.398 32.7107C100.444 32.7502 100.467 32.8061 100.467 32.8785V33.4903C100.467 33.5627 100.444 33.6219 100.398 33.6679C100.352 33.7074 100.293 33.7272 100.22 33.7272H97.1907V35.5331H100.516C100.589 35.5331 100.648 35.5561 100.694 35.6022C100.74 35.6482 100.763 35.7074 100.763 35.7798V36.4311C100.763 36.4969 100.74 36.5528 100.694 36.5989C100.648 36.6449 100.589 36.668 100.516 36.668H96.0952ZM105.392 36.668C105.326 36.668 105.27 36.6449 105.224 36.5989C105.178 36.5528 105.155 36.4969 105.155 36.4311V29.9969C105.155 29.9311 105.178 29.8751 105.224 29.8291C105.27 29.783 105.326 29.76 105.392 29.76H106.31C106.376 29.76 106.432 29.783 106.478 29.8291C106.524 29.8751 106.547 29.9311 106.547 29.9969V35.4936H109.675C109.747 35.4936 109.807 35.5166 109.853 35.5627C109.899 35.6087 109.922 35.668 109.922 35.7403V36.4311C109.922 36.4969 109.899 36.5528 109.853 36.5989C109.807 36.6449 109.747 36.668 109.675 36.668H105.392ZM116.606 36.7667C116.02 36.7667 115.517 36.6713 115.096 36.4805C114.675 36.2831 114.346 35.9838 114.109 35.5824C113.872 35.1745 113.744 34.6679 113.724 34.0627C113.717 33.7798 113.714 33.5002 113.714 33.2239C113.714 32.9475 113.717 32.6646 113.724 32.3752C113.744 31.7765 113.875 31.2765 114.119 30.8752C114.362 30.4738 114.694 30.1712 115.115 29.9672C115.543 29.7633 116.04 29.6613 116.606 29.6613C117.171 29.6613 117.668 29.7633 118.096 29.9672C118.523 30.1712 118.859 30.4738 119.102 30.8752C119.346 31.2765 119.477 31.7765 119.497 32.3752C119.51 32.6646 119.517 32.9475 119.517 33.2239C119.517 33.5002 119.51 33.7798 119.497 34.0627C119.477 34.6679 119.349 35.1745 119.112 35.5824C118.875 35.9838 118.543 36.2831 118.115 36.4805C117.694 36.6713 117.191 36.7667 116.606 36.7667ZM116.606 35.6318C117.033 35.6318 117.382 35.5068 117.652 35.2568C117.921 35.0002 118.066 34.5857 118.086 34.0133C118.099 33.7239 118.106 33.4574 118.106 33.214C118.106 32.964 118.099 32.6975 118.086 32.4146C118.073 32.0331 118 31.7238 117.869 31.487C117.744 31.2436 117.573 31.0692 117.356 30.964C117.138 30.8521 116.888 30.7962 116.606 30.7962C116.329 30.7962 116.083 30.8521 115.865 30.964C115.648 31.0692 115.474 31.2436 115.342 31.487C115.217 31.7238 115.148 32.0331 115.135 32.4146C115.129 32.6975 115.125 32.964 115.125 33.214C115.125 33.4574 115.129 33.7239 115.135 34.0133C115.155 34.5857 115.3 35.0002 115.569 35.2568C115.839 35.5068 116.185 35.6318 116.606 35.6318ZM124.207 36.668C124.142 36.668 124.086 36.6449 124.04 36.5989C123.994 36.5528 123.971 36.4969 123.971 36.4311V30.0067C123.971 29.9344 123.994 29.8751 124.04 29.8291C124.086 29.783 124.142 29.76 124.207 29.76H126.852C127.365 29.76 127.813 29.8422 128.194 30.0067C128.576 30.1646 128.872 30.408 129.082 30.737C129.293 31.0594 129.398 31.464 129.398 31.9508C129.398 32.4442 129.293 32.8521 129.082 33.1745C128.872 33.4903 128.576 33.7272 128.194 33.885C127.813 34.0429 127.365 34.1219 126.852 34.1219H125.382V36.4311C125.382 36.4969 125.359 36.5528 125.313 36.5989C125.273 36.6449 125.217 36.668 125.145 36.668H124.207ZM125.362 33.0265H126.803C127.184 33.0265 127.477 32.9377 127.681 32.76C127.885 32.5758 127.987 32.3061 127.987 31.9508C127.987 31.6219 127.892 31.3587 127.701 31.1613C127.51 30.9574 127.211 30.8554 126.803 30.8554H125.362V33.0265ZM133.88 36.668C133.808 36.668 133.749 36.6449 133.703 36.5989C133.657 36.5528 133.634 36.4969 133.634 36.4311V30.0067C133.634 29.9344 133.657 29.8751 133.703 29.8291C133.749 29.783 133.808 29.76 133.88 29.76H134.66C134.752 29.76 134.821 29.7863 134.867 29.839C134.913 29.885 134.943 29.9212 134.956 29.9475L136.861 33.5002L138.785 29.9475C138.798 29.9212 138.828 29.885 138.874 29.839C138.92 29.7863 138.989 29.76 139.081 29.76H139.851C139.923 29.76 139.982 29.783 140.028 29.8291C140.074 29.8751 140.097 29.9344 140.097 30.0067V36.4311C140.097 36.4969 140.074 36.5528 140.028 36.5989C139.982 36.6449 139.923 36.668 139.851 36.668H139.022C138.949 36.668 138.89 36.6449 138.844 36.5989C138.805 36.5528 138.785 36.4969 138.785 36.4311V32.1581L137.403 34.793C137.37 34.8522 137.328 34.9048 137.275 34.9508C137.222 34.9903 137.153 35.0101 137.068 35.0101H136.663C136.571 35.0101 136.499 34.9903 136.446 34.9508C136.4 34.9048 136.361 34.8522 136.328 34.793L134.946 32.1581V36.4311C134.946 36.4969 134.923 36.5528 134.877 36.5989C134.831 36.6449 134.775 36.668 134.709 36.668H133.88ZM145.027 36.668C144.961 36.668 144.906 36.6449 144.86 36.5989C144.813 36.5528 144.79 36.4969 144.79 36.4311V30.0067C144.79 29.9344 144.813 29.8751 144.86 29.8291C144.906 29.783 144.961 29.76 145.027 29.76H149.369C149.442 29.76 149.501 29.783 149.547 29.8291C149.593 29.8751 149.616 29.9344 149.616 30.0067V30.658C149.616 30.7238 149.593 30.7798 149.547 30.8258C149.501 30.8719 149.442 30.8949 149.369 30.8949H146.123V32.6416H149.152C149.225 32.6416 149.284 32.6646 149.33 32.7107C149.376 32.7502 149.399 32.8061 149.399 32.8785V33.4903C149.399 33.5627 149.376 33.6219 149.33 33.6679C149.284 33.7074 149.225 33.7272 149.152 33.7272H146.123V35.5331H149.448C149.521 35.5331 149.58 35.5561 149.626 35.6022C149.672 35.6482 149.695 35.7074 149.695 35.7798V36.4311C149.695 36.4969 149.672 36.5528 149.626 36.5989C149.58 36.6449 149.521 36.668 149.448 36.668H145.027ZM154.324 36.668C154.258 36.668 154.202 36.6449 154.156 36.5989C154.11 36.5528 154.087 36.4969 154.087 36.4311V30.0067C154.087 29.9344 154.11 29.8751 154.156 29.8291C154.202 29.783 154.258 29.76 154.324 29.76H155.084C155.176 29.76 155.242 29.783 155.281 29.8291C155.327 29.8686 155.357 29.8982 155.37 29.9179L158.212 34.339V30.0067C158.212 29.9344 158.232 29.8751 158.272 29.8291C158.318 29.783 158.377 29.76 158.449 29.76H159.278C159.35 29.76 159.41 29.783 159.456 29.8291C159.502 29.8751 159.525 29.9344 159.525 30.0067V36.4213C159.525 36.4936 159.502 36.5528 159.456 36.5989C159.41 36.6449 159.354 36.668 159.288 36.668H158.518C158.426 36.668 158.36 36.6449 158.321 36.5989C158.281 36.5528 158.252 36.5232 158.232 36.5101L155.4 32.1877V36.4311C155.4 36.4969 155.377 36.5528 155.331 36.5989C155.285 36.6449 155.225 36.668 155.153 36.668H154.324ZM165.979 36.668C165.913 36.668 165.857 36.6449 165.811 36.5989C165.765 36.5528 165.742 36.4969 165.742 36.4311V30.9738H163.917C163.851 30.9738 163.795 30.9508 163.749 30.9048C163.703 30.8587 163.68 30.8028 163.68 30.737V30.0067C163.68 29.9344 163.703 29.8751 163.749 29.8291C163.795 29.783 163.851 29.76 163.917 29.76H168.95C169.022 29.76 169.081 29.783 169.127 29.8291C169.173 29.8751 169.196 29.9344 169.196 30.0067V30.737C169.196 30.8028 169.173 30.8587 169.127 30.9048C169.081 30.9508 169.022 30.9738 168.95 30.9738H167.134V36.4311C167.134 36.4969 167.111 36.5528 167.065 36.5989C167.019 36.6449 166.959 36.668 166.887 36.668H165.979ZM178.764 36.668C178.699 36.668 178.643 36.6449 178.597 36.5989C178.551 36.5528 178.528 36.4969 178.528 36.4311V29.9969C178.528 29.9311 178.551 29.8751 178.597 29.8291C178.643 29.783 178.699 29.76 178.764 29.76H179.692C179.764 29.76 179.82 29.783 179.86 29.8291C179.906 29.8751 179.929 29.9311 179.929 29.9969V36.4311C179.929 36.4969 179.906 36.5528 179.86 36.5989C179.82 36.6449 179.764 36.668 179.692 36.668H178.764ZM184.871 36.668C184.806 36.668 184.75 36.6449 184.704 36.5989C184.658 36.5528 184.635 36.4969 184.635 36.4311V30.0067C184.635 29.9344 184.658 29.8751 184.704 29.8291C184.75 29.783 184.806 29.76 184.871 29.76H185.631C185.723 29.76 185.789 29.783 185.829 29.8291C185.875 29.8686 185.904 29.8982 185.917 29.9179L188.76 34.339V30.0067C188.76 29.9344 188.779 29.8751 188.819 29.8291C188.865 29.783 188.924 29.76 188.996 29.76H189.825C189.898 29.76 189.957 29.783 190.003 29.8291C190.049 29.8751 190.072 29.9344 190.072 30.0067V36.4213C190.072 36.4936 190.049 36.5528 190.003 36.5989C189.957 36.6449 189.901 36.668 189.835 36.668H189.066C188.973 36.668 188.908 36.6449 188.868 36.5989C188.829 36.5528 188.799 36.5232 188.779 36.5101L185.947 32.1877V36.4311C185.947 36.4969 185.924 36.5528 185.878 36.5989C185.832 36.6449 185.773 36.668 185.7 36.668H184.871ZM196.526 36.668C196.461 36.668 196.405 36.6449 196.359 36.5989C196.313 36.5528 196.29 36.4969 196.29 36.4311V30.9738H194.464C194.398 30.9738 194.342 30.9508 194.296 30.9048C194.25 30.8587 194.227 30.8028 194.227 30.737V30.0067C194.227 29.9344 194.25 29.8751 194.296 29.8291C194.342 29.783 194.398 29.76 194.464 29.76H199.497C199.569 29.76 199.628 29.783 199.674 29.8291C199.721 29.8751 199.744 29.9344 199.744 30.0067V30.737C199.744 30.8028 199.721 30.8587 199.674 30.9048C199.628 30.9508 199.569 30.9738 199.497 30.9738H197.681V36.4311C197.681 36.4969 197.658 36.5528 197.612 36.5989C197.566 36.6449 197.507 36.668 197.434 36.668H196.526ZM204.14 36.668C204.074 36.668 204.018 36.6449 203.972 36.5989C203.926 36.5528 203.903 36.4969 203.903 36.4311V30.0067C203.903 29.9344 203.926 29.8751 203.972 29.8291C204.018 29.783 204.074 29.76 204.14 29.76H208.482C208.554 29.76 208.613 29.783 208.659 29.8291C208.706 29.8751 208.729 29.9344 208.729 30.0067V30.658C208.729 30.7238 208.706 30.7798 208.659 30.8258C208.613 30.8719 208.554 30.8949 208.482 30.8949H205.235V32.6416H208.265C208.337 32.6416 208.396 32.6646 208.442 32.7107C208.488 32.7502 208.511 32.8061 208.511 32.8785V33.4903C208.511 33.5627 208.488 33.6219 208.442 33.6679C208.396 33.7074 208.337 33.7272 208.265 33.7272H205.235V35.5331H208.561C208.633 35.5331 208.692 35.5561 208.738 35.6022C208.784 35.6482 208.807 35.7074 208.807 35.7798V36.4311C208.807 36.4969 208.784 36.5528 208.738 36.5989C208.692 36.6449 208.633 36.668 208.561 36.668H204.14ZM215.826 36.7667C215.221 36.7667 214.704 36.6614 214.277 36.4509C213.856 36.2403 213.527 35.9377 213.29 35.543C213.06 35.1416 212.935 34.6647 212.915 34.112C212.908 33.8291 212.905 33.5265 212.905 33.2041C212.905 32.8752 212.908 32.566 212.915 32.2765C212.935 31.7304 213.06 31.2633 213.29 30.8752C213.527 30.487 213.859 30.1876 214.287 29.9771C214.721 29.7666 215.234 29.6613 215.826 29.6613C216.306 29.6613 216.727 29.7271 217.089 29.8587C217.451 29.9837 217.75 30.1482 217.987 30.3521C218.231 30.5495 218.412 30.7633 218.53 30.9936C218.655 31.2238 218.721 31.4377 218.727 31.635C218.734 31.6942 218.718 31.7436 218.678 31.7831C218.639 31.8225 218.586 31.8423 218.52 31.8423H217.504C217.438 31.8423 217.389 31.8291 217.356 31.8028C217.323 31.7765 217.293 31.737 217.267 31.6844C217.214 31.5462 217.132 31.4113 217.02 31.2798C216.908 31.1416 216.757 31.0265 216.566 30.9344C216.375 30.8423 216.129 30.7962 215.826 30.7962C215.379 30.7962 215.02 30.9146 214.75 31.1515C214.487 31.3883 214.346 31.7798 214.326 32.3258C214.306 32.8982 214.306 33.4771 214.326 34.0627C214.346 34.6219 214.491 35.0232 214.76 35.2666C215.037 35.5101 215.398 35.6318 215.846 35.6318C216.142 35.6318 216.405 35.5791 216.635 35.4739C216.872 35.3686 217.056 35.2041 217.188 34.9805C217.326 34.7568 217.395 34.4706 217.395 34.1219V33.816H216.191C216.125 33.816 216.07 33.7929 216.023 33.7469C215.977 33.7008 215.954 33.6416 215.954 33.5693V33.0462C215.954 32.9739 215.977 32.9146 216.023 32.8686C216.07 32.8225 216.125 32.7995 216.191 32.7995H218.55C218.622 32.7995 218.678 32.8225 218.718 32.8686C218.764 32.9146 218.787 32.9739 218.787 33.0462V34.0824C218.787 34.6351 218.665 35.112 218.422 35.5134C218.185 35.9147 217.843 36.2239 217.395 36.441C216.954 36.6581 216.431 36.7667 215.826 36.7667ZM223.446 36.668C223.381 36.668 223.325 36.6449 223.279 36.5989C223.233 36.5528 223.21 36.4969 223.21 36.4311V30.0067C223.21 29.9344 223.233 29.8751 223.279 29.8291C223.325 29.783 223.381 29.76 223.446 29.76H226.002C226.799 29.76 227.427 29.9442 227.887 30.3126C228.348 30.6811 228.578 31.2173 228.578 31.9212C228.578 32.4081 228.456 32.8127 228.213 33.135C227.976 33.4574 227.657 33.691 227.256 33.8357L228.697 36.3522C228.716 36.3917 228.726 36.4278 228.726 36.4607C228.726 36.5199 228.703 36.5693 228.657 36.6088C228.618 36.6482 228.572 36.668 228.519 36.668H227.621C227.509 36.668 227.424 36.6384 227.364 36.5792C227.305 36.5199 227.259 36.4607 227.226 36.4015L225.953 34.0627H224.581V36.4311C224.581 36.4969 224.558 36.5528 224.512 36.5989C224.473 36.6449 224.417 36.668 224.345 36.668H223.446ZM224.581 32.9475H225.973C226.374 32.9475 226.674 32.8587 226.871 32.6811C227.068 32.4969 227.167 32.2403 227.167 31.9113C227.167 31.5824 227.068 31.3258 226.871 31.1416C226.68 30.9508 226.381 30.8554 225.973 30.8554H224.581V32.9475ZM232.583 36.668C232.531 36.668 232.481 36.6482 232.435 36.6088C232.396 36.5693 232.376 36.5199 232.376 36.4607C232.376 36.4344 232.383 36.4048 232.396 36.3719L234.774 30.0067C234.794 29.9409 234.83 29.885 234.883 29.839C234.942 29.7863 235.021 29.76 235.119 29.76H236.195C236.294 29.76 236.37 29.7863 236.422 29.839C236.475 29.885 236.514 29.9409 236.541 30.0067L238.919 36.3719C238.925 36.4048 238.929 36.4344 238.929 36.4607C238.929 36.5199 238.909 36.5693 238.87 36.6088C238.83 36.6482 238.784 36.668 238.731 36.668H237.873C237.781 36.668 237.712 36.6482 237.666 36.6088C237.626 36.5627 237.6 36.5199 237.587 36.4805L237.123 35.2765H234.192L233.728 36.4805C233.715 36.5199 233.685 36.5627 233.639 36.6088C233.6 36.6482 233.534 36.668 233.442 36.668H232.583ZM234.537 34.1416H236.777L235.652 31.0923L234.537 34.1416ZM244.042 36.668C243.976 36.668 243.92 36.6449 243.874 36.5989C243.828 36.5528 243.805 36.4969 243.805 36.4311V30.9738H241.979C241.913 30.9738 241.858 30.9508 241.811 30.9048C241.765 30.8587 241.742 30.8028 241.742 30.737V30.0067C241.742 29.9344 241.765 29.8751 241.811 29.8291C241.858 29.783 241.913 29.76 241.979 29.76H247.012C247.085 29.76 247.144 29.783 247.19 29.8291C247.236 29.8751 247.259 29.9344 247.259 30.0067V30.737C247.259 30.8028 247.236 30.8587 247.19 30.9048C247.144 30.9508 247.085 30.9738 247.012 30.9738H245.196V36.4311C245.196 36.4969 245.173 36.5528 245.127 36.5989C245.081 36.6449 245.022 36.668 244.95 36.668H244.042ZM251.655 36.668C251.589 36.668 251.533 36.6449 251.487 36.5989C251.441 36.5528 251.418 36.4969 251.418 36.4311V30.0067C251.418 29.9344 251.441 29.8751 251.487 29.8291C251.533 29.783 251.589 29.76 251.655 29.76H255.997C256.07 29.76 256.129 29.783 256.175 29.8291C256.221 29.8751 256.244 29.9344 256.244 30.0067V30.658C256.244 30.7238 256.221 30.7798 256.175 30.8258C256.129 30.8719 256.07 30.8949 255.997 30.8949H252.75V32.6416H255.78C255.852 32.6416 255.912 32.6646 255.958 32.7107C256.004 32.7502 256.027 32.8061 256.027 32.8785V33.4903C256.027 33.5627 256.004 33.6219 255.958 33.6679C255.912 33.7074 255.852 33.7272 255.78 33.7272H252.75V35.5331H256.076C256.149 35.5331 256.208 35.5561 256.254 35.6022C256.3 35.6482 256.323 35.7074 256.323 35.7798V36.4311C256.323 36.4969 256.3 36.5528 256.254 36.5989C256.208 36.6449 256.149 36.668 256.076 36.668H251.655ZM260.952 36.668C260.886 36.668 260.83 36.6449 260.784 36.5989C260.738 36.5528 260.715 36.4969 260.715 36.4311V30.0067C260.715 29.9344 260.738 29.8751 260.784 29.8291C260.83 29.783 260.886 29.76 260.952 29.76H263.36C264.024 29.76 264.57 29.862 264.998 30.0659C265.432 30.2699 265.758 30.5725 265.975 30.9738C266.199 31.3752 266.314 31.8653 266.32 32.4442C266.334 32.7337 266.34 32.9903 266.34 33.214C266.34 33.4377 266.334 33.691 266.32 33.9739C266.307 34.5857 266.195 35.0923 265.985 35.4936C265.774 35.8884 265.455 36.1844 265.028 36.3818C264.607 36.5726 264.067 36.668 263.409 36.668H260.952ZM262.087 35.5331H263.36C263.728 35.5331 264.028 35.4805 264.258 35.3752C264.488 35.2699 264.656 35.1022 264.761 34.8719C264.873 34.6351 264.932 34.3258 264.939 33.9443C264.945 33.7469 264.949 33.5758 264.949 33.4311C264.955 33.2798 264.955 33.1318 264.949 32.987C264.949 32.8357 264.945 32.6646 264.939 32.4738C264.926 31.9344 264.791 31.5363 264.534 31.2798C264.278 31.0232 263.87 30.8949 263.31 30.8949H262.087V35.5331ZM276.462 36.668C276.396 36.668 276.34 36.6449 276.294 36.5989C276.248 36.5528 276.225 36.4969 276.225 36.4311V30.0067C276.225 29.9344 276.248 29.8751 276.294 29.8291C276.34 29.783 276.396 29.76 276.462 29.76H280.804C280.876 29.76 280.935 29.783 280.981 29.8291C281.027 29.8751 281.05 29.9344 281.05 30.0067V30.658C281.05 30.7238 281.027 30.7798 280.981 30.8258C280.935 30.8719 280.876 30.8949 280.804 30.8949H277.557V32.6416H280.587C280.659 32.6416 280.718 32.6646 280.764 32.7107C280.81 32.7502 280.833 32.8061 280.833 32.8785V33.4903C280.833 33.5627 280.81 33.6219 280.764 33.6679C280.718 33.7074 280.659 33.7272 280.587 33.7272H277.557V35.5331H280.883C280.955 35.5331 281.014 35.5561 281.06 35.6022C281.106 35.6482 281.129 35.7074 281.129 35.7798V36.4311C281.129 36.4969 281.106 36.5528 281.06 36.5989C281.014 36.6449 280.955 36.668 280.883 36.668H276.462ZM285.758 36.668C285.693 36.668 285.637 36.6449 285.591 36.5989C285.545 36.5528 285.522 36.4969 285.522 36.4311V30.0067C285.522 29.9344 285.545 29.8751 285.591 29.8291C285.637 29.783 285.693 29.76 285.758 29.76H286.518C286.61 29.76 286.676 29.783 286.716 29.8291C286.762 29.8686 286.791 29.8982 286.805 29.9179L289.647 34.339V30.0067C289.647 29.9344 289.666 29.8751 289.706 29.8291C289.752 29.783 289.811 29.76 289.884 29.76H290.712C290.785 29.76 290.844 29.783 290.89 29.8291C290.936 29.8751 290.959 29.9344 290.959 30.0067V36.4213C290.959 36.4936 290.936 36.5528 290.89 36.5989C290.844 36.6449 290.788 36.668 290.722 36.668H289.953C289.86 36.668 289.795 36.6449 289.755 36.5989C289.716 36.5528 289.686 36.5232 289.666 36.5101L286.834 32.1877V36.4311C286.834 36.4969 286.811 36.5528 286.765 36.5989C286.719 36.6449 286.66 36.668 286.587 36.668H285.758ZM297.67 36.668C297.565 36.668 297.483 36.6417 297.423 36.589C297.364 36.5364 297.321 36.4706 297.295 36.3917L295.183 30.0561C295.17 30.0232 295.163 29.9936 295.163 29.9672C295.163 29.908 295.183 29.8587 295.223 29.8192C295.262 29.7797 295.311 29.76 295.371 29.76H296.239C296.331 29.76 296.4 29.7863 296.446 29.839C296.499 29.885 296.532 29.9311 296.545 29.9771L298.213 35.0594L299.881 29.9771C299.894 29.9311 299.923 29.885 299.969 29.839C300.022 29.7863 300.094 29.76 300.187 29.76H301.055C301.108 29.76 301.154 29.7797 301.193 29.8192C301.239 29.8587 301.262 29.908 301.262 29.9672C301.262 29.9936 301.256 30.0232 301.242 30.0561L299.131 36.3917C299.104 36.4706 299.062 36.5364 299.002 36.589C298.943 36.6417 298.861 36.668 298.756 36.668H297.67ZM305.701 36.668C305.636 36.668 305.58 36.6449 305.534 36.5989C305.488 36.5528 305.465 36.4969 305.465 36.4311V29.9969C305.465 29.9311 305.488 29.8751 305.534 29.8291C305.58 29.783 305.636 29.76 305.701 29.76H306.629C306.701 29.76 306.757 29.783 306.797 29.8291C306.843 29.8751 306.866 29.9311 306.866 29.9969V36.4311C306.866 36.4969 306.843 36.5528 306.797 36.5989C306.757 36.6449 306.701 36.668 306.629 36.668H305.701ZM311.808 36.668C311.742 36.668 311.687 36.6449 311.64 36.5989C311.594 36.5528 311.571 36.4969 311.571 36.4311V30.0067C311.571 29.9344 311.594 29.8751 311.64 29.8291C311.687 29.783 311.742 29.76 311.808 29.76H314.364C315.16 29.76 315.789 29.9442 316.249 30.3126C316.71 30.6811 316.94 31.2173 316.94 31.9212C316.94 32.4081 316.818 32.8127 316.575 33.135C316.338 33.4574 316.019 33.691 315.618 33.8357L317.058 36.3522C317.078 36.3917 317.088 36.4278 317.088 36.4607C317.088 36.5199 317.065 36.5693 317.019 36.6088C316.979 36.6482 316.933 36.668 316.881 36.668H315.983C315.871 36.668 315.785 36.6384 315.726 36.5792C315.667 36.5199 315.621 36.4607 315.588 36.4015L314.315 34.0627H312.943V36.4311C312.943 36.4969 312.92 36.5528 312.874 36.5989C312.835 36.6449 312.779 36.668 312.706 36.668H311.808ZM312.943 32.9475H314.335C314.736 32.9475 315.035 32.8587 315.233 32.6811C315.43 32.4969 315.529 32.2403 315.529 31.9113C315.529 31.5824 315.43 31.3258 315.233 31.1416C315.042 30.9508 314.742 30.8554 314.335 30.8554H312.943V32.9475ZM324.005 36.7667C323.419 36.7667 322.916 36.6713 322.495 36.4805C322.074 36.2831 321.745 35.9838 321.508 35.5824C321.271 35.1745 321.143 34.6679 321.123 34.0627C321.117 33.7798 321.113 33.5002 321.113 33.2239C321.113 32.9475 321.117 32.6646 321.123 32.3752C321.143 31.7765 321.274 31.2765 321.518 30.8752C321.761 30.4738 322.094 30.1712 322.515 29.9672C322.942 29.7633 323.439 29.6613 324.005 29.6613C324.571 29.6613 325.067 29.7633 325.495 29.9672C325.923 30.1712 326.258 30.4738 326.501 30.8752C326.745 31.2765 326.876 31.7765 326.896 32.3752C326.909 32.6646 326.916 32.9475 326.916 33.2239C326.916 33.5002 326.909 33.7798 326.896 34.0627C326.876 34.6679 326.748 35.1745 326.511 35.5824C326.275 35.9838 325.942 36.2831 325.515 36.4805C325.094 36.6713 324.59 36.7667 324.005 36.7667ZM324.005 35.6318C324.432 35.6318 324.781 35.5068 325.051 35.2568C325.321 35.0002 325.465 34.5857 325.485 34.0133C325.498 33.7239 325.505 33.4574 325.505 33.214C325.505 32.964 325.498 32.6975 325.485 32.4146C325.472 32.0331 325.399 31.7238 325.268 31.487C325.143 31.2436 324.972 31.0692 324.755 30.964C324.538 30.8521 324.288 30.7962 324.005 30.7962C323.728 30.7962 323.482 30.8521 323.265 30.964C323.047 31.0692 322.873 31.2436 322.742 31.487C322.617 31.7238 322.547 32.0331 322.534 32.4146C322.528 32.6975 322.524 32.964 322.524 33.214C322.524 33.4574 322.528 33.7239 322.534 34.0133C322.554 34.5857 322.699 35.0002 322.969 35.2568C323.238 35.5068 323.584 35.6318 324.005 35.6318ZM331.607 36.668C331.541 36.668 331.485 36.6449 331.439 36.5989C331.393 36.5528 331.37 36.4969 331.37 36.4311V30.0067C331.37 29.9344 331.393 29.8751 331.439 29.8291C331.485 29.783 331.541 29.76 331.607 29.76H332.366C332.459 29.76 332.524 29.783 332.564 29.8291C332.61 29.8686 332.639 29.8982 332.653 29.9179L335.495 34.339V30.0067C335.495 29.9344 335.515 29.8751 335.554 29.8291C335.6 29.783 335.659 29.76 335.732 29.76H336.561C336.633 29.76 336.692 29.783 336.738 29.8291C336.784 29.8751 336.807 29.9344 336.807 30.0067V36.4213C336.807 36.4936 336.784 36.5528 336.738 36.5989C336.692 36.6449 336.636 36.668 336.57 36.668H335.801C335.709 36.668 335.643 36.6449 335.603 36.5989C335.564 36.5528 335.534 36.5232 335.515 36.5101L332.682 32.1877V36.4311C332.682 36.4969 332.659 36.5528 332.613 36.5989C332.567 36.6449 332.508 36.668 332.436 36.668H331.607ZM341.752 36.668C341.679 36.668 341.62 36.6449 341.574 36.5989C341.528 36.5528 341.505 36.4969 341.505 36.4311V30.0067C341.505 29.9344 341.528 29.8751 341.574 29.8291C341.62 29.783 341.679 29.76 341.752 29.76H342.531C342.623 29.76 342.693 29.7863 342.739 29.839C342.785 29.885 342.814 29.9212 342.827 29.9475L344.732 33.5002L346.656 29.9475C346.67 29.9212 346.699 29.885 346.745 29.839C346.791 29.7863 346.86 29.76 346.952 29.76H347.722C347.795 29.76 347.854 29.783 347.9 29.8291C347.946 29.8751 347.969 29.9344 347.969 30.0067V36.4311C347.969 36.4969 347.946 36.5528 347.9 36.5989C347.854 36.6449 347.795 36.668 347.722 36.668H346.893C346.821 36.668 346.762 36.6449 346.716 36.5989C346.676 36.5528 346.656 36.4969 346.656 36.4311V32.1581L345.275 34.793C345.242 34.8522 345.199 34.9048 345.146 34.9508C345.094 34.9903 345.025 35.0101 344.939 35.0101H344.535C344.443 35.0101 344.37 34.9903 344.318 34.9508C344.271 34.9048 344.232 34.8522 344.199 34.793L342.818 32.1581V36.4311C342.818 36.4969 342.794 36.5528 342.748 36.5989C342.702 36.6449 342.646 36.668 342.581 36.668H341.752ZM352.899 36.668C352.833 36.668 352.777 36.6449 352.731 36.5989C352.685 36.5528 352.662 36.4969 352.662 36.4311V30.0067C352.662 29.9344 352.685 29.8751 352.731 29.8291C352.777 29.783 352.833 29.76 352.899 29.76H357.241C357.313 29.76 357.372 29.783 357.418 29.8291C357.465 29.8751 357.488 29.9344 357.488 30.0067V30.658C357.488 30.7238 357.465 30.7798 357.418 30.8258C357.372 30.8719 357.313 30.8949 357.241 30.8949H353.994V32.6416H357.024C357.096 32.6416 357.155 32.6646 357.201 32.7107C357.247 32.7502 357.27 32.8061 357.27 32.8785V33.4903C357.27 33.5627 357.247 33.6219 357.201 33.6679C357.155 33.7074 357.096 33.7272 357.024 33.7272H353.994V35.5331H357.32C357.392 35.5331 357.451 35.5561 357.497 35.6022C357.543 35.6482 357.566 35.7074 357.566 35.7798V36.4311C357.566 36.4969 357.543 36.5528 357.497 36.5989C357.451 36.6449 357.392 36.668 357.32 36.668H352.899ZM362.196 36.668C362.13 36.668 362.074 36.6449 362.028 36.5989C361.982 36.5528 361.959 36.4969 361.959 36.4311V30.0067C361.959 29.9344 361.982 29.8751 362.028 29.8291C362.074 29.783 362.13 29.76 362.196 29.76H362.955C363.048 29.76 363.113 29.783 363.153 29.8291C363.199 29.8686 363.228 29.8982 363.242 29.9179L366.084 34.339V30.0067C366.084 29.9344 366.103 29.8751 366.143 29.8291C366.189 29.783 366.248 29.76 366.321 29.76H367.15C367.222 29.76 367.281 29.783 367.327 29.8291C367.373 29.8751 367.396 29.9344 367.396 30.0067V36.4213C367.396 36.4936 367.373 36.5528 367.327 36.5989C367.281 36.6449 367.225 36.668 367.159 36.668H366.39C366.298 36.668 366.232 36.6449 366.192 36.5989C366.153 36.5528 366.123 36.5232 366.103 36.5101L363.271 32.1877V36.4311C363.271 36.4969 363.248 36.5528 363.202 36.5989C363.156 36.6449 363.097 36.668 363.024 36.668H362.196ZM373.851 36.668C373.785 36.668 373.729 36.6449 373.683 36.5989C373.637 36.5528 373.614 36.4969 373.614 36.4311V30.9738H371.788C371.722 30.9738 371.666 30.9508 371.62 30.9048C371.574 30.8587 371.551 30.8028 371.551 30.737V30.0067C371.551 29.9344 371.574 29.8751 371.62 29.8291C371.666 29.783 371.722 29.76 371.788 29.76H376.821C376.893 29.76 376.953 29.783 376.999 29.8291C377.045 29.8751 377.068 29.9344 377.068 30.0067V30.737C377.068 30.8028 377.045 30.8587 376.999 30.9048C376.953 30.9508 376.893 30.9738 376.821 30.9738H375.005V36.4311C375.005 36.4969 374.982 36.5528 374.936 36.5989C374.89 36.6449 374.831 36.668 374.758 36.668H373.851Z" fill="#717171"/>
<defs>
<linearGradient id="paint0_linear_6235_83205" x1="46.4569" y1="2.12195" x2="22.0595" y2="34.6955" gradientUnits="userSpaceOnUse">
<stop stop-color="#009BFF"/>
<stop offset="0.484375" stop-color="#0073C8"/>
<stop offset="0.890625" stop-color="#125496"/>
</linearGradient>
<linearGradient id="paint1_linear_6235_83205" x1="2.30366" y1="2.12195" x2="26.7011" y2="34.6954" gradientUnits="userSpaceOnUse">
<stop stop-color="#0073C8"/>
<stop offset="1" stop-color="#209FA6"/>
</linearGradient>
</defs>
</svg>
