<?xml version="1.0" standalone="no"?>
<!DOCTYPE svg PUBLIC "-//W3C//DTD SVG 20010904//EN"
 "http://www.w3.org/TR/2001/REC-SVG-20010904/DTD/svg10.dtd">
<svg version="1.0" xmlns="http://www.w3.org/2000/svg"
 width="270.000000pt" height="270.000000pt" viewBox="0 0 270.000000 270.000000"
 preserveAspectRatio="xMidYMid meet">
<metadata>
Created by potrace 1.11, written by Peter Selinger 2001-2013
</metadata>
<g transform="translate(0.000000,270.000000) scale(0.100000,-0.100000)"
fill="#000000" stroke="none">
<path d="M303 1935 c-130 -40 -217 -143 -249 -294 -19 -89 -19 -403 0 -492 31
-143 113 -242 233 -279 80 -25 213 -27 298 -4 l60 15 25 -33 c67 -89 116 -111
153 -70 26 28 21 48 -29 118 -43 60 -45 66 -31 82 28 31 66 125 77 195 8 43
10 140 8 270 -4 175 -8 210 -27 262 -42 116 -126 198 -235 230 -62 19 -225 19
-283 0z m272 -133 c94 -48 133 -124 146 -284 13 -147 -1 -328 -30 -393 l-22
-49 -26 40 c-35 51 -42 56 -81 50 -71 -11 -78 -40 -27 -115 19 -28 35 -52 35
-55 0 -2 -20 -9 -44 -15 -141 -35 -273 22 -327 141 -23 51 -24 62 -24 278 0
214 1 228 23 275 37 79 90 126 167 146 53 14 166 4 210 -19z"/>
<path d="M1021 1927 c-9 -11 -12 -139 -11 -528 0 -473 1 -515 17 -526 20 -16
58 -17 84 -3 18 10 19 23 19 214 l0 204 203 4 c184 3 206 5 253 26 64 29 126
92 155 157 32 71 32 209 0 280 -30 68 -81 118 -155 152 -61 28 -61 28 -307 31
-206 3 -247 1 -258 -11z m504 -131 c52 -22 74 -43 96 -91 37 -80 19 -185 -42
-239 -49 -45 -106 -56 -294 -56 l-155 0 0 198 c0 109 3 202 8 206 4 5 84 6
177 4 128 -4 180 -9 210 -22z"/>
<path d="M1916 1919 c-14 -21 -16 -80 -16 -519 0 -553 -2 -540 65 -540 63 0
65 9 65 231 l0 199 178 0 c229 0 281 13 364 88 77 69 111 182 89 299 -21 115
-71 181 -176 230 -60 28 -60 28 -306 31 l-247 4 -16 -23z m520 -130 c27 -13
59 -39 71 -57 42 -63 42 -172 0 -233 -51 -74 -106 -89 -328 -89 l-149 0 0 198
c0 109 3 202 8 206 4 5 84 6 178 4 156 -4 176 -7 220 -29z"/>
</g>
</svg>
