<svg viewBox="0 0 14 12" xmlns="http://www.w3.org/2000/svg"><path d="M6.5 8.648a.247.247 0 0 0 .18-.078l5.093-5.093 1.375 1.375A.48.48 0 0 0 13.5 5a.48.48 0 0 0 .352-.148A.48.48 0 0 0 14 4.5v-4a.48.48 0 0 0-.148-.352A.48.48 0 0 0 13.5 0h-4a.48.48 0 0 0-.352.148A.48.48 0 0 0 9 .5c0 .135.05.253.148.352l1.375 1.375L5.43 7.32a.247.247 0 0 0 0 .36l.89.89a.247.247 0 0 0 .18.078zM8.75 12c.62 0 1.15-.22 1.59-.66.44-.44.66-.97.66-1.59v-2.5a.243.243 0 0 0-.07-.18.243.243 0 0 0-.18-.07h-.5a.243.243 0 0 0-.18.07.243.243 0 0 0-.07.18v2.5c0 .344-.122.638-.367.883S9.093 11 8.75 11h-6.5c-.344 0-.638-.122-.883-.367A1.204 1.204 0 0 1 1 9.75v-6.5c0-.344.122-.638.367-.883S1.907 2 2.25 2h5.5a.243.243 0 0 0 .18-.07.243.243 0 0 0 .07-.18v-.5a.243.243 0 0 0-.07-.18.243.243 0 0 0-.18-.07h-5.5c-.62 0-1.15.22-1.59.66C.22 2.1 0 2.63 0 3.25v6.5c0 .62.22 1.15.66 1.59.44.44.97.66 1.59.66h6.5z"/></svg>