<svg viewBox="0 0 55.9 45.8" xmlns="http://www.w3.org/2000/svg"><path d="M54.3 7.3h-9.6V1.6c0-.8-.7-1.5-1.5-1.5H12.5c-.8 0-1.5.7-1.5 1.5v5.7H1.5C.7 7.3 0 8 0 8.8v20.3c0 .8.7 1.5 1.5 1.5h9.8v13.6c0 .8.7 1.5 1.5 1.5H43c.8 0 1.5-.7 1.5-1.5V30.5h9.8c.8 0 1.5-.7 1.5-1.5V8.8c-.1-.8-.7-1.5-1.5-1.5zM13.9 3h27.9v4.3H13.9V3zm27.6 39.7H14.2V21.9h27.4l-.1 20.8zm11.3-15.1h-8.4v-7.2c0-.8-.7-1.5-1.5-1.5H12.7c-.8 0-1.5.7-1.5 1.5v7.2H2.9V10.2h49.9v17.4zm-33.5 2.7h17.2c.8 0 1.5-.7 1.5-1.5s-.7-1.5-1.5-1.5H19.3c-.8 0-1.5.7-1.5 1.5s.7 1.5 1.5 1.5zm0 6.9h17.2c.8 0 1.5-.7 1.5-1.5s-.7-1.5-1.5-1.5H19.3c-.8 0-1.5.7-1.5 1.5s.7 1.5 1.5 1.5z"/></svg>