<svg viewBox="0 0 12 12" xmlns="http://www.w3.org/2000/svg">
    <path d="M6 0C2.691 0 0 2.691 0 6s2.691 6 6 6 6-2.691 6-6-2.691-6-6-6z" />
    <path
        d="M6.045 8.535c.246 0 .474.153.474.4v.3c0 .248-.228.4-.474.4-.246 0-.475-.152-.475-.4v-.3c0-.247.229-.4.475-.4zM6.07 2.5c1.098.015 2.004.878 2.02 1.933a1.933 1.933 0 0 1-.942 1.679 1.365 1.365 0 0 0-.629 1.162v.608c0 .259-.215.464-.474.464a.469.469 0 0 1-.475-.464v-.608c0-.805.401-1.535 1.072-1.947.32-.196.504-.525.499-.881-.008-.538-.504-1.01-1.083-1.018a1.11 1.11 0 0 0-.787.301.995.995 0 0 0-.322.732c0 .259-.215.463-.475.463A.469.469 0 0 1 4 4.461c0-.531.219-1.03.613-1.4A2.077 2.077 0 0 1 6.06 2.5h.01z"
        fill="#FFF" />
</svg>