<?xml version="1.0" encoding="utf-8"?>
<!-- Generator: Adobe Illustrator 21.0.2, SVG Export Plug-In . SVG Version: 6.00 Build 0)  -->
<svg version="1.1" id="Layer_1" xmlns="http://www.w3.org/2000/svg" xmlns:xlink="http://www.w3.org/1999/xlink" x="0px" y="0px"
    viewBox="0 0 28 28" style="enable-background:new 0 0 28 28;" xml:space="preserve">
<style type="text/css">
   .st0{fill:#04838A ;}
</style>
<path class="st0" d="M23.9,5.9c0-0.6-0.2-1.1-0.6-1.5c-2.5-2.5-5.7-3.8-9.2-3.8S7.2,1.9,4.8,4.4c-0.4,0.4-0.6,1-0.6,1.5
   c0,0.4,0.1,0.8,0.3,1.1c-1.3,1.9-2,4.1-2,6.6v2.9c0,2.1,1.1,4,2.9,5.1c0,1.2,1,2.1,2.2,2.1c1.2,0,2.2-1,2.2-2.2v-6.5
   c0-1.2-1-2.2-2.2-2.2c-1.1,0-2,0.8-2.1,1.8H3.8v-1.1c0-2.1,0.6-4,1.7-5.6C5.8,8.1,6,8.1,6.3,8.1c0.6,0,1.1-0.2,1.5-0.6
   c1.6-1.6,3.8-2.5,6.2-2.5s4.5,0.9,6.2,2.5c0.4,0.4,1,0.6,1.5,0.6c0.3,0,0.5,0,0.7-0.1c1.1,1.6,1.7,3.6,1.7,5.6v1.1h-1.5
   c-0.2-1-1.1-1.8-2.1-1.8c-1.2,0-2.2,1-2.2,2.2v6.5c0,1.2,1,2.2,2.2,2.2c1.2,0,2.1-0.9,2.2-2.1c0.5-0.3,1-0.7,1.4-1.1
   c-0.1,1.2-0.4,2.4-0.9,3.5c-0.1,0.3-0.4,0.4-0.7,0.4h-4.3c-0.3-0.8-1.1-1.5-2-1.5h-1.5c-1.2,0-2.2,1-2.2,2.2s1,2.2,2.2,2.2h1.5
   c0.9,0,1.7-0.6,2-1.5h4.3c0.9,0,1.7-0.5,2-1.3c0.7-1.8,1.1-3.6,1.1-5.5v-5.5c0-2.4-0.8-4.7-2-6.6C23.8,6.7,23.9,6.3,23.9,5.9z
    M8.2,15.1v6.5c0,0.4-0.3,0.7-0.7,0.7c-0.4,0-0.7-0.3-0.7-0.7v-6.5c0-0.4,0.3-0.7,0.7-0.7C7.9,14.4,8.2,14.7,8.2,15.1z M5.3,19.9
   c-0.9-0.8-1.5-2-1.5-3.3v-0.4h1.5V19.9z M16.9,25.2c0,0.4-0.3,0.7-0.7,0.7h-1.5c-0.4,0-0.7-0.3-0.7-0.7s0.3-0.7,0.7-0.7h1.5
   C16.6,24.5,16.9,24.8,16.9,25.2z M19.8,21.6v-6.5c0-0.4,0.3-0.7,0.7-0.7s0.7,0.3,0.7,0.7v6.5c0,0.4-0.3,0.7-0.7,0.7
   S19.8,22,19.8,21.6z M22.7,16.2h1.5v0.4c0,1.3-0.5,2.5-1.5,3.3V16.2z M21.2,6.5c-1.9-1.9-4.5-3-7.2-3s-5.3,1.1-7.2,3
   c-0.3,0.3-0.8,0.3-1,0C5.7,6.3,5.6,6.1,5.6,5.9s0.1-0.4,0.2-0.5C8,3.2,10.9,2,14,2s6,1.2,8.2,3.4l0,0c0.1,0.1,0.2,0.3,0.2,0.5
   s-0.1,0.4-0.2,0.5C21.9,6.7,21.5,6.7,21.2,6.5z"/>
</svg>
